<mxfile host="www.draw.io" modified="2019-10-30T09:10:29.681Z" agent="Mozilla/5.0 (Macintosh; Intel Mac OS X 10_14_2) AppleWebKit/537.36 (KHTML, like Gecko) Chrome/78.0.3904.70 Safari/537.36" etag="FPeRyuODebQyPeSFxC7_" version="12.1.8" type="github" pages="1">
  <diagram id="c1ILffDncSD5omwhiivd" name="Page-1">
    <mxGraphModel dx="2239" dy="1877" grid="1" gridSize="10" guides="1" tooltips="1" connect="1" arrows="1" fold="1" page="1" pageScale="1" pageWidth="827" pageHeight="1169" math="0" shadow="0">
      <root>
        <mxCell id="0"/>
        <mxCell id="1" parent="0"/>
        <mxCell id="Zpuib1WaLZx1u259Z6Dg-9" value="" style="edgeStyle=orthogonalEdgeStyle;rounded=0;orthogonalLoop=1;jettySize=auto;html=1;" parent="1" target="Zpuib1WaLZx1u259Z6Dg-7" edge="1">
          <mxGeometry relative="1" as="geometry">
            <mxPoint x="121.5" y="80" as="sourcePoint"/>
          </mxGeometry>
        </mxCell>
        <mxCell id="Zpuib1WaLZx1u259Z6Dg-4" value="F.O.X（Tracking Tools）" style="text;html=1;resizable=0;points=[];autosize=1;align=left;verticalAlign=top;spacingTop=-4;" parent="1" vertex="1">
          <mxGeometry x="170" y="20" width="150" height="20" as="geometry"/>
        </mxCell>
        <mxCell id="Zpuib1WaLZx1u259Z6Dg-10" value="" style="edgeStyle=orthogonalEdgeStyle;rounded=0;orthogonalLoop=1;jettySize=auto;html=1;" parent="1" source="Zpuib1WaLZx1u259Z6Dg-7" target="Zpuib1WaLZx1u259Z6Dg-8" edge="1">
          <mxGeometry relative="1" as="geometry"/>
        </mxCell>
        <mxCell id="CLQW1-JxTxbk87LNEcm7-1" style="edgeStyle=orthogonalEdgeStyle;curved=1;orthogonalLoop=1;jettySize=auto;html=1;entryX=0.5;entryY=0;entryDx=0;entryDy=0;entryPerimeter=0;" edge="1" parent="1" source="Zpuib1WaLZx1u259Z6Dg-7" target="Zpuib1WaLZx1u259Z6Dg-12">
          <mxGeometry relative="1" as="geometry"/>
        </mxCell>
        <mxCell id="CLQW1-JxTxbk87LNEcm7-2" style="edgeStyle=orthogonalEdgeStyle;curved=1;orthogonalLoop=1;jettySize=auto;html=1;entryX=0.5;entryY=-0.025;entryDx=0;entryDy=0;entryPerimeter=0;" edge="1" parent="1" source="Zpuib1WaLZx1u259Z6Dg-7" target="Zpuib1WaLZx1u259Z6Dg-11">
          <mxGeometry relative="1" as="geometry"/>
        </mxCell>
        <mxCell id="Zpuib1WaLZx1u259Z6Dg-7" value="" style="shape=mxgraph.gcp.networking.cloud_load_balancing;html=1;fillColor=#4387FD;gradientColor=#4683EA;strokeColor=none;verticalLabelPosition=bottom;verticalAlign=top;align=center;" parent="1" vertex="1">
          <mxGeometry x="80" y="120" width="83" height="80" as="geometry"/>
        </mxCell>
        <mxCell id="Zpuib1WaLZx1u259Z6Dg-25" style="edgeStyle=orthogonalEdgeStyle;curved=1;orthogonalLoop=1;jettySize=auto;html=1;" parent="1" source="Zpuib1WaLZx1u259Z6Dg-8" edge="1">
          <mxGeometry relative="1" as="geometry">
            <mxPoint x="122" y="380" as="targetPoint"/>
          </mxGeometry>
        </mxCell>
        <mxCell id="Zpuib1WaLZx1u259Z6Dg-8" value="" style="shape=mxgraph.gcp.compute.app_engine;html=1;fillColor=#4387FD;gradientColor=#4683EA;strokeColor=none;verticalLabelPosition=bottom;verticalAlign=top;align=center;" parent="1" vertex="1">
          <mxGeometry x="80" y="240" width="84" height="80" as="geometry"/>
        </mxCell>
        <mxCell id="Zpuib1WaLZx1u259Z6Dg-27" style="edgeStyle=orthogonalEdgeStyle;curved=1;orthogonalLoop=1;jettySize=auto;html=1;entryX=0.5;entryY=0;entryDx=0;entryDy=0;" parent="1" source="Zpuib1WaLZx1u259Z6Dg-11" edge="1">
          <mxGeometry relative="1" as="geometry">
            <mxPoint x="212" y="380" as="targetPoint"/>
          </mxGeometry>
        </mxCell>
        <mxCell id="Zpuib1WaLZx1u259Z6Dg-11" value="" style="shape=mxgraph.gcp.compute.app_engine;html=1;fillColor=#4387FD;gradientColor=#4683EA;strokeColor=none;verticalLabelPosition=bottom;verticalAlign=top;align=center;opacity=50;" parent="1" vertex="1">
          <mxGeometry x="170" y="240" width="84" height="80" as="geometry"/>
        </mxCell>
        <mxCell id="Zpuib1WaLZx1u259Z6Dg-18" style="edgeStyle=orthogonalEdgeStyle;orthogonalLoop=1;jettySize=auto;html=1;curved=1;" parent="1" source="Zpuib1WaLZx1u259Z6Dg-12" edge="1">
          <mxGeometry relative="1" as="geometry">
            <mxPoint x="32" y="380" as="targetPoint"/>
          </mxGeometry>
        </mxCell>
        <mxCell id="Zpuib1WaLZx1u259Z6Dg-12" value="" style="shape=mxgraph.gcp.compute.app_engine;html=1;fillColor=#4387FD;gradientColor=#4683EA;strokeColor=none;verticalLabelPosition=bottom;verticalAlign=top;align=center;opacity=50;" parent="1" vertex="1">
          <mxGeometry x="-10" y="240" width="84" height="80" as="geometry"/>
        </mxCell>
        <mxCell id="Zpuib1WaLZx1u259Z6Dg-13" value="GAE" style="text;html=1;resizable=0;points=[];autosize=1;align=left;verticalAlign=top;spacingTop=-4;" parent="1" vertex="1">
          <mxGeometry x="260" y="270" width="40" height="20" as="geometry"/>
        </mxCell>
        <mxCell id="Zpuib1WaLZx1u259Z6Dg-14" value="Load Balancing" style="text;html=1;resizable=0;points=[];autosize=1;align=left;verticalAlign=top;spacingTop=-4;" parent="1" vertex="1">
          <mxGeometry x="164" y="135" width="100" height="20" as="geometry"/>
        </mxCell>
        <mxCell id="Zpuib1WaLZx1u259Z6Dg-15" value="オートスケールする" style="text;html=1;resizable=0;points=[];autosize=1;align=left;verticalAlign=top;spacingTop=-4;" parent="1" vertex="1">
          <mxGeometry x="260" y="290" width="120" height="20" as="geometry"/>
        </mxCell>
        <mxCell id="Zpuib1WaLZx1u259Z6Dg-21" style="edgeStyle=orthogonalEdgeStyle;curved=1;orthogonalLoop=1;jettySize=auto;html=1;entryX=0.175;entryY=0.5;entryDx=0;entryDy=0;entryPerimeter=0;" parent="1" target="Zpuib1WaLZx1u259Z6Dg-17" edge="1">
          <mxGeometry relative="1" as="geometry">
            <Array as="points">
              <mxPoint x="32" y="555"/>
            </Array>
            <mxPoint x="32" y="470" as="sourcePoint"/>
          </mxGeometry>
        </mxCell>
        <mxCell id="CLQW1-JxTxbk87LNEcm7-4" style="edgeStyle=orthogonalEdgeStyle;curved=1;orthogonalLoop=1;jettySize=auto;html=1;entryX=0.175;entryY=0.5;entryDx=0;entryDy=0;entryPerimeter=0;" edge="1" parent="1" source="Zpuib1WaLZx1u259Z6Dg-17" target="CLQW1-JxTxbk87LNEcm7-5">
          <mxGeometry relative="1" as="geometry">
            <mxPoint x="350" y="555" as="targetPoint"/>
          </mxGeometry>
        </mxCell>
        <mxCell id="Zpuib1WaLZx1u259Z6Dg-17" value="生ログ" style="html=1;fillColor=#5184F3;strokeColor=none;verticalAlign=top;labelPosition=center;verticalLabelPosition=bottom;align=center;spacingTop=-6;fontSize=11;fontStyle=1;fontColor=#999999;shape=mxgraph.gcp2.hexIcon;prIcon=bigquery;" parent="1" vertex="1">
          <mxGeometry x="57" y="500" width="130" height="110" as="geometry"/>
        </mxCell>
        <mxCell id="Zpuib1WaLZx1u259Z6Dg-26" style="edgeStyle=orthogonalEdgeStyle;curved=1;orthogonalLoop=1;jettySize=auto;html=1;entryX=0.5;entryY=0.16;entryDx=0;entryDy=0;entryPerimeter=0;" parent="1" target="Zpuib1WaLZx1u259Z6Dg-17" edge="1">
          <mxGeometry relative="1" as="geometry">
            <mxPoint x="122" y="470" as="sourcePoint"/>
          </mxGeometry>
        </mxCell>
        <mxCell id="Zpuib1WaLZx1u259Z6Dg-28" style="edgeStyle=orthogonalEdgeStyle;curved=1;orthogonalLoop=1;jettySize=auto;html=1;entryX=0.825;entryY=0.5;entryDx=0;entryDy=0;entryPerimeter=0;" parent="1" target="Zpuib1WaLZx1u259Z6Dg-17" edge="1">
          <mxGeometry relative="1" as="geometry">
            <Array as="points">
              <mxPoint x="212" y="555"/>
            </Array>
            <mxPoint x="212" y="470" as="sourcePoint"/>
          </mxGeometry>
        </mxCell>
        <mxCell id="Zpuib1WaLZx1u259Z6Dg-32" value="stack driver logging" style="text;html=1;resizable=0;points=[];autosize=1;align=left;verticalAlign=top;spacingTop=-4;" parent="1" vertex="1">
          <mxGeometry x="264" y="415" width="120" height="20" as="geometry"/>
        </mxCell>
        <mxCell id="CLQW1-JxTxbk87LNEcm7-3" value="" style="shape=image;verticalLabelPosition=bottom;labelBackgroundColor=#ffffff;verticalAlign=top;aspect=fixed;imageAspect=0;image=data:image/png,iVBORw0KGgoAAAANSUhEUgAAAs4AAAL1CAYAAADXUWJCAAAACXBIWXMAABcSAAAXEgFnn9JSAAAAGXRFWHRTb2Z0d2FyZQBBZG9iZSBJbWFnZVJlYWR5ccllPAABAs5JREFUeNrsnQdgG+Xd/3/nvRI7iRNnxyFkkUASNmXE0BdaWgoBSls6iNMCbxmFQOnb/mkLpou3pYUE+hZaKHGgUKCMhD0COKwQIIkNCRlk2HES7yFva9z9n0fDviXpTjrJJ+n7AUXS6XSSTrq7zz3+Pd9HkCSJAADm2FrfuZhIKhUlWtzU2b3Q4xGPdro9GVPGFS7g2xSbThLxa/Zv4L7/Nr/0DjgH2fNqszMzBgacrp6C3Oz3CvNyGtl81ezxzmXHz6zGWgYg+dhyyFHErhYLRKXEL4JQ6r/NYfsVKhQEYWh+QfZcPll5X6hjV7Xs0ske4/sMfqldUFKA/QcAMUKAOAMQnh2N3YuZBC9rdfRekJudtSA7Mz1HK8SkFGWVOJM0fF/+XL1pnENtnUfcHs+BKeOKNoii5D0ofvuU2bX4NgBIDD6u7yzzyzCTY2Exk9ulGiFmEwX1gdm4OCseUyyDaCN7vIrdXDd/Qj5EGgCIMwCxZVdzLz/olQ84XZdlZqTniSo5ljTiG1ycJZlgiyHEmW+NoujbJvl0ftv7n3/e3kHnYFffwK7i0QXr2P0qNk/18jPmd+LbAmBk2VzXWcquypjABmR5kVxmuR4r78dcnOWPO7hAs8sqSDQAEGcALGNfe38R2yTKewec/5OTlTFJKcNqAQ4vzvrPU0qyrzGaS7Lov00qwZZ0pvF367vf1tVbm5Ge9mp+TvZr7H7VlUsXQqQBiDEf1nX4RJkELsr8MkMtsDYSZzl1aYJQMXd8XiW+RQAgzgBERG3nIBNmaeWgy3MLk9B8ubDKBZbUcmxAnENJsrr2WW+5YpDWbWUpyPDrtzi6a8aNyq9ky6n68TnHoXUJAIvYVNuxjHytysuGRFmlvQkgzpTmm85boblAr8I3CwDEGQDDHHQ4y10ez73sYDJKK6nkF2aJPCbFmeOVWx1JNlP7rN9iHVyc5e+lu3+gLV0QXs/Oynzquv9avA7fNgDGef9AeymTzzJ2cxlTzYuCCXGCinNgPt7BsHzO+LwqfOMAQJwBCMrhblcpk8tKtgksDd66OyzOol6rcqAlmny3PeLw7VDJGsHrpMOLs3bZ/D2J/nmGb/tKOYaXNeB08QSPdwtycx5n99fd9NUTUNIBgIr3mCz7RbmcvHXKgq7AJpE4B1jP5i+fXZyL/QIAEGcAlBzpdi9zi+Ij7PgxykgdsxREnOVyaiRZIzDfq1t2DLdKD8m3RCccPYMK83KDijOHt2D7li0XZmVLdDgJ59ddff1vjMrJfvzmr51UiV8ESGXe3d/GZFlYxvYHXlmWC2UKiXMg3m4Zk2eUeAEAcQbAR0OPu4L97G9XttiGrmMeqlMeSrrQl2v5sl76ZDu9t2sfbfliL/U2NRDt+IiovV629aUF2Sr90486iahkIlFePk2fOZNml0ygWSXjqWzhHGW9tPy9ExluvQ60pA+43P3sJGJddkbGUz//xiko5wApwTv72or8tcpclpdSELFNMXHmV7z2eSWTZ5xQAwBxBqlOU6+nkgnjcklT6qAUZ19nPnGoVThULXFgelt3H1Vu+ID+s/FdEl96yH+ESg8tx0anp6mml55ANKGEphyzkM5dOJ+WzJxGBbnZhsSZJPU8gZZqop6BgZaczMzH2c1Vt150Wi1+MSAJhZnLMr8sV3olxFk1/wrIMwAQZ5DCHOn1VHs8nnndfYPZRfm5uuI8LJ5EwZI11KUcL3z0Kf15/avU88Q9qqNTjKQ52PylSyhz/rF08jHzqeyYOTR9/BhlHbasg2PgxEDeki6phHrA5dqZlZ7xJzbXutsuPh11jyBhqdrbWkq+luVyJo0z9GUT4qyen91dcfQ4yDMAEGeQgtIsbswQ6Cx1iUWLo4fGjsqTCbMUVpwDLba7DzfTt3/1B3ZUfkLnyBRnadabPn0RZcxfSOeeeDydMe9oKszLUcTi6bU6i6poPD5twO3uz0xPe4o9tuqOS89E7SNIGN7e2+qVZYGGR+xLCyqbEGcdceZAngGAOINUorbb83p+hnCuT46V9cjyVufWrj52QCEalZcdNpLuivseoeq//CyI7NpAmvWmzzuNjj79TDp7/hxaMH2yfrmGTuqHKBvIZdDl3pmRnv6n3112Fg6kwJa89UVrqb+TH7/MUMshxNm0OPN5VsyCPAMAcQbJzxednufz0qWvZGWkZQXEmXSzkLUtzofbHDRpzCiFbHO5XvqTXxC9/URiSbOa6cdR3pIT6Tunn0bHTJuo0ylSX5wDLfVut7s3LS3tIXZ/1Z3fObsWvzRgA2Eu88vycj2JhDhHJc78nxWzxkKeAYA4g6Rle7u7Mk/wXDIqJ3NUYJpedJuRZI1+p4tqm9rokuv/h2jLy4ktzerlT11IeYuOp8tOP5XmT51kSJx969I3uMug2/NyZnraXX+8/Jwq/OpAvHlzT0s5k7qVTD8XhZJIiHPU4syBPAOIM8QZJKs0Z0qeb43Ny8yVTzcjzvJkDd7SfOYV1xB98lJySbN6/inH0JhTT6fvnHYyTRlbOJwLzR7ysHUxJMw6ZR0uj7idHZD/8ufvfRkHVhBTNuxpKWIet5J8l0ISlAILcY6ZOEOeAcQZ4gySUZrTBVqeJbpodF42mRVnjrqD4Lzv/4To7X8ntzSrOe4sWnDKaXT+ogU0Kjdb0+qsN3w4v3aL4mF2jH2I3V216gfnIo0DWCnMpeyqgnwj+xXK7Q/iHDdx5p9kxVFjcyDPAOIMQDJIM7ta3uVw0OyJYzSPS4ooNt9t/m9gqGy9ZI2b//kMvfjrq1NLmuWPjR5PwpLT6Ssnn0Qnzy41Nnw4eVuge9kB+s88jeO+5V+BQIOIeX1382J2tZL9npbrCR/EOe7i7I2qmzkG8gwgzgAkvDSnsx18cY6+EAZkWdIMm63fQXBnfRNd+LXziVprU1Oa1Z930hyadNbZdNnJJ1BBTpYiI1pUifOwXHuHBl/Lblf834rza/FLBUZ5bVdzGRO0CvLHyQUTPojziIgzB/IMIM4AJLI089vBWpsDhIqkU4vzCbfcSV2P3QVpVn/eUeOJFp1Cl555Oh09uURXnIfXZ2A672ZITKCp4v4fQqBBaGEmX0nGUrnLQZxtJ86QZwBxBiCRpZnnMI/PSQs5v9FIul31zXTBSfMgzeE+7zGn0KwTTqJLTlg01JrvlWRJdZJCilrotWwdV/zjyq9DoMEQr+5qKhO8wiws1RNCiLMtxdmb81wKeQYQZwASS5o5vb29dFTxqJDPMZqsce4d99GB+2+PTpqDymiSSLOciUdTwfEn0/fOPI3ysrN0SmGUnQj907wlHA9d/Q0IdIoLMwVamFU6B3FOCHHmQJ4BxBmARJJmzmBvD00vHm2JOB+98HhlbTOk2dhyRo8nWnA8fefLZ1NJ0WhVB0KNOAdKZrwt0Gt+fCEEOoV4ZadPmJmELVVKGMQ5AcUZ8gwgzgAkkjSH6hRoVpyf2/QZ/XTZWZDmaJdz2lfoS0sW0/Gl04KKM0cUA+UcTKBFsWLttcsg0EnMywFh9nf600oYxDlBxZkvY8WMomzIM4A4A2BnaeYYKdMYEmcKHUl3TsW9dOBvt0Garfq8c0+gU5aW0QlMoAPizFEMqiL6BlqRl3A8et3FEOgk4qXPlS3Mgq5gQpwTXJz5FeQZQJwBsLM0c1pa22jhtPGGxTlUJN3MC35A9NELIyfNwR5LRGmWwwR66nGL6euLFg6dpARriWZS3c1muZvdXvX4Ty5FDnQC8+LnjaXsahXTrYs0QgZxTkZxhjwDiDMAdpZmTh65aVRulqFlhYukmzmhCNIcy887oZQmn1nmFejQtc9MoCVpSKCfuOGbEOgE4oUdjaX+HOblcsmEOKeEOEOeAcQZALtKc2aaQGOzBcPLCxVJ98wHNXTzxWdDmuPxeblAn1FG5x93jLb2WTWYiiiK9ewZtz1542U4ENuc53c0FrGtcSW7uZJ5VKFaMiHOKSPO3qi66ZBnAHEGwD7SzPG4XDR5dLbhZYbqIPi7p16jB39yOaQ5np93/HSaePpZ9NVjF6hGI9QdhbCOTS9/5qZvV2HrsKU0c2HmHf8Kg0kmxDmlxJkDeQYQZwDsIs2cw02tdHzpBEvE+fK719AHf/wppHkkPi8T6JIvnUlfWXjMcAdOnVEI+X8eSdrI7qx89ubvVGNLGXnW72hcRt46ZpoRXIohzikqzt60jWmFWZBnAHEGYKSlmdPR3kHzpoyzRJxnX/ULcj7/j8ST5lDPSQRpli/rqGNpwWlfoiXTpsiytZWjEMqm8wzolc/fcjnqn0eAddsbF3uFWZ2UAXGGOGvXI+QZJDxpWAUg0aWZk52ZHsFpo2J3P3QwcfZ0Q5pHUpo5+z+jHY/9nf71n/9Qdf3h4F+bD/47qfvGXY9XYMuJH89tbyxi0sy3021EwwOYABCCNfUOZzlWA0hk0OIMEl6aOSW55s8B5S2Y8ki66d+5juitf0OaR0qa9eaduYDOPu88mjCqYOgvBfKWaNmIj7z+eeUrP//+OmxJMZVmfpKyMlDHLD+hQYtz8PnQ4jwEWp4BxBmAkZJmK8RZXq7hFee3n4Q020Wa5Rx3Gp11yslegdYTZ398HT8J2siuVr76ix+g/tlCnvmsoYwpUyVzoBnBZBLiDHE2IM78+SumjoY8A4gzAHGXZrNRdHJx1oukm37mhUR7PkgdaTa9nBGS5sBj+WMoc9GJdM6iYykvK9N3AkSSfNhueQv0apGoYsP/uwL1z1Hw9GcNpeyqkg+RLZcmiDPEOQpx5kCeAcQZgHhKMyeLifOYCMQ5WAfB6SXFkGa7SrMcJtBjzjibyubN9rYyy79PmTgTE2cHu73yzVuX4wBtVpg/bSginscs0O1DMgZxhjhbJ87enOcpkGcAcQYgPtIcE3H++hVEn7wMabazNMuXUzSRjjrnv2jBpInBxDlw2xtf9/avVqB8w5g0e+PliMfLyQQK4gxxtlicOZBnAHEGIB7SHBNxvvx6oreegDQngjTLmT6XTi4ro+L8fI04k1KmV7NLxbu3/QjlGzr859Phsgy1/UCcIc4xEmdvzfPkUZBnYH8QRwcSWpqjP3XUj6SDNCeYNHPq99JHjz5EL2/aTH1O59DXqzPnjexSe8Yd/yzHVjjMU582FLFLBbt5gBAvB+LPmiPdiKoD9gctziDhpTnSFmeOXiTdVG8c3ROQZivfT6ylWVB93tzRlHP8SXTWgvlDow4OtTiT/y8Norcj4UY+fPemiitrU3l7fLKmoYydZPBtcoa6xVh+By3OwT+T7mNocTbT4hwALc/A1qDFGSS0NFt6FhmpREKa7SXNnP4uGnj/TXp93Xra2dg0fODWHu15y+qBU29/sCIVt8Unao4UMWnmmddvk3+obABGmDVHul3lWA0A4gyATaVZ3SZzxkknQZoTWZrly2k5TIdefIbefO99au3p1XznwvDt20+5/R+1J93297IUkuaV7KqWXS7CngnYTZ4beiDPwJ5kYBWAVJfmsMVKkObElGY5uz+lTw8eoLT5x9IZi44N9t3zFte3T/j1A2t5fN3W312TlJ0HH68+sph99lWCgDpmYHt5pkkFmZVYFcBOoMUZpKw0B2PhtMmQ5lhJc8izmBhJc4CBXhK3fUjvvPgi7WlsDvVO+O+0dskv71+WhNJcwa62ETr/gcSR53KsBmAn0DkQJLw0R9M5UC+S7pkPPqUbL/4ypDkW0mxJi7VFn3fOQlpy/BLKycj0ff80nAHN8XUe9A7dXV7zh2trE3kbfKz6SBn5IuaGhsoe7pwVpMOeYv0NX6FzIDoHxrhzoN53sWIiWp4BxBlAmq2jJDeyP574ZFmRskCtXb20eO5MSHMyS3Ng2dl5lHnsEjp+9tH+sg2J3KLo/20MnVA5eO7zZ3detyrRtr9/bTvCR/6rYBJyo1pqIc4Q5wQSZw7kGUCcAaR5pMWZoxtJN6kE0pzs0ixn4jSauuR4mlxUqBl5UBZnt5FNK//8jz+pTYTt79Fth8uYfvBtcIae1EKcIc4JJs6QZ2ALUOMMEl6aOd39TmvOJAM3ll4GaU4VaeY01tOhV1+gj7Z/Tv1OV7BX8kbXzf+feytsLcxbDxcxaeat44iYA8nGmqZedzlWA4A4A0hzlNS2RBeAoG6XGTdlCqTZLtIc8ouz+PNu30o73niNaptbQ/1Obp/3s9XVc25ZtdiG0sw7NNaSb3REACDPAECcAaRZS2Z6umXSzFkwZXJk0gZpjsFy0uP7eXsc1F71Om37ZAsNuNz6vxFBWMT+3Tb7llUVdtjuHuGtzFsP84FMnmOXQuyJAOQZAIgzgDQHpc/lsXR5l566xLycQZoTX5rl02v30u5XX6Z9DY2+xWhGHvTevn3WT++pPurme0as9fmR4VZmDGQCUkqemyHPAOIMIM2RMaYg19LlnbVgFqQ5laU5gHOAeje9Q599tJk6+/r8vqxpf/a2Ps+8+e6KeP7m1249XMQuvJYZrcwA8gxAnECqBkh4aeZEneVMykg6b7LGBewjbX0d0pyo0mz1+8zMprQ582nuUTM1yRsc/31v8kbdqltqY2oLWw6VpQn+xIzAW1d8jsBV8MQMpGogVUO7fNunagRbNysm5GdU4mgM4gFanEHCSzPHE8UJYLADXfHceZFLc8gXhDQnnDRzXIMk7qimnZs+oO6+fplIKuDJG9XTbrxrZSx+5w9vOVTEpBmJGQCoziVb+jzlWA0A4gwgzYbFOfplqFvKLjv1xMil2QppgzTb8322NtGRd6to74HaYGu1UBCEe6be8KeqKT/5Y6mF0szrqKsJiRkAQJ4BxBlAmqPls4PNli7vzGNmQZohzfrzu10k7fyMvvhoM/UODOqcfnn/pOxtfWbyvCza3+I/PzlUwa62EVqZAYA8gxEFNc4gKaSZ0+Vw0OyJYyJ6riQphlgmXunMb09ffAZRay2kGdIcfP6MTKKj51LpjOlDvx2S1UD7LrSe1z43/N8vTAWOM2Hmrcx8e1ukrglNU9XeosYZNc7qz5xCNc7q5a8Yn5deiaM1iAVocQZJIc1ef8nIsHyZOaeWxVeaQ57mQpptJ80cj5to9w6q/fhj6hvoD7bWeVRcdcm1d5YZ/bof+uQQr5OuIl9qBwDAOGta+9HyDCDOANIckqJRBRYuzdd6seK/yuIrzWk2iGCDNJtYjqyVq6OVWja9T4eONARb+7zM4u0J1/xhVahf3oMfHypi0swHM7mHEDMHQMTy3AZ5BjEApRogKaQ5QEluZOeCwSLpPq9vpvP4YCiQZkhzKGlWTxtfQhPnL6D09LRAqYYsus5bvlHDSzdaHvhVtUqaeT10JVtM4fDpm3LRKNXQf38o1dB+5hQu1ZCvqxXjclG2AawDLc4gaaSZE2kHwWAHu3lTxxPNPgXSDGk2Ls2c1mZq3PQeNbe2BROWRWz+quIf/26lX5iL2AWDmQBgPWh5BhBnAGkO7rHpUT1fr7Vt3tlfhjRDmo1Lc+C2202u7TV0ZM9ucns8ql+Zdx4uyPccf8fDb4uS9C4hZg6AmMlzO+QZWEQGVgFIFmnmTJ0w1vJlXnbK8fTbB20szSHPBCDNIyLN8lOvxgZq6eyknDnzqGj0aMVTv7TwWLrglBPKBOxuQArzaVMvdTndQ/fv3lrL7js18y2fX0pHF+V4bxflZNBxJflm5ZnGomwDRAlqnEHSSLPXg5iBjM+Jos5ZJ5KO354xfbp9pXnEJBLSHFaa1Y9PL6UJU6dRZmYmXXrmGbRgxlT1MxRPQ40zapyTocb5oGOA6rsG6e5tdXSgb5DaWrt925mQHf1OX/KwC5Ps0bn03Rnj6dI5E+nMGUXadTV8cwXkGUCcAaRZRl93F82cUGSpOM+95lc08NIjkGZIc+TS7L9OP+4EuuuqcsrLytSVMogzxDmRxXlHSx+t2X6InmlwEHX0sBfLHZkDQZabvj97Et18ykyaXpit/pwrxuSkQZ5BRKBUAySVNHvF2emx6rySyJ+vwWPp7n/lX5BmSHNU0jzrgkvolm+chx0NSAocA256t76L7vv0AH3R0st2l1mqbS135N6cM4P+taPFeyHBTb8+bRatWDyFCrO9+6M1HQMiQZ5BRGaAFmeQTNLMyUkXqDDLfNVosEg6D7vd2tVHJxx3DKQZ0hyZNOcV0PJrrqdT5sxUtOKhxVlvHuWS0eKsXN5Itzh/wET51i21dKih05pSi3gieShjTDZ9cunxNL3QWyuNlmdgGrQ4g6SSZm9DgyjpqIiBs0jBJ89DBwy/SPPbxaPzKOf8H9DAK49CmiHNpqQ5bfFJ9Pvy71Nhbg52NCDhONQ1SGt3tXVU1rb3UEfvtOHfd3bifRi2T3J3umnxPz+iOVMKpNeWLVrDN9OibMgzMPEzQoszSCZpDlCck9aaLlCx2eeJviZn3TrnO59+gx645SpIM6TZsDQf963v039/+UzFnGhxRouzYnk2bHHe0dJLv6ppat1xxEE04CymZEXySLd86WjnL7807ceQZwBxBikrzZyCTMGRnyGYHkgilDi3OHrpxEULIM2Q5vDSXDyBrv3xtTR/2qShsHyIM8TZzuK8ncnybZ82t+442J5Obs+YlDoQjs7p/PiSY3954uT8v8EKAMQZpJw0czLTBBqbHWGdcxBx5tfzr72NBl59DNIMaQ76uMBLM5Z/n0bl+UozIM4QZ7uKM5flX9c0te6s70g9WdZu54N/PmfOH356yqTfwA4AxBmklDQHmJCb1sEOD6YOBuHE+Y/PbKAHfvbfkGZIs+7jvDTjynPOVMoexBnibCNx5jXLj+5p73h0V5OHBlzJW4YRIbNmjr9v7+ULbsCaABBnkFLSzBmTnVaflUbTohNnLsziUKfBps4eOvncC4laayHNkObh2/mj6Ls/vo5OnXOUVvYgzhBnG4jz2h0t/X/c2dxKnX3TCIQkfVLRWveKxeVYEwDiDFJGmjmRxNKFiqQj8rU6n/zzu6jlPw9AmiHNPuYupN9dczWNys3RFUGIM8R5pMT5ULeTbvj4SOvu2rZ8tlPLJWAMUWxj+5FbpFvLKrEygOYQg1WQUtJckSrSzBnweMW339SZpKB/kJJP96YkQJohzYzp37iUVt18g1eaAbALldtb+hc8ub3pK099SrsPtBZDms2aUdo49u8a4Q9Vy7AygOYQgRbnlJFmvgN4LtU+dyTlGqGSNXzXEh313Z+spo9e4+t0BqQ5BaU5r4C+uvyH9FVvyooQspUVLc7yxaDFWfOeLGpxPtw9SLdsaejefqAtA6IcBR43Ubp/iAuJutgKXyrdWlaNFQMCYACU1JDmUt4IkYqfvd8tTcuKYBTBcOx97N7aWWNzS4Vx08vZ3XImzUshzSkizdNn0s9+/GOaNLYIOxcw4mw61EVXf3So3l+7PAprJEoGe9mJcWFg8x/tP3YuxooBQ4cCtDinhDhXsaulqfr5J+Sm9TPlMdwCEy5Zw/9YHRfnoQ1p/Ey+Y11J8lIYSHN83mewZcVAmnNPW0q/uOwSZdQcWpxDPh8tzsPzWdnivPbz1v6/bD3sJpcbsmwl8hbnYe6Qbi2rwMoBEOfUkOZydrUmldeB2XINI+LMEUXp7FnjcqsUG9T4mUVegRbSuEQXQpqTR5pPveIquuy0ExWzQZwhzvEU526nh27f0uB4a09zFsox4s4SlGwAiHPySzOXuFpdgUshzKZrDMXQiaJuJJ2HTfeKsyStnTU2t1x3w5owi697XgPNWylmQJoTWJrzCujKm26h+VMnaWaFOEOc4yHOvH75wvcPNnmaukdDmGPIYB9Rdl6wRzcycS7DSgIQ5+QWZy5tt2NNmCvXCBZJp1Ouwe+POXpcbmfIjWzCrHImc1ywl0KaE0yap8+kipUrqUAWNQdxhjjHS5wPdw3SRR8wYW7sKsFePA4M9BLl5Iea42wmz1VYUakN4uiSV5p9JQPAtz90U6/hs8kgkXRBKA8r4s37KqWmL3hLxdm81QLSnBjSPOac8+mu//cLrzQDEE8+PNJNS57e0XTBs9sJ0hxHQkszpwIrCaDFOXnFmUvzPVgTPjLTBBqbbbxcw0gknf9+3dHjhjsJGtroSmaXMfHjO+ClkGYbSnP+KDr5m5cP1zNr50CLM1qcNZ8p5M+LjLU4c2G+dlN9E/UMpJYs9zmIejqJWg8ROfuJHG1EnS2+x1rYtPptOi0SIlHhJKJZJ/nuT5zhK7OYMptozES208829x70OwXqgVZniDPEOUnFuZbkGcOAxuekOZg/G6r3NiHO/PbFs4vz1pne+CbNLSPfXwUugjTbRJrHl9APr76W5k2dFFIkIc4QZyvFeXMqCXNzHVHbYZ8QdzA53vaiUobNEGr+qUuIjjuDXc9hl3kG5L2LKG+0kVddy8S5HEdUiDNILmnm0WjbsCaU5GcIHQWZwhhD+2NjkXTeYmj2//qjx+VGPMIUE+hSJn+rhgQa0jwy0jz9KPrVypU02l+aAXGGOMdanDcxYb7+w0PJK8y8JblhP9HhL4iO1BLtejs6GY50fi7RJ51HNPek4YxmNcZbnDljmDx34qiammAAlOQEZ8M6DHikMUycLVsePwCLvhPPi75o7SudXZxXG8lypIbd/HnLhMnzy8hXQ7cU0hxfac46rYx+e8V3sZGAuLDpcDf9ZPOQMCePNLsGiep3Eh3aQ/RFtX6JRdiWhDRz8mxk/kPbfBfO135CdMJXtKUc6aZ0iDeUVOKXnJqgxTkJQZlGcMZlp9VnGMh0NhFJF2idXs3E2ZLOmF6BFoLUQEOaLZfmE5dfRZedetLwLKpZ0eJMaHEma1qceQ2zTJiTA0cT0YHtRLu3sstG5WOiJ/LlxqLlOQCvjf72rcMlHOHTNNSsl24tW0YA4gySQppRphECo5nOJiPp+G0Hu106d3y+ZX++E6YsKCN5C7RpiYQ0h5Tm/AIqv/EWmjt1kq6QQZwhzlaJ8+FuJ138Tl0rtfcWJ8WO9NBuov01RHs/ZbcNjAkSqUDHUp45vPX51AuJ+ruJck0MwChRt/TLstEEIM4gKcQZaRphmJCb1sGOZ2FrnUV/nbNkrIMgv30TE+dVlm+kPoGuZBI5A9JskTRPn0nXX/VjmjKuKKiQQZwhztGK85EeJ12yqb5JaupO/BZmLssHmChvfZ3I0WD++XaV5y//iGjpdyJ5Z0jXSFFQ45x8lGEVhKbPLaXlZxirdRaIyMSpJT9psVycpcM7+M65VJh2bDkZGYkQ0hxSmjNPXUo/u+wSKshBPjOIDXxo7Du2NTre/aKF90RLXGluqSPa9ZFPlrualNuiWUFNS49MnmNR8yznzX/6rs3LMz/WQpwhzgDinPz0u6VCo+Jsav/OhHZXc2/5vAn5lbF431L9Z3y5lUygK9jBgUt6IaTZnDSXfP0SuuFrXyEBmwGIEbdsPux4d29rFklSYUJ+AOeAg6o3FNLnTJjrq60TVLvL8+hioiX/ZeZdLcavPTXByIFJxPZ2d6muTAEFHonILVK9ARE2KsxDf86lOIzWyAS6gl3x7/oOSLMRaWbkFdCSH1zllWYAYsGju9r6T33yM18rsyTlJtjbd7DLWnZZQn/8Vie99o/Q0mxkWw4lzxG1TKTFdv7n/ujLmDaKKJ6IX31qghrn5BLnMnb1NtZEeLLSBBoTZiRBI1nOvv2nNNyR0Pf42fMm5FfFZQOevogL9Cp2kLjInIymkjSPou/feItvUBPVSdFQrTJqnFHjHGGN8+aGHlrJkzJ6BxOxJKOGfOVl63gusZA7midFPGf+bF40/8p2rHnmec9X/8nM0pHnnIKgVCO5KMMqMMagh0uuEH4kQX6EHDq5HK545gdfT2C6thC6Il7fhXSwppZ4BvSMJWWkTuCANHsHNfn5DStpVC7qmYG18I5/l757MJCUkUjSzFuX+Uinq5j0Vau2ufKIJDhZyjZ41vO2DWZKNni5RhW2BogzAEmNz3cl6naJWYVZ4f+cx1ucAq3L3kFPyNfqLJ+uYunnTT2LjykpqI7bZ6rbxnfeZUygyynQgTDFpTnj1DK6+dJLIM3AUrqcHvptdaPj/b2t/KQ7keLleB0Cb12u1GslFfKKSomPXhqJBCeTPL/1CNHCM7UDpOhThC0C4gwSmzKsAkOa6RXffreUOzqL+plq5QZztKFGZX+rssmEjfK4f7K6bZVMntcxGeWvf3uqSvOEr19K15+PemZgLY/ubuu/f+thIcE6/vFRSXjr8joD+6zIJThZ5JlH7R3cQTTreCNL5S3O67BlpBboHAhSS5ml4cFNPGwf2u+SesPubyN4Hfac5Z83dpeOyGes29YpHdhSwW7OZJf1EUmzGdG1mTQv+sFVdB2kGVgIr2P+0vpdTfdvOZTLdiCJ8icM3tlvJhPmsnDSLOQVFWlO9IUI9SAZOgx+9AZ+9CAoaHFOLvBno7DSHOjI551CDqenOC8z+s0gUOasKneuoBFodR76vAe21BKvfz7q5DLiA6ioh2EPdRDRe8zu0pxXQJfzToBTJuPHDiyBl2V87d2DTdTsHcAkEeqYef1yoByj1sTz+H5KP94yFVued24g6vsx26eE/cMCIulSELQ4JxeLsAqCS7MvF0N52yVKNOCW6kMJseH9saK3Pu/mLyzfMUKtzorPvv+jKnbh7+MO/4E1+aR52kyvNM+FNAOLWPVZy8DXnv283y/NdofXL9/ELqVMmCtMSjNnpan9gVFBNW0kNmp5rt1uZElorEpB0OIMUkeaJa1A84tj0DMtJyPyTcHbYdBfDC14o8kkkvUZrKARbHVWCXSFcNTJPLqukngnoGSR5tkL6OarrqbRebn4sYOo4WUZt2yqb6VBVyJ0/OPCzEW5MtIFCHlFfP80I6xoplrL856tRMecjg0CaH+iWAUgVaRZVEmzT3Yl6neL5PRITcF3sIoEV4UwC3qBtkqWf9bQVWqb9bH/o05p34c8q/Vs/0HXWmkOubexXpqFU5bS7TfcgOQMEDU9Tg+d+eaBpluq9lMCSDPfdlcwYS6NRpr9GDuxT7WW563Ph3++a7AAW07qgRZnkBLS7GsAlrU0+24NPdYx4Ckpyc8I4c76kXRh98u+qwqySavz0LrZ92EVuyoVZp3K39tKdgAptESazSRxRCnN4752CV37VXQCBNHDyzKe/byJb9R2L8uIuoVZsVnlFZWROvs9nGimUstzZxNRUYifhOiBQ6UgaHEGKSHN8k6BkqxsIzCt1yXyFmlHOF+LNGHjsyP2aXVWCXQFO3DwDi4bE0maF37/KkgziJpdbf101gt7mp7d0Zhj82GyrWxhlm+bFRGJaUSWnoAtz22HsZEADThbAsmqzgox1kqzvKOgr2yjtc+VNSE/M5j8ktnB6e2UsBFyTe39oJb44ClHf4mXcKxiB9MZtpXmvAL65k9uoflTJuEnDiKmmw9i8mmzY/M+7yAmdm5ltrSFWbFpFYzlJ/NLvduoaLI1OFVanrvawzxHwMaUgqDFGSSfMqtak4clWtJJ1/BJNL/jGPTk6rY6mxBlvfn9ddDLaw47Sm293vZ+wAdO4a3Pq20pzeMmeKV5HqQZRMFHjT10wQu7A9JsZ2G2voVZSUXIbdWIaEZk7AnU8tx8EBsM0IAWZ5CE0qyMnRNV0ixKSmn2VTv7prX0ubJKgrQ6G9rvymqhvbcDb8pb5iHwA1W5rdffnvf4ULwrhTln8AETeB7sophLcziR5renzaQbr1+JToAgYnjnv29srGuljj7e8c+u0hyzFmbF5uVrbV6u2WbR8qycvz/M+FjpmQPYslIPtDgnF45Ul2a9rGZFS7OeNEvDLdIdA+5cPhq36Q1JleEc5C94tm91lgl0FbssZgeRO2IuzeqVpZbm4072SnNBDqQZRMZje9r7v7F+14Bfmu26774jxi3McioMb7tGRDMie0+CEQbTMyDOEGeQ4FSnvDQHyWpWpmsMSzPJpNk/G7X3uZ2h5c50JJ384cqEWq+73+EHWD5098YRkeZTltKtP/oRpBlEREOPk8556YvWh6qP2HWobK8wk3/gkni8oG5rM+RZf/6WehxzgQaUaoCkkuZgWc2KDoIyaRZV0syvW/tchWPzMvqZtuUqnU4YWlYEkXQBllYf6ixbPLWoKoHkuZZ458G5Z/HRxSp0o+tiIM1jzr+ErkFyBoiQ1dtbBtbvbGabqWTXVua15CvLqI3z64YXdJRt+DhUE26OTmxpEGcAElaaw2U1q6V5qIxDJs2iV6Ylaut1OYvzM3MDPicXZIsSNsoSbl3vfmeVMK+M1z5Xkjr71WJpnv+9q2jZySfgBw5Ms7u9n6798FAT9Q7aNS2D//WmfASEmbc28yGilxmTU8gzALo/PayCpKIqBdU5TOwcKRM05NIckG1Z1nPgseY+V6G61tlM8JAQ+jlLt9Z3liXk2t5VVcsu/L1fTIGaeiulOX8UnXLVDZBmEBG/2NrouPbNfWRTaebNl2czYS4bCWn2b5f8r0bGO0aibCMcKNVIQdDiDBJXmSVJX5ZDZDXLpVn0G/NwB8Hhx9ySSK29Luf4QKszGWtlDjafPG2DiyK7V8lulSbsut9VtU6YV1bKDqz8c1xkiTTnFdCy63+KjGZgmj3tA3TtewdbbTpUNj/BXBmnTn/BN71Rxby1eaXpFle0PIcCpRopCFqck4uUOfuNNKtZUcahHlVQ9Vhjj7MwkoQNQZWwQbLOg7LHZmyt7yxP6O9gV1Wn9Plb/M++w63PkUpzcQkt4xnNkyHNwBw/D7Qy21OaAx3/Km3wXoZbm822uKZqy/O0JeGWUIstEOIMEpuUOPuNOHZOJsbD97XpGgGh9ogiNfc4nYY3JtmY3CEi6byz+B+q2HKwoyjhv4/P3+J1z6XsILQ+ImmedhRde8utNBfSDEywu6Of/uuFPa1b9rfZMZOZbwszeVIGu4z4flkYVVzKrm6PSlBTUZ7HTw297xupkhsAcQbWsHBsRlWqSLOoip0TJUknXUM/qzlUuoa6Fdrf6jyglb8gkXTh9tHKu3xo65VJ8b18/lantGMDb31eQeo88XDSfN2NiJsDpuC1zNe9ud+Orcx8ABNex7zMZlJVYYmgouZ5GOcApBniDJKEpB0ExcqsZr10DdLpZOgWRarrGJCGnW+4JTktRKtyGGGWs/LjuvaipPmOdmyoZFd82O6NYaX5lDL62U9/DmkGhuG5zOe+steOrcx8v3uTfwATWzVg+Fubl1smjZDnwN7OgS0S4gySg6Sscw6V1RxJ7Jw6XYNC1Eu39g3mstd0GBRhs/LMBWBVUn1XOzbUsksZk+SbFCdyamm+/HJsrcAw9+5oGbjitb191Dtot1ZmnsfMhdmu23GF5dKYKvI8Y17webNy12GrhDgDiLPtpVkvq1mTrqGSZlHSZjUrOgpKynppUdXJkN8/2NmfZVaYBQOS7es7KCz/uK69NOm+t+1vcJHgrc81cmnOKjufboE0A4N0Oz30lVf2tL60szmHbZR5NnprgXi5cjvUMevuX8K1NkOeo3mtWmydqQni6JKPJNyYY5PVrK55DtXJsKnXmTutKMeRZiADNWQkXeCN+CLp5AOrVFICDopiQJ7573GxcOx5Fez69jnfu4ouPOlEbKXAEK/Wdvat2lKfRpJQbLguKvbwv6JU2LiFWU6FaWlEVN3waxVPhTgDiHMKkFQtzmazmiOJnQtXLx0Q8f3tfZlHjzXW4CXPbfYJ8/CbVGQ6k1+giZZ+VNtWdnLpuKpk/FFKn71e8YNnq48vGT36G9hEQTi6nW667PXPifrEPK/ECIFT0hGHp2WsTIQ0BWH0BH4ivtz8EyOQZ44ZgU4Uec7KDb5Ps1ktO4A4gwjhyRrb291JIs3ms5oldWuyWppVsXPqemlRUtZLi/4H+FVrnzNvyqjspuyMtKCjkvEOg4GBVQRtq/LwPjnwGZWTKymBB0UJxs0b9hexQ9AqSDMwwkcN3XTbO7vYrUyyUSszT8soTzBZqoivoKYlnzyPmag/3dlfjy01dUGNc3JSkwzSHI+s5nCdDNWpG/s7+kvk+pvmP7BHEUknZ8bmA20rk+mHyKWZfEPBL8dmCcJx0/t76baq3WxbS7fT2+KDmCxOJGn2tzYvHRLNiBYSSV1xWuxfI+L3ZvI3NZpJc2a2/mMeN4bahjiDJCOhN2qrsprNxM7p1UsPiffQcyTqHHBRn0tslTuyBZF0cio27W9Nini6m4aleRE2SRCKXa29dP6TH9Guug47vS0eqbjELoOYmGTVyAlqksjzrBB9MXJHvYWtFuIMIM62kmYrsppFnXQNMlgvPdxSPSzNot+kd7X0FJsQYYU0h07Y8OZCJ0U8HaQZGDa8bfV006s1RG7JLm8pkMlcxi4Jty8VRk8o193uIM/m5Hni9FCPVmHLhTiD5CIhN+pwsXOxzGpWvlbgecPSLH9+v8tD7f2uJjPCHHIeXyTd8EYpCMs37W9dnKg/vhvf2L/Yf/IGaQZB6XG66WvPb6XXd9QHORSNiEjzzn+LEyQxQ0+a+QlrhT0ENcHlOViihsc9mIgnVADiDEKwcGxGNSXYCIKaJAvJ4qxmg/XS8mWSuoOh7H3tbukpYdf9ZoXZK8jCsDGHKPNIyAO3X5r5idsMbIkgGJsPd9K3n9rE9lL9ZncSsYLvLy+24VDZZlkZdtuDPBuT53GT9ae7BvdiC4Y4g+SkKrHeboyzmg3USyuXKalSOZSy7mJPOOTod4bcl8s6DPqEWVAKtEyzdfx56Qf7WsoT6Ru84fV9AWkuxOYHgvHzd3fRbzbUsI3ONm+JtzLzkf8SeiQ4f2uzsc7FkOfw8lwUJDwpPeNFbMUQZwBxHllljiB2LlZZzcMlH5JSyNVlIey63tFf6PZImpb9NHmrMgXvPChQ2FKOVe/tbUmIjoKQZhCOw45+uuCp92nHvgbFCfMIwiPmAq3MnUmwileZ2v4gz8HleckFwefPzH4VWzPEGUCcR1iaww95bWVWs5HYOU0rtkKsfReXR6L9HX1ZFkfSyeEHwYoEkOZlkGYQivW7jtCPn/2AqHfQLm9pNflqmdclw/oVCicuZtIY2WAnkGetPAfrGOirb67CFg1xBklIItQ5j1RWc7B66WHRDlEvTcp0joaugdxep6fJ4kg6OTe+t7fFth0Fr399Xzm7eg7SDIKx/NVt9ND7Oww2LkvBdhRWwVuZz2byszJJWpkDrIpYGiHPWnmeMkd/nsGeGmzRAOKc3Ni2NcXK2Dmrs5qD1ksP3Ve2QO9p7SkxI80GIumGbqcJsoOiPaV5DTYzoMfhrn668NE3qf1QiyE/jgOBVuaqZFrPQuFE/hefpVFJI+RZKc8lpfqPZ2Svw5YNIM7JjS0PENpBTIIPea3ulCdanNUcKnZOUpVmyO/LZbq930Wtvc6mcMIcxJSHrlSRdPK5lr67t9lWIwpeB2kGIVi/8xBd8yTb/Qy67PB2+F/ekrGVOcAqS6QR8uxj/jnBRwzMyv03tm4AcU5ubHd2bLesZlElzbr10qSqw9aUbUi0p7W3hM3TZ0SYBYOdB1VUbPyiyRYdBSHNIBTLX/6YHn6nRr7BG9kzWDqb3OHJl5hRlYzrWiicWEHB4ucgz5E9r3Se/nTXYEeCRxUCiDMIx8KxGbx1xTY1WeGzmi2InSPrsppJJc2kkmb56/NBUeo6+116khxFJJ0cW4woeM1rkGagz+HOPlr28KvUebDRir1FdE93uyRq3PvrJErM0JPm8PFzkGfzzwtW3+zqfwVbOYA4pwaV9nkr4bKalbFz6kFMRHXsnMVZzcFi59Qt3Pqxd0R72/oKPaIvns7CSDr5vMur9jSWQZqB3Vj3+UG67t9vEA0Mqs+UrRViI7TUEr14v0DvPPtbYfHXy5N4tRuLn4M8m3ve1Ln60/OK/oMtHUCcU4MqWyhzAmQ1i2FGI9Qt31CVldQ0OAotjqRTP2dEToR+/Nq+Skgz0GPFix/S2rc/iSz9wuhzjMzncRHteIfozSeIBodGJFwjLLkg6eRZKJzIT6CNx89Bno0977RvBvltuZ3JEl0IIM4gDP5YurqRl+Yos5rJfOycFVnNpNtKLX99ubBL1Nbnou4Bd6dVwjxU5kFDJR8zqvY0VoyANC/H1gTkdA046eKHXqDO2kMj/2YGuyi9fgvRPnVlmpSs8my+bAvyHP55U4OUafQ53scWDyDOqcWInSlbltUcJF2DgtZLR5fVrBc7p+2oqB+rV93gKAonzUYj6bwbqaIU2nvn9rd2N5ZCmsFI8WFdM5U/yHYr/f3BNnqjOwcLDL6eRh3eRnniIOXMX0CUX6D3OmuE47+RFPIsjJm8kknmorgJbSrJ84wF+tNHjXsEWz2AOKcWlSMqzQmY1azuRKgt41DH6g29AvW5PHSgvc+hJ8xBTHnoKkQkXdy/06shzUCHn7/xCf3puTfZj160WJBNDn7i7iM6so1Gte4f2sqy0jMol8tzXoHec9cIJ1yY0PLMpJmflFdEJJmQ59DPm7uU/W4Kbdf4BCDOYAQYiXKNWGY1RxI7F21WsybdQ/W66hrt/e29hW6P5BA0jixP2NC4sxmWvrWrIWbZzpBmoKa730nf/NertHfHrhAyEvM9i//NHKH8w9U0aqBr6IUF/4aUyeQ5b/4xPnnWkujyrOwQCHm27r0Fi6Hr6/woWZNZAMQZhCZuZ8yxzmo2Wi9tVVaztqOiVtbVHRudHom2HnEUBiRZ0WFQFUknu2cmYYNT8ebOI6VWf39XvroX0gwU7Gxopx8++AxRc6tSYLUbvnH5NbYjUU3zELXspILmLyjN49JIc2DbyMzIpPxAy7OuPF+UcPIsjJlcprtdQp6teW/zTtZ/PK/ofuwBAMQ5NamM30uFi51LrKxm9WiDkiTpjkoYkGbR30re1ufkowq26vhyMBE2KswBCtlCLc12hjQDjWV+sotue/wFIleMRgE0KtzOLsqr+5AKuppl25JWmgO3MzMyqEBd8zz8WmuEE5clmjyvskwyIc9Kph/P9qYl2uket5NQpgEgzqlJvMo1NJ3yQgx5zYk2qzmS2LlospqHxVwp6ySbX5SkoROCmgZHsXpEwUiEWf0cmYRftGHnkWVWfHc/egXSDJRc/dzb9PLbHxiQ2xhnNncf9pZmpIkeQ9Ic2EYyM9JpVECe9WqeT7o4IeRZGDO5gl0tslQyIc/DHBOktbnP8T7KNADEObWpjK00xz+rWV0vLapi55Qd/aLPaiaZiAfeB5H2hCDwGryj4K6WnjRd+TV6HNBG0gUeGPpeX//8cFTDcUOagZyu/kG67O9PUceefRHKcBSlHPL5RCdRYw3ltx3w//6NS3Ng2/HK87xjiMaO03st28szk+ZSCjdCIOQ5uteYe5L+9FHj7sXeAECcIc4xk2ZLYufI3lnNitEISVtzrSfme9t6c/pdnla5NAeX5OEDfphIOjmF0Xy3KyDNQMaOhja68r5HiDpi3dAWRqQHOinvCJPmwZ6IpTlAVmYGjZszl2h8id4rrRFOvsS+8iykGRshEPIc2WtMWxy0TAODngCIc4qzcGxGLbuqiZU0iwaGvFZIsyp2LuqsZjIfOxdpVrMRaZak4TKOjw91FhuJpFMf8NOMj0J40es7Dpku2YA0A4VBbt5Bd6x5ikmDx5joxiKzmXcA7Kyl/JbdJIjuqKVZfrt41iz2zwS998Tk+VLbybMwdirfpi8yLZqQZ+OvsXip/vTezhewRwAQZ8CxtDOZrbKaVbFzojp2zsKsZnlJxvBjOgLun6dzwEX1joFW+YHcgkg6dclH5avbDxku2YA0AznffewlevWNt63YIRiZUX+Sq5+oZQ/ldzcPabJV0hy4PX7W0eyfCbrnDcIp37SNPDNpLlLsryHPsZHnOSfqTx9d/DvsFQDEGXAs+9NTqKxmK2Ln7J7VHGhRH+oMqBNrJ7//WVNXscsjOtSWHGUknRzDJRvLX4Y0Ax+8nvk79zxMnv37TMqvxWfg/R2Uy6XZ1RszafYuReDyPItoQond5bmCXWZEJZqQ59CvMfcs/UFPBnqapFvLqrF3ABBnwMs1eOHiWiulWa/2ONiQ18E65anTNaLOaibzsXNms5oV0kwUUpr5hEG3hw/HnWlChI3NpxAEuuiVz+qXQZqBEbYfbqWrVz1E1N0damsPtgOwSJo93mGz8ztqKU1yx1yaA7dLuDyra54Dw3OfetmIyrMwdmoZu7rREtGEPAd/jRP/S39ej+sf2DsAiDOQU2nB0c7eWc3qemmVNEsWZTUrPpukTQ1RvEfG4e6BvLZeZ2skwixTCHUknTpto5LJs27JxhWQZuDn4U2f0e//+S8i52D8XlQt3B722u37Kb+3XSG1sZbmwCwls47y1TxLkvoEYY1w2rdGUp5XWSqakGf915g2X3++/DF3Yw8BIM5giIVjM6ooikxns1nNVsTO2Tmr2deRUaeMQ/b68sc31bcXi6LUH0kknY4k693WLdmANIMA//3ky/TGK68ycRXl58KRyW+waeEYcFAOl2Ze1zwC0hxYzsSjZwVP2xgBeRbGTq2gcJnNkOfo5bnsB0SZ2drHHU3IbgYQZxBBi0aIY6bZrGbdQUxIP12DdOqlo81qjiR2zkxWszJ9Qyv2ourzO5ms7GzpFoJL8vCB30QknUIGGBe99OnBoZKN70OaAfnqmb/398epe/tnRrb22Ii0xGS9p4Hyug5RuugZUWkOTJjEW56DdRiMozwzaV7Mrm6PmWhCnodfI9gQ24Ulv8KeAkCcgR6VkUhzImY1i6rYOZH0Yu+iy2pWpmxIiseItC3tu1p7croG3a3BWo8jjKRTt2BXvlhTV8SkuRzSDHYcaqJrVj1IVH8wckmOFo+TyHGQ8vo7FGd5IyLNKoGezGue5YOkyIfn/tK34yPPvszm2IpmNPIsxGkI7FjL89Tj2InSDO10Z3+3dGtZFfYWAOIMNJjtJGhVVrMlsXNkz6xmdb10QJrVedSBdfZ+XXuxyIfj1rizuVy6ECUfhb1u6S1+4McvPrX5YM9BuvOBh4m6HWY2+PDTzODqoZyuespzD2gEd0SkWRh+LcH/XG/aRn6+/vDcp39ncUydedx0Pjrg0ri07qZFcehPBnleUhbkNzqwCnsLAHEGoag0I81WZDXrtdaSwXppK7KaI4mdM5rVLKlbuTWSrzzR6HG6aUdTd1rggK9pBTMozUEfY8vMzxCWzM0T8EtPYda8v5X+9nAlHwkt8oVEJdI8aq6N8noaKE3y2FaaOVkZ6TThmGN88qz9vFXCGZfHRJ6ZNJeSL34ucmmEPBv/XLNP0E5zu9zoFAggziAkRjoJhoudS7SsZnXsnah53eiymiV/R0G5cCsi90j5ejtbu3O6BlyGhuMOKczKSDqFTBxbmEFF6ZDnVKT8n0/SW88/H1pqYwmvZ+4+QnmDnbqCaydpDiwnKyMjmDwXxlCeK0k9rDbkOTbyvPR7+tnNve2b0SkQQJyBESqMSnPYIa+jzGqOKHaO7JXVrJZmTQqHqhWei/vm+o7iGETSDYlCBtvKTxqDTT2V6OobpCvu+ht5du0wKbpRiLQmas5JOT2HKU8cTBhpDpCdmUklXJ7z8tWfjRsXk+fvWibPQyUaVkkj5Dn05wreKfB67DkAxBkYgY8k6AjWGhXPrGa9emmtEFuZ1Ww+ds5IVrP6Myo6CKqkmT+/fcBFu1p6dL+DcLJARMEi6RSMzRJoQQE291Rg+6Emuv7P9xE1NVgjxJHg6qHcvsah0oxEkubhso0MmrRAJs8yxfLK85nfi1qeNSUaIynP8UrcGEl5DtYpsLejDiMFAogzMIS/k2ClXuOR2di5xMtqljSjEcpl2CNGntUskbrEg2SfYrgTZeCxbY2dhX0uT2s4FzYZSadsaBmVRuMz8ZtPZj6rb6Q/rf4rUWe74gQ4ciTz8w+0Ua6zU1mzn2DSHLidyeV54QKi/IJYyXMlqUs0Rkqe9UQz2eT5rEv050nP+hP2HgDiDMywSivNxoa8HhJNi7OaI4mds1NWM+lIsygppVk9OuG7ta3FkUbSCbLrUHMuKcQmn6w8/O7HdNdf7uadnCLw4ygymwNbDx8uu7+VcsWBpJDmwDJ4h8HJvOVZLc+SxIV3nXDW94sicsBQJRqQZ+s/0+gS/ZECnf090m++/jfsQQDEGRhm4diMWvJH09klq1lSSXPIemmKfVazFEFWs2J9ygdv0ZFmfr+1z0W7m7sdkUTSGX1GQYZAJ0Kek45bn3mZqp56wlpJNoPopGxnO+WSO6mkObCgrMwMmqKQ56F1yP/uXyUs/YEpeRbGzyylcCUakGdrn3fqhfojBfY5HsAeBECcQSRUBstqjiR2LtmymsUIs5qH6rVVpSBESmkO8EmDo7Cz35eyYVUkncwhvEzLFWhSFlI2kgFH3wD98IFH6PDbGyIX5Gg7BHr6KNfVyQ4mUlBplv9aR0KajSwzmDQHpmVmpNNULs/pGeq1sCgCea6ktPTCiNY55Dmy5y08QzuNR9AVTfw99iQA4gxM44umkzbqSaVeGYW2NTd2Wc2RxM7ZJatZkudNy6Q5MI+kEG/fczbWtvoGRjEgzILSkvVu+ofuVsrDCUUCwZ0TX5pv/MNd5Pl0q7ULNpzZzKW5l3KZOJM6h1wlzYG/ooyUNKdFKc2BZfCyjbELFoSQ5yvCyrMwfuZwiUZaenykMdXl+czv6kfQ9bS9igg6AHEG0RwvV9kxq1m3XppU9chWZjWT+di5UFnN8hZ6kom8njTz212Dbqpp6EwLLc3BJVlmIEEHVeGxzieMhjknKtsPNtCNv/kDUVuLiZZlK3cWHibNPZQrDWp+W8kqzYFXKcrP88lzRob6xMIrz2GkuZTUJRqQ59jL87yT9KcXTfwJ9iYA4gwi5rjizHVM5upCZTUTRR87Z/usZt3ouuHX90SQ1SyXZtG/fD1pDkz/rLk7Z6hkw2wknUHGZRHNzcPvPuGkue4I3f3HPxK1twU9AzZ6phzRfJKbsqRebz1zSMFNQmkO/Du2IJ/GHuOXZ+X6WSSULa8MsTZ5/Ke26RPyHDt5Pu48/Qg6R9P70q1ltdijAIgziK4hiagiVFazpjVXHTunl65hYVZzZLFzI5/VTKqTkYA0k440B0pd3j7QMlSyYVUknZrSXCYB6fjdJwoPv72J7v7NHUQupzn5tQwXE+Z+SvdvCckuzQJppTnw+LiCPBrHB0nJ0JRtLBfOLtfIszB+ZgX5WqWDHI0hzzGR5yXn6E8vLPk+9igA4gyiZsn4rEqmbXV2zWpWp2volm9YmNUcSexcsKxmSSbt8s6GetLM/+lyuunjQx2CtuUrtCiHi6STk8GWubBAwg8/Abjj6Rfp/UcfDnPma7Q+mUzOxx9zUq7gDC+4SSTN8oQbQfUcfntcQT4V87INLQp5ZtLM855vD39EhjxbKs9TjmOXOdr5HE270doMIM7AMnits6GsZoo+ds7uWc2iKnZOLc0ek1nN6oQOZdmGslSFz7errTe3uWew1fBxw+iGLxOEgkwmz/mQZztz9X3/oIMvPmfVFm5epNNclJvmgTSrb/vlOX3W0XrrbblwzooKYcIs3mGw0vhRGfJsmTyfdXGQz5BxC/YqAOIMrFRnHk3nCJvVHCRdQ9sarF8vHW1Wcyxi52Kd1SyXZiKlNJNKmgPT39jfUuwWZWMXmxRmdSSd/KAfeGhKjkCTs/DLtxuOvn668s6/kLj1w+BSa4UkB/3xSJSZwaVZgjTrSHNg2pyJ4yn9qKOH1/fw93M7jS55isncInNHZshz1PLMW5tn6qx2Prz2nZe+iL0LgDgDyzixJKdT8o8maOesZm3sHanqpyWyMqs5ktg5vaxmeWdA0lm+qBrSe9DtoTf3taQHE2azkXTBmF8gIaLOTtLc208//c3vib743IAfRyHSUvCjQ06GhzIEgjSHkObA0+dOGk+Zs2Yr12FfD1FX07kRSSDkOTp5DtbaLIrXY+8CIM7AcrzRdJLkMJrVbEXsnN2zmuUt3nrS7DGR1SwOtUAr0zzU0hwYBfFgdz/tbOlRSXN0kXRq+GF6cb6IH78N2H7wCN1y66+ImhtjvqHrmnQGk+ZMSfu7MiLN8t/aCEiz8jwyPtIcmDZ7YjHR1Gn+jdjDNtzt0Ukg5Dmy+fnw2nqtzd1th9HaDCDOICacMsnf6mwwq1lZNywTbdVohMMyaG1Wc0SxczRyWc1qaSaJNC3QAWkO3P/4SDu197u0MiCT5GgZzYRpbg7keSTZUX+EVt/5B6KeLoOiS5HPpxEUdslOo5wMilyaBWFEpVkIMVJgLKU5wMLSqUTjJxA11RO5ndFLIOTZ/PxnflN/eq8Dtc0A4gxi2hrFB0RxJEJWs6aeWBU7J1qe1Rx97JxcmgPqrWjhJmU2dL9HpHfrWv2yYNyDzDI1W6LiDHQWHAkeeedDnzS7nNYKspH5vNKcTjnpAqQ5QmkOvB+v67bXWyeNkGfj8/PW5vlf0k7vammS7v3hE9jLAIgziBmnTcnr5CUbZrOarYids39WsxRSmkVRKc1SkKxmeWdAdVmIXJpF/wONfU7aXN8eVpTNRNIpSz58Ldjzcj2EvoLx5VEmze89VknkdgWz3xgeCQTKzM8KLc0EaTYizR09vSR+8Lr10gh5NjY/b23OzNZO7+teib0MgDiDmMOkbhXxhA0yntU81ClPnjIhl2ZJKc2ixVnNkcTOjVRWs540k0qaAw8EWqC3NndRY48zrDyHdyX9tA0O7xC2MM+NDSBO/GLtv+ndfz9ieuvUToqgBToznXIKsr3DsIeUZgHSHE6a+fTDVRuIBnpiI42Q59Dzo7UZQJzBSHPG1HxvrXMiZTWHS9AQVbFzsc5qNhI7p5Bmmfh7n0Paso2XvmgklygaFmYjkXRqCtgxela2BxtBjLnpH5Vd7Zvfs+Is17xI52ZRTn62TIYhzdFI82fV1UQNX8RWGiHPwedHazOAOAM7IPlrna3Iao4kdi7Rs5o9oqp+WdKPnZN3BlRIs0Saso0Bj4cPyT18UFeahPKmQpLNVT1PyhJpbDo6C8aCrv4BuubeBxx9NZ+M1vvuYgp/nbwcysnJgjRbJM21jU1EH78ZH2mEPGvnR2szgDgDu7B0ekGnv6Ng1FnNojp2TiXNksVZzaQn4BQ6dm4kspqDSTOppJlk8+7p6FVE1AWNpFOJtfHaZx+zczyUiXxna6W5b4D+53/vahd37yiM4FTW6Bmv/jT+uxidHzdp1hXdeEozxV6a+wad1P3GushFE/IcvTyjtRlAnIGd8JVr8FbnxMpq1ou1U9dLxzOr2UjsnEKaSfV6/kvg/vv1bdQx4LY0kk7dgp0uSDQv24WNwEJp/vmf/txO7a1j474VZ2RQWtFoysnMiJs0a2U0ztIsxFaa+a19H7ynrGuGPMdXngsn6bc281EC0doMIM5gJDh7xqhOJmsVVmY1RxI7l+hZzR5JXbYhaeqX5dKsLdtQxtz1efiogk3k9ki6AkwUWSSdmoJ0iUqzUO8cLbsON9LPf/d7h7XSbLAFOjOTMscUUlZGOqTZQmn+dOcuor3brBFNyHNkr3X+lfqtzRglEECcwUjy5ZmjeatznVVZzaJKmrVlG9ZmNRNFEjsX36zmUNJMkvb1+N3DfU76+FC7VkAoukg6mXJ4b5VkuGl8BuqdI2X3kSa6d9Xd/dTXWxjRAqIZVjs3h3LGFlG6X2IgzdZIc0N7B9F7L1krmpBnc6819Tj9UQIdTbsxSiCAOAMbMNzqnGhZzcFi7+TLjWdWc7jYuaFGE9mJhvr1Ap9jc5OD6jr7TQtzmqzDoDqSTl31we9Pz3RRroDBUUxL8+EmWs2l2ePJNSYMFhaVjx5NOUWFsk6ikGYj0qy3rciluXfQSS0fvBMb0YQ8G3+t07+hP73X8S3seQDEGYw45x5VWMlbna3Oao4kdk4uzYmY1exWSbMoBWuBHm6dV0u6KHu9l/c1UZ/TE8LFguc2h/I0+WO83nlWphMbggme27y1/957/kyWS7ORFugxYyinID/hpFkI8tuNpzTLX0stzZx9Wz4matgbO9GEPId/rWCtza2HaqS/Xv0p9j4A4gxsAZO2cquzmkVS1x4rpVnRUY+iz2omsj52zuqs5lDSLKmkmdPv9tALuxs08hVtJJ1auLLTJDoK8myI9UyaNzz9RK71G6FuaLNSUCaWUE5+XkJKs64g20iad+zdz/75MPaiCXkO/VpnB2lULp66DHsfAHEGtuGrs4qq2HF7Y6jYObtnNavzqNUJGqIqdi7WWc2hYueU9dKylnzV6/F5D/UN0AcH24cP/hZF0qkpTPPQhHSMLBhSmj/a1r/hmSdzDZ2NWEl6BlEJk+asLF1pJkhzVNLc0NFJns1vRiaAkGfr5PnYLxNNmaOdp+nAeunWslrsgQDEGdgK5mkVypQK67KaI4mdS/SsZm3ZhlKaRVVHS1FRH+0T/aGIuoYOquvsi+r7FcLINdeIkjQXFQjoLKhHxb+eaN/wjAUtzWbLNrKyKXPq1JDSLECaI5bmPqeLWt5/Zzh6Llnl2aohsGMpzyefr33M7RSpZGY59kAA4gxsx9dnj6lih+q1schqFjUZ0Tqd/CzMag5osJWxc1ZmNYeTZtJJ93hhbxP1OD0WRdJpEzY46WzvMT1jkDIwOIqC3zz2ZHvb9uqxlgixGQoKKHPKFF9yBqTZcmnmM+/95COipn3RC6Dd5TmS14qnPJ98IdH46drpPe2PSreWdWIvBCDOwJ74c53Dxc7ZPatZUYpB2gQNdXZyrLOag8XOSSrxHqr/Doi4rMNir8tD63YdMSXNwSPplI/JhSxTkGh6+iC2BT+/ffyp9tYdNdZkNOvJdbAOgYWFlDNpMqQ5htL8+V4mzDs/sk4AIc+Rr7vTLtROG+gdkP70nXLshQDEGdiWb8wdW8sEb7VacK3Mao4kdi7Rs5o9qtcTNfXZkkKa5TXXQzLPHjvUN0jv1bWF3wmYjKRTkye4aVI6Rhb83b//095ilTQbP3klKh5PORMnKb6gZJRmGkFp5nnN7g/ftF4AIc/m192XlxPljtZO72m/E0dlAHEGtkfiuc4SOWKV1SyqZDjQCU/emmxlVrPcR6yKnbMqq9mINPumD8/7rrfeuV8hCUYlOZgw6803RnB6OwymIr0DA3TjX+7RkeY41LBkZl6XUzy+JtbSrP09xF+ahRGS5n6e1yyva4Y8j5w8jy4hWnSOdnpXa5N09w9+gyMygDgD27NsXnEn7yhoNHbO7lnN4RI0lGUbsc9q1oudk0szkVKaJXVHRXb17BeN1OfyqCLqoouk02Mi9VMupZY89w4M0i//7/526myPTJojr3V2sMsKadN//sauy9hyamIpzaEEN5mlmd/+guc1q+uaE1me45W4EQt5Pv1i/aG1+7tX4mgMIM4gYbhkfvEq5md1oip2TlTFzlmd1Wwkdi7Rs5qD1UsrRFwTo6esz+5h0vz0Tm29c7SRdOo50tjVJGGAMig1Rhbs49J8/wPt5OiIcXmGoJVmSSqTtjxf6XWGtb/lnaHKmOfVQJqtleaaz3cS7fw4AkG1sTwHBDrR5HnKsUTHlWmntx2qkVaveAJHYgBxBgkFE7nyeGc1iypplizOalaIsEWxc1ZkNRuVZvl7O9g7QBv2NZvWtXCRdMPy4bvOEkSvPKeCNP/6gb+3U1fn2Di/NG9pLpOqX6pWNLhV/sYrz9z1IM3WSDOva6ZNr0UugZBna+X5nMu003j83GDfFTgCA4gzSDi+uWA8j6fbaCZ2zu5ZzeESNJT1xbHPaqYgHRUD0jx8EqOszw6srU1NDtrd2hPhN6wfSacnPLnkomJK3qQNLs23/f3BdsloS7N10XO8RblUqn65Wvd9rWHyLAhl7NXW20WaaYSlmSKU5r5BJzVXbYheAiHP1sjzsecQTdYZ7KTt8AsYWhtAnEHCwvSsXFGPrCnbiF1Ws5HYuUTPatZN25BJs6hqNRcVKR++x9fta6LOAXcIPRaUKQoGIun0vLBQGqACSr6RBWubWujX99w9IHJpFuIaYM2luUz67LWQGbV9D9/R2fvwHcvYd7XWDtIsjLA0p0UgzZwvNr5N1HHYGgmEPEcvz6frjKA92DuAwU4AxBkkNN9eOKGW+dnqkchq9qikWRNdF2VWs+zkwLLYuWizms1Ic6C1ut/toad3HSGXqKxDlkfShWqxCybKehSLfZSTRJ0F65g037fmn/3k8eQYlwVLZlzvlebtbxge2KHn4YpyrzzHUJrVv4V4S7P8da2U5ppPPyWq32mtBEKeI39vZ3yLnYlP0E5vb1iNwU4AxBkkPhLxQVEcZmPn7J7VHC5BQ1TFzsU6q1kdO+dfi7LWfNW8ged6850H6OW9zUOSYlUknVYFRRrH5Dk9CToLHmxuoXsrH+bSnGv90kOuzLXSp68ukz573bQgdP/z9nL2Pa2NlTSnKf4aEX9pDoivldK85+Ahoo/fio0EQp7Nz8/j507+unY6j5+778pf4IALIM4g4bn8uJJOJnkr1UNeawdIiV1Ws5HYOaU0k0JiEyGrWZ22MVzaMrxMuTQHBkUJLGNLSxfVNHWbP0YaTVnzS0qm5KEJYm8SSPOaGEkzhZbmmlfKo1lA10NMnonWQprDS3NHTy/1v/tabKUR8mxu/rLv6MfPeVyX4WgLIM4gafjeoomVTNRqRiqr2aOS5uHWXNlrRZHVPCTeKhGOJnYu2qxmM9Lse48SPb2vkRp7nGEFWCFHYedUShWfnCW5aazUn5C/5XouzWsrmTS7c6M+mzDHTVL1y+VWLMjx0G3l7D2uhTQHl+YBp4sObnyL3TB/Mgl5jpE8zzqFaO4p2umN+zdLd13+Lo60AOIMkgrmZyutip2zW1ZzuAQNUYpvVrMiIURWuKKuz5bXUgde7+Ht9dTr8hhUYu0UvUg6PZnM9QxQgeRMPGl+ZG1oabYa33pbIW17aZWVi3U8+GuvPEOatdLMH9/tHeTkQBwHIoE8h53/rIu103j83MSjvoojLIA4g6TjisWTeDzdWlEVOydKEsUzq9lI7JxcmhMxq9kjKqVZlFT12Yp1oFxGj9tDjzJ5NniU0xVm3zDeWmFRM9rdQ1kJ0lmwvqWV7nvkEevKM4y3Sq+Qtr5YGYvP1PmPX5Wzq7WQZqU0b/MOcvJJ/AUV8hx8/tO/SVQ8XTu95eBd6BAIIM4gaWFutpJdHCOZ1exRSfNQ+oRFWc0BrIydiyarOSDaRqQ5IOS1vbyzYJNCis1G0hlV7nGuLhIk0da/20NMmv/v0Uf6JTGuNc0OtjIvlj55vjKWLxKQZ0iz7/Ej3kFOXh85QYU8a+fnHQJP0ukQ6GhuRYdAAHEGSU358ZM7mZhVWBk7Z7es5nAJGtqYu9hmNSvEWyXa8vuiqsZ8Y2Mn7W7rtTySTi3PXJrHuRy2lWcuzX/91yP9olqaY5vZ7BsN8OP16+LxGdv//qty9t3ekerSzAc5aXrluZEXVMizcv5gHQIdLctxVAUQZ5D0/PCEKauYnm3UtJBK2nQKSRU7Z3VWs5HYObk0J2JWcyCRRN4ZUL0MuTSLshb1h3cdpvZ+l6WRdHpSlSF5vGUbdpTmvz32aL8kirnaT2Dkg0Yk135pXlcdz8/a9sAvK9jVilSVZs7uN14N3xkQ8hxfeT46SIfApgObpQeuexlHVABxBikBL9mwQ1azKKokNsZZzVbEzkWa1WxWmgPveXV1rWZwlEj9UCB1wsbw7WzPIBW47RNTd5hJ8wOP/0tHmqNACLvyfNL80XPVI/GZmTxXKuQ5haR52wfv+zoD2klQIc9EZ+p1CHR5qGQmOgQCiDNIHa46aWo1c7HVchm2InbO7lnN6gQNUYpvVrNSomWlLEHeM5/S6/bQA9V1uv4XTSSdnjjmuPoo1zPyMXVHWtvo/n8/1i9GI83mW5t9Q2hvfrZ6JD976/23+uQ5hDRTkknz9n37lZ0BIc/2kOcvXaLfIfDIngp0CAQQZ5CKVDCxqwuWoCGqYudEVeyc1VnNRmLnFNJMpJDmRMhq1hVvUiaSiKrvgF94Z8EXvmgOosTaKUYj6fTIG+ymDMk1otL89yf/bbwjYDS1zsPP9Unzh89U22HDbPnb/6tkX+GKYNIsJJE0H2hsJtc7L9lbUFNRnoN1COQjBD5w3e9w+AQQZ5By/PfJ0zp5trNdspqHaoGD5CFbndVsRexcpFnNgelGpDnw+aoaO+jz1h6NoEQbSacQJP91QX8HpUvuEZHmfzz5RL/kjZwT4vWyPmne9LStWtCa/+8XlexqRfylmeImze09vdT59suJIaipJs/nlet3COzpOA9HTwBxBinLNadMX8fkbL1GmkkpzZHEztk9q1mdoCGqOirGMqtZlLXKy+VafXIi/3x8yoM7D1Fjz6DSfij6SDrNbfb6+QMOSotj0kZDWxs99J8ntekZRj9AyPmE0NL8wX9s+WfngDzHV5qFuEhzn9NFdXojA0KeR16ej1lKVHqsdr6mA+ulv171KY6cAOIMUh0+oqAjVOycOhZOlGKb1Wwkdk4hzaR6PbJ/VrNuzB0pyzjk0hx4z3/97CD1uUVdH4w0kk65DL/4eFyUOxAfn2xoazcvzYY/YBhpfu9JW9dqNv715155tkSaaWSlWX7LOzJgc23iCWoqyPPZ39Y+3tvRI61esQyHSwBxBinP9afNqJV89c62yWoONuR1rLKarYidiySrWZ6gYUSaOV1uD/29pk6RtGFFJJ2gWgi/n+52Us6AI+bS/PDTTw6lZwgG5N4CNnql+d0nEqKDk1eeBWF11NIsjKw0B+qnt9Wwc5ZdWxJXUJNZnr9yFVHuaO1jPZ1X4WgJIM4A+LnhS6WrmIbV6EmzFbFzds9qVidoKDv2xTarWVSdnCg7RuqnbezvHaCndzcopNKKSDo9Q0139lGmKzZJG41Mmtc889RQeoYQ9B1bylpp4+Nl0jv/TqhUgIb7/mclk9K1iS7Nuw7WE23dmPiCmozyfNQJRMcu1U7nmc2rVzyBIyWAOAMgg/lYOelIszpBQ5LU0izFNKs5ktg59evZPatZm7YRrAV6eBnvNTvo/foOg6qsFByNj+p1QJPdzuztpAzXgPXS/NzT0UXORSLNVY+XJ+o2euTen5Wz72NtokpzQ3s79b+/IXkENdnk+cxLtNMGepzIbAYQZwB0uOmMmdVMyu6wW1azWyXNomQuds5sVrMVsXNms5oV0kzhpTnwOo8faBpK2lArrzqSThiO2DCk2eq5Mvo6KN1jTUxdExOoynXP+NMzLMBYc/ta6e3HyhN9Oz3M5Jl/lkST5j6nkxrfeSv8yICQ55GR57LvEhVP005vrvstMpsBxBmAINx8xswK8mc760mzFbFzds9qVidoiDoiHous5mGZ1nnPOmkbgXW0Zg8fltutK8zySLqwx+RwM7DXyuhuoTQxupi6lg4mzc89a500G4NJ87/Kk2U7PbT6lvKhso0YS7PyDxORSTNn94bXiDobI5dGyHPs5HnyMUSLztFO72zcj8xmAHEGIJwfEZUHy2pWJ2iIqti5WGc1RxI7p349O2c163WM1BNv+TrqcXno91v2kVuVHBdtJJ3ufOw103va2HVkMXVcmteue05ncJOYZjavld58pDzZttP6VT8dkudYSrNeFrhZad626X3echm9NEKeYyPP536PKCNLOc3tFOnwF+fgiAggzgCE4WdnzapiV6vtmNWsLduQTMXOmc1qtiJ2zmxWs0KaiUJKcyCRhA/LfffWA94YQCsj6fRu85i6zJ5W89LczqR5/XPGRwQM8Z5MSfOGteXJuq0evOdm/tnW2lmaa3buJNq9zTpphDxbK8/Hf1W/RKPl4F3SY7+uwxERQJwBMACPp2NCVhdKmq2InbN7VrM6QUMp87HLah7+3PrirW1hJzrQ20/rvmgMeIwhUTYSSUdyEQu8nmuQ0nvbTUnzoy+s66eYdwQUlNL8RmV5sm+rAXm2ozTvrq8ncfOb1ksj5NkaeR49kejMb2rn6W5tku678hc4EgKIMwAG+cXSozuZjZWHympWJ2hos5NDS3O0Wc2RxM4pJda+Wc3atA1SrBNN50r/en79SBu9e7DD2I5GHUknk2RDJ1cDPZTWHz7j2el00pOvvuTQk2bDbcjmW5vXSq+vKU+V7bXu7pu8aRt2kuaGjnbqe/+t2Ekj5Dl6ef76VXolGhJ1Y1htAHEGwDS3nj27ionZ6iEhtVlWs5HWXCuzmq2InTOT1awW78A6CibNgXX2yP4G2tHSG1RR08LkNus9FGw2sdfB46pCSvMjL6xvZ9eFMRJkveeulV57uDzVttdarzwLG+0gzf08QeO1F4wnaECe4y/PJ5xPNHm2dnrboTUYVhtAnAGInArmY3XhspqtiJ2ze1azOkEjHlnNis6Vkk4iSZCOivdsr6P2AbflkXS68tzVRoKzTzN9kMnToy8+397b0z1WEOL2e10rvfrP8pTdWgXiQyLXxFyaiUJK8643XzcfOwd5jt97G1VCdMal2umO5lZp9Q9/hMMegDgDECG/PmdOJ9Oy8nBZzeoEDVElebHOao4kdk4hzTbOapaCiLdmIBnVyUrFx3upzy1aG0mn9xy2cI+jlQS3UyHNj7/8oleaTSwo2vnWSq88WJ7K2+uBP6/sZN92GVtFNTGV5qFhv5XSzE/Odm39hKj5YGQCCHmOz3v72o/0SzR6HV/GUQ9AnAGIktu+PLeKqdhqO2c1B6uXNpqgYTar2YrYOTNZzaJKvDUt+qRt4e91u+kv2/aTx0BynKlIOpk8DQ2MwV7P1dHolWeny0VPvPKSKWnWc2HBrDS//I9ybK1E+/98Ix+sooytrJp4S/OWT7YQ7a6OTgAhz7F9b0vOQ4kGgDgDEGuYlFWwqzoj0mxF7Jzds5rVCRqS6r7VWc2azpWkWmdEOmUc7AvrGaDV1bXGjrcaR1WlbQhyYdYRWFEkl6OV1r/xSkePmZbm6FkrvfR3SLOMfXfd2Cl45Zlq4iXNn+7bT7R9szUCmKzybPb9Wf3eUKIBIM4AxIffnjuvk4lZuUJYg2Q1qyVPWV8c+6zmSGLn5NJs16xm+XoeGkjGvyz1wDLDLyTRTkcPPbGrIagoG46kI2Ukne4JlmuQzpx91JjMjCCDLegId5T1z2ulFx+ANOuw964bOtl3V8ZWryPW0ry/sYlc775qrQAmozxH8v6sfG/BSjT6ulCiASDOAFjN786bX8W8bLXds5p10zZMxM6ZzWq2InbOaFazMt2DNJ9TLc2Bu28daaNPGrq0O5soI+n0GFOQR2Xz5sbjJ7lWegHSHIov/vQTrzyzmw71SZNV0nykvYM6ql6PjQBCnq17b8FKNBr3/VW670qUaACIMwCxgMlZhcQHRjEozVbEztk9q1mdoCGpYueszmqWVKki8tcjUl3Lasof3FVPO1q6dYQ5xHGXzCVsBOabWjyWlqrlOfrOf0ppfv5+SLMBdv/xel50XMbk12G1NPc5ndTwzluxjZ2DPEf/3ibO1S/R6GzcL/3tmhuwlQCIMwAx4s6vHsM7HpUbzWpWJ2iIqti5WGc1RxI7J5dmu2Y1h5RmSSXNspb+v+6sp45BjyFBjShhQ3b7qEkT6JTZs6L+zem8TSbNf4M0RyLP3rIN66R554bX2RJbYi+AkOfo3tu539Mr0RDpyN5zsHUAiDMAMeZ/z19Qxa7uSISsZt1OeCZi58xKsxWxc0azmuX3NS3MOtLsO1h66Jebdw/Ls1XCrBieezj+7pipk2nWpIlW/vzWSuv+CmmOgF3/e1214Mt5jlqa+e2dH24iaj0UmdDx+YU4SWOqy/NZ3yIqnqad3rD3dulfv6rDlgEgzgDEgT99bUEFE7saU9I85HKRx87ZPatZXYqhfs9WZzX75lMsJLg0B649Hrq75gB7reDCHFEknUrIApw5bzYdNXGi2rQNCrlKmp+7D9IcBZ/feV0V+45WRCvNWz78gKh2p/IHEY+WZMizudeYOIfouLO101sP7pTuv/Z32CIAxBmAOBJI2TCa1awuxRCl+GY1RxI7J389O2Y1m5Zm/zxtPf3eAVLcksp9NOJqMpIuiGifxeR5fFFhULk2YM1rxWfvhTRbwI4/XFvJrlZEKs3bdu0i2lOjfzYFebaXPH/th9oSjYFeJzUfPB9bAoA4AxBn7r7g2GombzcFvM3uWc2BgUAkVemF0QQNs1nNVsTOGclqViRoKCSZdKU5QAeT5yd2NwSXZJnAmomkIx0J508/79hjqLCgIJKf2v9n7zwA2ziu9P8WIAiQBHsXSbGI6qJI9S5RcpNt2ZK7XGLRsZ2znWLFcU2cmM7lcr6WyInTLkW0ncR2muVLLpdLLmcq5zj9Hylyr1QXJYoiKbET2P8MgAW2NywWC+B9NgRgy+zuYHfnt49vvnky8OPHEZoTAM9GofnAu+9C8I8vqv/gCM/OgOfzdwAUlEunn+z5MKZooBCcUagkaddlC3cRFttr1KvZCts5p3s1S9M22IR5NUdXZMVjoouTnoUw/YdjffDdN08ICdcCSzq5CLYnKwsuXbQQ8vXAcwzUn5z60S6E5gTowD/c2UVq+Um90Hysvx8mfvtLnT88wnNS4bmhDWDBehlofv8P7Nc//C08+1EIzihUMsWGXDYGBVCn4dUsTdtgbfVqNmM7J9geOM+rWROaFdI4/nT0FLzSd06VhYxa0imVk53lhi2LW8FNIFqH9k7+EKE5kdr/uTto/T6pB5qP/8/P9f/QDMJz0uC5oBLgoh3SZYbPnGN33bISz3oUgjMKlWQ9fvnCHghZ1KWOV3MsmmvOQcOoV3NCbOdkvJoFYKwDmrn3b/7tPThw6qwsA5kB5NgXRpTTzEC22w2XLqLw7FFlOvLahleXjfCsAM0jE+Nw/Ne/0O/VLABohGfb4fm86wFyCoTz6OiA/cevw7MdheCMQjlET2xt3UMbXzNezVbYzjndq1nsoBEU2c5Z6dUce9cHzdz7tw+8D2fGpswDs4IlnRin6fSS/DzYsoTAs8cjB90UmtsnfvCFAbyy7BH5tXaS32W/HDS//utfEWg+R766zT1FITzbB8+LLgCob5FO7+15lv3aXT/HMx2F4IxCOUgEv3YSCDto1KtZ7KARZO31ahZCtD7bOcH2wGFezSagmVv27//wBpwZ14ZnBng5sTos6fjQzKnYnweXSCPPYWh+7t8Qmm3UX//+Q6S+Q0Nz73fxos4haO47xvsBEZ4dC880RWPNldLpQ6f62K986AY8y1EIziiUw/S1bW0DBBg7+NCcCl7NsuAN+m3njHo122M7BxopHHLLUs+/IHzu929GberEIMy3pAvdrBjjDht80cjzsuYZAmgef/ZfEZqToP/32dsHCDQTeGZCjgt/CQ1wckzmx0R4diQ8X/Z38qMDHnlzKZ7dKARnFMqh+sYVi7pHgsw3+ABoBJqtsJ1zulez2EFDzt/aCq9mASArdhwUUXbIMDsAn/zD2zBFNx7tFWiNJZ2cZk2rgnUL5vdTaB595l8QmpOoPz96O63/bX/53W8n4O0DKj8swrOj4Pn8D8iPDvjevofReg6F4IxCOVy/m/SuHAy6THk1ix00giLbuUR7NZuxnROANzjLq1kXNMsAeGBkFB764zvMxFRAFYb1QLPW8hSoGyvKSnac174Lr57k6y9P//s2eOfVbO0fGOHZEfDc0AowX8Z67uibAGMjs/GMRiE4o1AOVtMzr1H4aX09kA1TYhAE53s1y9rcgX7bOaNezQmxndOEaxABuTw8A4Hnp988FuMdC86PGEwzgqh1JJq940Pf+s8uvIqSJ6ZpeQd5e0T/CgjPSYVnmtd84c3SZc6eBjgdGtxoB7O9E91pUAjOKJQT1fDMq+3k7W76eYRl4O2AJy6vZits55zu1azpoGGRV7NyDjSrsizAmyfOwLdfPWQOkAUOG4wMPkuHe6YN/e3f/FkHXk1JgOYZKzsIyO02viLCc9LgedN1ctZzAEfe5E95ksBzA57hKARnFMpZ0FxE3rr4006xWXCS9Zj2ahY7aAg79iXeq9mM7Zzg+MBZXs1GoZn7/haB5++/eVQfA4hzoVUs6VRC2Ltv+/efIjzbC81t5G2XaZBDeLYfnldskbeemzhJrltBilWB+N6MQiE4o1DJF70x14snHiTgPMoyKenVLHXbMGY7Z9SrWRmE1YA4DmiWhXD5sv52pA/+dLxfyj1xWtKpaPet30B4thGau8mrMC6QQ3i2D57rFwIsvVg6/dwp+MT8WljaOlc8ZwOzvXMnnu0oBGcUygGa/syrFHC2ys2bIi1jD+sN2ZtZ6dVsxnbO6V7Nxh004oRm2Y6DCmWRGT95/TCB5zOWW9KpwfMHv/4fCM92QzPCs/Phuf1aqfXc+DDc3JQfnl1XDjCtSrzWFwk8t+FZj0JwRqGSCc3ff7UBuD/xKugcuOEomx1FVSu8moMyg6Yk0qvZjO2cYJ/BQV7NJqCZ+77n9UPw2snBCO/oB2aeq536zY8XwY583H0LwnOioJlLryq0FAARnhMLz5tvAygol0xenD8G5Xm+aL+BuxbNBPD5xIt14ZmPQnBGoZIr9YY3oj4mG4YIQKeqV7Me8LbUq1kThOP0alaEa411yNv3XjsEJ8+N6uYh5XnyudCM8EsInnd87QWMlFkPzd3k1ZoQAER4Tgw8t24EmLlMOn30OGysKY11tiX/5GVnwZUrF0pKYLZ3ou0jCsEZhUqGar//aid526B3+SNMDkyQO7r1Xs2Qfl7NWg4aFng1i4FYCtAKHQanAvDlP78DvTrhWQ2mZSzplNR981f3IDzbDc0Iz86B58pmgNUyQ2qf7YVPzKsWQDP3NrPED4UzG8Vr3E3guR2vBBSCMwplLzRTiHnEyDpT5MZ+iMlNgFcza6tXsxnbOT40O8qr2Sg0c98JPD9B4fnsqDogm7Okk1NhCJ6/8jzCc9zk7NpjCJoRnp0Bz5s75POaZxTKQjN3vd3RQsDZ7xeVyzxF4LkILwYUgjMKZZ+6zKw05nLDGXdOSns1ByS2emx8tnNa0Cwm4ETYzsltTytqPTUFX93/PoyLRhe0yJIOZNYKwfNNT/wE4dksMzevptftBltt0xCe44dnlbzmCn+OBJrF1+MH15DnpKws/rVcB5jvjEJwRqHs0bTvhVI0Ws2u3+fywogrC72a9Xo1x+ugocOrWbguKy1HqYyxcfjHP78LdGjuBFjSgSRGzTAheL7xiR8jPJuD5h2WgBzCs33wvHCDYl7zptoyWWjm20TST5V+H9TNbhKXsBVHFUQhOKNQiYfmdjCYoiGnXnceTIA75b2azdjOycKyA7yaDUMzV8i5YXgsAs9GQFhzWa7xF0E4E4HnG76M8GwamhGeUwOeK2Yo5jXfO3+aLmjmnlRvmjsdoKRYfJFhygYKwRmFSiA0S0YHNKsAuZH3efIIejGqtnNO92qW+EuLoDl+2zmt6DCoQ7MZ2zmQ+arltkHh+U/vSNI2BPwTa8PVb4BKaR7CLyF43v4lhGcd0LxTFpoRnp0Nz/5ygM07ZPOadzQXGYJm7rrauU6SspEPmLKBQnBGoRKmTpAZHdCsJkgjOkDgWclBI36vZkh/r2aWtdyrWQLqmh0HOXgegccPHGTluEeZiXRb0smpkMzqvu7xHyE8K0NzB3n7YsKgEeE5cfC86Vr5vOaCcajI8xmGZqq8bA+sWbpAXCSmbKAQnFEoq1X1vVfaydvdVpd7LssLY+SVGK9m1lavZlO2c2IQFsNskryaDUNz5G389CDzlVcOyVtt8CPJivBsYFAVhg/PP0R4FtfRrLUUmncnHBoRnq2HZzqc9vQF0ukjR+C8mlJT0MxN2jidwHhlhfjafBpTNlAIziiUddBsWYqGnM548iDgyhJAs7ztnLO9mmMdFcOKfjdrO2fYqxkUoDYO2zk94M2zEaT/D5zoy3kiAs+MGJjjs6STQHdEobSNa3b9AOFZDM0um6AR4dk6eKbAvHSzdLmBI3Dfgrq4oJnTPasWiFM2/IApGygEZxTKMnWChSkaYgVJwzHozSfAySg6aMTt1QyQAV7NrLXQrNlxkBVCM+99iAfP4kY7Tks6pbkheL7qi89lPDxLIs0Iz/bDs9k6p3nNF9wszWseOQMds8stgWYXWdKfnQWXrl4k3gtM2UAhOKNQ8aoiQSkaYk25smDYl584r2aR7ZztXs0ggmZFEHaYV7MRaBatc5bA85eV0jYgLks6hXlMIYGF7iszGJ4JNLeBXHoGwrO98Gy2zi8i0JyTL7o5TsCGqmwo9/ssgWZu4tLqEvA01osvSkzZQCE4o1BxQHNCUzTEGs/ywXh2jgSErbCdS7pXs66oroXQDKBelhnbOaOgT17DBJ5/dfh0n4R59EKzsiWdAlpDIfnWfeUXns04eI5Ac7elIIfwbB88r94GUN0smZwf7IPl5X5FaAYT0MxN3rloJgH1HP61jSkbKARnFCoOdUICUzTkNOYrgECWR9VBI26vZsgAr2YtBw2j0CwbxWZ1wfv/e6On7OXjA/0GsjL0WtKJIDsGzxQgt/1b5sAzD5oLLQM5hGf74HnWcoBFF0innz0Gd8ytUYVmxiQ002VpysZly1vEW8WUDRSCMwplVGXftSdFQ06jeUUCazfLvZpZp3k1i8BaDoTVoNkur2Yj0Cx6f+nV90p+d+JMvzz7xGVJF5olMzsEz5f/6zNpD8+6oTkZ8GwYUDMQniuaADZeLwPNJ+G+tsRBM6dl00rA29QgvqgwZQOF4IxCGVRXsjbMkktgsqDUgO1cqns1G3TQMArNiiCssj3QkS+tFPGWfShg4aVX3it5+cRAP5935OHZsCWdkkLwfNm/fD9t4ZmZvb6NAJ1+aLYbnk0BqsPh2WrHjYtkOgNOTUBHc2HCoZn7uHMxpmygEJxRKNMq++4rnWBzioZYQbcHAv4iTQeNuL2aAdLfq1nLQcMwNLPK8K6Uax3Ry6+8W/I7HjyHkJmJgUEclnTyyzFheN7yz99LO3gOQTMXaTYDcwjP5o/LKni+7E7ZQU6W5J0LdQa0A5qZSMrGtpULxbuBKRsoBGcUSksl332FNsaPOGFfgt5cYL15itBsiVczyybXq1kJfJXg0yFezYagWTT9dwSef3t8oN8MCTN65wo7EhaSV/elaQTPAmiOB+YQnpMHz0suUhzkZFNtaUKhGRiQlLl0WilAVaX4yRNTNlAIziiUhrqctDNsbgGw7iz9tnOQYl7NVtvOaUEzaGzPgFez+miEatth4Y8Enl86fqbfiCUdw2/zVUYhdEWhQpACEoo8X/xP3015eJaFZoTn1ILnegLMKy+XTqeDnLTUJRyaGYUyH1rXKjcwSic2iygEZxRKRiXhFI1WZ10N5HIoKA3d2LUcNOL2agZIf69mLQcNg17N8qkeWscVfvvzqzTyLN9hUMAmCjZ0DCPBaVmY5ikEz5sfezpl4ZlAM43+7QG1nGaEZ2fDMx3kZPOt0ukjZ+C+JcmDZvqv3+uBjSskTcDdzPbOdmwhUQjOKBQfmp8+0EDedjoSFtxZ4CbwnHCvZpHtnOO8mmUhHJLu1WwMmoXb+/Mr74Qiz7I3Ql2WdGLI1jydQvB80WNPpRw8R6C5G/T0P7ALnu2yq0sneN52l3xnwKa8pEIz9/mCxiqA6irxhfVdbCVRCM4olFBdYLRnvp3K9oEnv8iY7RykmVezUds5LWiWHIN5r2ZdoxHKpXqQ///fK++WHBwa7ZODgTgt6ZSWDcHzhf+YOvDMg2b9fxGyA57NbidT4fnSOwDyyySTl/qHoSLPm3Ro5pZ5WJqyUcNs7+zEZhKF4IxCERU9fYD2nN7g9P3Mys2HLF9eFGDVHDTi92qG9Pdq1nTQMObVLPtZMf9buI8//csbZadHJ/tlgVmLi0wN3c2E4Pn8zz/peHhm5rQXRSznjKdRITw7B54XXwgwfb50+uhR2FRTognNSn90sRqaQykbPg/MXjBbvKePEHjO2OHsUQjOKBQHzbYOqx2vsguKwUVHFlSBZmu8mtnkejWDMmSqd8pLrlezIWjm79tUAJ79/Ssl/QSeE2BJF7u5CvKiqY0b032eg+E5BM1cpNnOUfwQnq2F57p5ACsuk04fOAr3L6jVBc2x+YmFZq6gW1ubAEpLRecF8wS2migEZ1SmqxOcnKIh0yjllVaFbvKGbOcgxbyataK7Rm3ndLttgDLs6vRqluRHy0W85R40pqYIPL9a0jcy0W8emIWpHS6+R7R8aDoUed74D13tjoZmu+EU4dk6eC5vVOwMeP8SZ0IzV87HNywS7nOQXcNs73RkXxgUgjMKlXAVPH2AwsLdqbbfDGnQ8wk863XQiNer2RLbOU24loFXO72axQ4acXo1R/dJUKZGjjdVYAp+8AcCz6NSeDZjScd91xCF5xc3fm53h6OhGeE59eCZOmgojAx4S1Oeo6GZqjo/B2rmi1I2GOZz6O2MQnBGZap2peqOZ2VnQ0FJuS1ezRIHjWR7NesBYdXt2OPVbAyahZHnH4ng2UJLOlmWimj3hr//TtLhWRWaEZ5TC543XCXtDEigeZl/GMrzvI6GZm6/di4j4JwrGI47L5XbDhSCMwplSgVPH+gEp3k2G1RObj7k5OUbt52DFPdqjtd2TtOrWWY7Jr2ahaksSvUlUxcEnn/8x9dK+sf4HQYFLboy3+h314jebPnwvO6z304aPOuCZoTn1IDn9dfIdwacPAUba0pSAprDsxnYvmaJ+Ch2oLczCsEZlTHyP+Vcz2ajKiqpAK/Pp9tBI36vZtABxKnu1cxa6tUshHNQiMrLRLMj8HyaB88WWtIpziDAsHvto/bDMzNvUxEBVH3QjPDsbHievwZg3lrp9HPHQ50BrYJm8fEkAprpx2W1pQD108XXCno7oxCcURkj+me2wnQ5mLLyavBkZ9vk1cw6y6tZDq5lQTS5Xs2GoZkHz8//6fWS/afP9qnyjzlLOiEoCCN3u9fYCM8haOYizXaN4ofwnBh4rpsLsGqbdPrQCbi/dZql0BwF3gRCM6fPrm0B8Hj41zJ6O6MQnFHpL/9ToQ6BW9PqgiGNeWlpZejduO1cins1x207Z59Xs2yEW48IPP/pb2+X/d+JgX41EFblHGVLOkXqJlN3r+78Vpet0GwWUBGenQHPtDPgphulnQFHzsAts0pSFprp9HyvB+YvnCM+F+4n8NyALSsKwRmVzupKx4Pyeb1QXlZpyHYubq9mCRCiV7O+4cd1dDiU0VtvvF/yUm94eG5GFZoNW9JJOSr2dcfKR76ZsGuGQDP1kN4HcukZCM+pB89b7wDIyRc9+E3ApdOyocLvS1lo5ta7rW0GQHl5bGYwmANu11ewWUUhOKPSUv6nQh0C69P1+PLz/FBRXqULmi3xapYFRwPQbLVXs17wTqZXs0lo5vT2Gz0lvz05IJvzHKclndrNd8eKR/7dcniOQHO36jWJ8Jw68HzJh2SH06YOGgvK8lMemrn5d61qER5gIHgJdhREITij0hGaGyBNOgSqqTi/AArIC0TQLGRGeds5ITSnoFezUQeNZHk1m4RmITwPiqzq4rek01h2x7LPfKNryae/bol/LQ+atfsaIDw7H55XXa48nHZtqaOgWXLIBqCZzp9dUQj5s5qFhbhd38dWFoXgjEo3pVWHQDXVVFRDbk5OfLZz6NWcAGjW0RlQp955k8DzqUHFEQbNWNKpQQWEI9g7KOzGC8+GoBnh2fnwvGgTQOt50umDR+CBljrHQbNLxhNdLzRz3x5aMVfYUTAQrMYRBVEIzqi0UTp2CNRSQ3UNeL1ec9AsB8SyYOlgr2Yz+2y3V3OcevfNQyUvR+CZ4YGwRZZ0MvAcgg6ai9y9+OGvmYJnZv75bQTKjEEzwrNz4bl2DsDii6TTh07AA0umpyU008/5vmxYu7xVfA58HkcURCE4o9JFGTfKk9vlhvrKaoj2DDNsOwep7dVs1EHDKDRbbTtnimzC8MxFnhNgSSe7DoQ78nW3feqrDYahmYs0m4VGhGfnwLO/DOCiW2QdND4423npGVZBM7d3182rl+ko6P4qNrcoBGdUSsv/1IEOSPERAs0q1+uD5po62g3QYts5E3m86ebVzCYfmjm9/9bhkpdPDfVrrmXAko6fMa3A4/Sa2tf6ya+2GYbmeKER4Tn58Eyh+fK/k0Lz1AR8cIZfOJx2mkCz9EETYMfSecLjDwSuZ7Z3tgEKheCMSlFopn8225XJdVCQmwfTq2vs9WpmWYd5Ncvsh+bx2ezVbBKao/D89uGSnxw6PSi7nAlLOuUtCUQhuHvhQ19p04DmdlDKaUZ4Tk14Pm+71EGDQDN10EhXaBaWE35fVkfqoFFkCuN2fx1bXxSCMypV1QkZ0iFQTZWFRVBVWmbedk4Msynn1WzQQSOJXs3xoOzYkd7CZ98+NsqPjlloSSezNyG4CMFzy0NfaVeA5g7y9qLqdYjwnFrwfPFtAFUzJIu4YSDkoJEp0MxNf2xDm6ijYGAFs72zA5tfFIIzKqUUsZ+7G2sirKbKKigvKoZAUDrktiEHDcNezaAAtejVbCU0R9U3kPPcOxSeDa+px5JOAiGRzxSKX5z/4BMdMtC8O6HQiPBsLzwvOk/edm74CNw7p8ocNIvOO7uhGeKAZqpCrwca580SPUW4/xk7CqIQnFGppl1YBULNIPCcm+Oz2auZTa5XMwDYbzuXJGjmdHow5wfvHB9NkCWdLEREtHveA18OwTOz4AL90IzwnBrwPHcVwPIt0umDx+CB1unmoVno2mI7NDNxQDO3L/evmgeQmxtbIBCgvQbRng6F4IxKDWWi/ZweZbndsLixCbzZ2eAY2zm57Vnp1Sy3riEHjeR5NZuDp0jr3k/h+cSo3sUlEKNuSadW5O6i2z/7yxA0M4yJ/Ud4diQ8T5sFsPJy6fTh0/DAktqMhmZu2hWrFwnrxu16EKPOKARnVKoIo80K8rjc0FJfDy4C0fqiuhZCs4hp0atZF9kYh2ZOBJ5/9NoRmAqyo2qlSnKf9VnSKaq6uOgCz8LF8vuE8Jx68Fxap2g7d2tzAUJz5H3zzBqACp49XSDoRXs6FIIzyvHKZPs5vSr05cDipubEQrMSnCbTq1kJtNU6Qoq3l0TbOUPQzGl4BP7jtcM5HDyHrZr5DX5clnSKe9xUMw18i5YR2PIgPKcyPOeVAlxwk6zt3K3Uds7vSxo0g4OgmSv7nvWLhfUUtqdrwFYHheCMcio00z+LdWJN6IDnnByYWVevE4RBB2SC872a43XQSDVo5jQ+AT9942hOkI1Fni20pJNfjpRfV1kBJStWIzynMjxf9iFl27kkQzPjMGimmlNBmqCmRmF9ud3PYouDQnBGOVW0M0Y9VoM+1ZeUQG1VlTLMGnHQQK9mZ0IzN39sHH76+pGcAAtjVt6E+fDhkow8yEBJvh+Klq8i8FWI8Jxq8Lz5Vik0E1Vmn4Xz6srSG5rBODRzsztXL5Czp2vHFgeF4IxylCLRZuzFbFBzqqqhtKQ0PmgGnZDpJK9mNRBOBds5I9DMaXwC/vNvPb7TE1P9altndO4fw2h/pqLwXLNseXrDs9F1nQ7Pm24EqJsnnTd6FG6ZUZFYaOafacmCZsYcNNNvtUV50DR/trDevF7sd4NCcEY5ThSaC7EajGtJQz3kFRaBiES1QVjEvynl1Ry3g0aSodmsgkF4+c0jJX0ieNZvSQdalnSy8no8ULN0GUBFVXrCs5l1nQrPrRsAZiyWTh86Ag8unJ54aI52+ks9aOaW++jSWcKo8/h4Kw6KgkJwRjlGkcFOHsGaMK9ljaQKc3J0grBB2zn0arYemo1Gm/kKBOH3bx2NwnMCLOkER8Ut6SEgUd/aBjCtFuHZqfBMoXnZpdLpg8fgwSX1KQ/N4ustEdBM/y3M8cIFq5cI69Dj+VdsaVAIziinqBOrID5lu92wac4c8sFrLTQrQaajvJrBAbZzNkEzD57/+ObRkr8MjPZLoQIklnSMQbxnVG7k0+fNB5g1D+HZafA8rRlg0QXS6edOwYNL69ICmhkm8dDMzb9+YSNAXl5spyYnSzHqjEJwRiVdkWjzDqwJa+B5WXNzrCE3azvHn5USXs1pYDtnBJp5y506corA81i/0vqMib1kJJuSllI3vQ6YuS0Iz06BZwrNF3bIezXPKkZoNgjN3LIXLVsorE+P5ws4KAoKwRmVbHViFVin0txcWDF3rjI8i6HZqIMGejUnH5pFovD80unhvnj3kBFBhuL+RCCpZlo15C1bRWAi29nwbFenvGTBcx4B443XS6F5fBhubc6H8jwvQrMJaKbfrm9tBKisjO3g5GQxgecHsaVBITijkqLI0NoYbbZYJXm5MKO+QQFA44BmAbiCMtQm06tZCbxTxXbOVFkMDJ84U/arIwOjZm7EYngBBXiWLEdUlO+HvEVLAXJynQvPVgGqE/eNQvOW20n95wvnTU3AiqJJhGaZS1UvNHPr3LmqRVi3wcBOjDqjEJxRyVInVkFiNKuiDBqbZjjQdg4S69WcDrZzBqE5qqHhnF8fHRhNhCWd2pEX+vOgbNmKsF0dwrO9+0ahWWaAkxX5I7CxtlSSqpOp0Mwvzwg007dVDZXCqDMdihujzigEZ5TdikSbN2BNJE5zCDyX1dZpA6pZBw30anYONHPzh0Zyft3TD1O8UQZVoQgMp1XLyuPOgtK2RQDVNQjPdu3bhTfLDnBSAP1CaI7AIEKzcWjm5t+1SpTrjFFnFIIzKgnqxCpIvFZMrwVfeUWGejVDcqHZSumBZk5j4/B/B/tzRqcCcVnS8Z049Bw1heeq2XMBak0M/onwbGwbFJrlBjgZOwZ3za1BaLYQmun7qkaZqHN2NkadUQjOKHuE0WZ7dd7MGZBdXp582znbvZqt7gxoo1ezWWjmvk9MwR+ODsKx4VEBBBk9Cr2DqvB3oWJGM8CcBQjPidq31ZfLQ/PwUXiwpQ6h2WJo5vTgxqXC+g5g1BmF4IyyT51YBfZqQxP1JPUrQ3O8Dhro1ewcaOZE4PmdE8MEnscMo78eS7oodMhARnlFBXhalwC4sxCerdy3hesA5q6WTqcDnLRNtxSaJb+2zdAs6dtnMzSL1TKtBDzNM/jg7IXcXGzLUAjOqMQKo83JkTfLDRe0LAjDsxg60avZBEo6HJq55YMsvNs7DD1nR3UfpRFLOjUVFhaAd+EiAF8OwrMV+0ahWWlUwKV1lkMzw/+NkwDN0elJgma5+vnc+lZh3Y+P34lRZxSCMyrRwif0JMLzhQtbAHLzkm87pwbNku/o1RzXPpO6OHpqBP56ZlhlafOWdKoPyv48yG9bQh7Y8hGe49m3pgXy0HyuLzWhGVIPmukadUV+8MwURJ2zIS8P2zQUgjMqMcJoc/Ll82TBitmzALKydAxaIgemoMNBA72a44bmuKLN8v61IwPj8LtTZyUzrLCkU1vOQ8614rbFABVVCM9m9q2mGWDdtdLpowNw26wiw9AMToBmJvWgmSvy8+vbhL/D2BhGnVEIzqiECZ/MHaDKfD+saF1I4NktTRZGr+a0hObol+Ep+MPJczKwY81h8pcTBrAZKGomD2yNzQjPRvZtWhPA+TfLDKU9wN42wx8a4MQoNDMIzaahmX6qK8rDqDMKwRmVePmfOtAAGG12jFYW+UbuX9LIgNsFSbedky0TvZqtg2bR8mMB+OOJszA6OWW5JZ0UangART4UVk8LO24Y6TSYqfBcUi0PzePDU+vLmb9DaLYfmrkvD62YL/xNxsbuwKgzCsEZZbXwidwh8jEsNLvOueoKcuDq5modYAr6HTTQqzmOzSYKmhnp8pMsHOgbJ/AciOuGzihGrZVRu6C4GLLmLwTw+hCelZRXCHDe9VJonppg4fDrN+29e+s3ybcXEJrth2b6eX5VMUAVL/WIOmz4fHdi64JCcEZZoki0eQfWhDO01DPSxwAbopa1tUVw1ZxaHTCrA5pBBM1aQOtIr+Z4YdfgfKuhGXRAM/d5KgivEng+NTqh6/HBqCWdWpm5ubmQ09JGPvgRnuWg+ZJb5YbSZuHggevZ79z7XKSyO0h9HrQNmiG50Cw+kWyHZhDW2d1r28T3swewdUEhOKOsUidWgTM0K2tyNA8mBS3yutpiuILCsyNs50C6PVu9mlPRdk5pVUZjeTI9wMLhgQAcGR4XrGWVJZ3aLrrdbshbsBCgrALhWS80f/sTz3GTPn/12gECcB22QTOTXGgW7n8SoJn3cEg/rW2sAqiuji0wPl7I3PJPd2Erg0JwRsUl/1MHaN4XRpsdoCIXCzPcI7KUubamGDbNqFKHZqMOGujVbAM0M8agmZEZP5DU4amhILw2NJ4QSzqt2s1ragaY3ojwTHXBTVJopjryxj/xoZnT565a001+i8cRmu2FZm6hneKoczD4eWxpUAjOqHi1E6vAGVqaPdJH3nJBpkGguqShDOoqxP1b0Ks5YdBs5T4zOo5FDppjFACTIwD7B8YTYkmnXFXhubmVVcY6DaYjPF/4AYCSGun0w69+m/33jz2ksmYneR1EaLYXmqnWNZHztqQ0tjCNOm/v3IatDQrBGWVKkWgzgrMD1JI9OZbDBMq0lvtoSy3UVBY7w3ZOFrbRq1k3NMtGjOWhOdbwM/C3gUnVWorHkk4AdiKQyfHnhzsN0gF6Mg2ez78RoHauPDR/7cO3qa3691euGSDQ3IHQLA/NkCBodkUmbFsyT/iD5OU9hi0OCsEZZVb0ybsQqyG5KnSx0JA1HtS7/McW1EAVF3lWy0E24qCBXs3Oh+YQNZAX4eZXzkzBeCAg2YQVlnRK9UQne7KzIXsWAciiksyB5zigmdOjV67upm8IzVJodiUQmqluXjKTDpEZmzA8PJvZ3tmGLQ8KwRllRp1YBcnXypzxPhewuUbWubulDirLRWkbmezVbKXs8GpWg3k1aOYUYODdIQb6xyY1b+piSzqG0ef+rDTH5XaDj+Y9T6tNf3hWgubjb+/VC808eO4kdbofodk+aOaWW794gfDHKCr6ArY8KARnlCH5nzpAo831WBPJVZt3aixPR4qGnG6fMw0g16ft1awFtOng1ZzKtnOC+Qb2iWWgd8wDvaOTsvChZElnVc17K6sBmmZS+430hOfFm+Shue/Qu+yXb283eWJ3ZAo0ix/ekgXN9N9bF5PzNJvnuT0wsJHZ3tmALRAKwRllRJjbnGRRF41Gj74UDTnoyfW44VNLmwByfCCiWincGnLQQK/muKFZy0FDE5pF68ilc0Sq/sx4Nrw5EhBtnhFCWIIeW7wFhQAzCVzm6PiDSSrB84LVAAs3yUPzF25uNnuqdl6xah+EUjbSH5olgJskaKbzC3KyoWbuLNENuOhBbIVQCM4oXcLhtZ2hNbnjfaShyDUDLFF4znLDQxSec73KcItezQmGZjAGzXILG4VmcXlT2fD2CGPq0E3VPC+Cne3zgbt5NkBhcXrAc8sagKWXWA7NnD6zbWU0ZQOh2Rw0gwFo5sp+aLVoGO6zZ2/BVgiF4IzSHfjAKkiuFvsCY3muYJkVZeV43PDA0hmRyLNBr2YlEEavZgPQbIHtXDzQzOU/B7PgnWEGJgJB3bXJMNrLidM/ZMGFgK2ngTzAVU1LbXhesApgycUJg2aeOhCazUMzYxCaqeqK8wEaeNmJgUA2c9eX7sXWCIXgjFJVxIIOfSyTqGIXCzO9E0F1QDGm3CwX3B9K2/BqgDEYc9BAr2b9+2yVg4ZRaOYXxHrgyIQPRqamTNU6w++EKGNJp6Wsiip9ec9OhGf7oBk+vXXlPoambDgQmiHJ0Cx7TsYJzdz8+1a2CH+I8XEEZxSCM0o70gFoQZdUrfNP9rlEA53o50VGEXxyCDzfu6RpiHx8XQC16NVsYFkH2M4pHYPSvjAidwzWBb1TfhiaUIdnRUs6lTrUrHrycuf5AZrnAPhyUgeelaB5ZGDUamjmaRep0IPi6G6yoZlJMjTLwrAF0By6986oBvDnx1YcHq5EazoUgjNKS9gpMIlalhsY88ulaFgUIc3xuHcQyL2EvAY1oZkPwqliO+d4aAYNaAZ1aJb4KDPGoJmbTn6a/mABHBxjJbBihSWdJjx7POCaMUvb79kJ8KwCzXDkzbmJuhd86vIVAwwNZMiCJEKz1dDMzb5m7RLhD1Fa9gS2TCgEZ5Ss/E8daAe0oEuait0As3xTumhT3pVME2Ne+Oz28/ew37ynh3xuj8KzWKYdNNCrWRuajTpoJACaBcvkw6GJ7BjUWGxJp1q/5OWiXs8109VTN5IJzxrQzHY9cDCRp+EnL1veTd4eR2i2B5rpt23z64XWdKf71jDbO4uwhUIhOKPk1IFVkDyt809RF42cBBU/yP992W99Yl8InsPT0as5EdAM8UKzjn1ShWZQh2aIgDjjg8NTeTAZCCbk1xEMdCGGfwpThYRJ6pvosIPOgufqhqRCM0+d5L5wEKE58dBMPxTleiGvqVH4CxQU3IMtFArBGSVQpFPgDqyJ5Gi+lx0p9khTNOTgxGUubWNb53XnDQj49tv3huFZnLYhB80yH4WQjF7Nhr2aZUFYZR1Vtw2QB2M1aBb8jm7oZYrgrI4/eDB6lzASwfb6ABqbyY2owBnwTKF5001OgGb45JZl9LrtSGVohhSBZm7qp9eIOglOTHwcWykUgjNKrA6sguQoh1xxy/KnXLoAxRz/Pf6Zazd1yy2nDM8gBWK0ndNfrh5olgCuQWhWsp3TC83ieawLhlzFcGxS3u9ZvyWdvJeuptzkEqidDkCdN5IJz1XTw9CclZ10aOb04KVLu8kP8EKqQjOTQtBMP7XWlNLc5lihY2N+7CSIQnBGITg7ROv9wT43A74EFU8b+U61Bdjv3CeEZ/Rqjm+fk+nVrAbqeoCagqmnBI4HPIq/SLyWdJq/djGBlroG5bznRMKzA6GZf48mADioBIBJg2bR72g3NMta08UBzdwi160QRZ2xkyAKwRnFyf/UAfok3Yo1Yb9megkj+KwZ6EQBXjoevmbjgNY67O77IznPBJ61vJpjXxJQI07xak5B2zlNUNeCZt40TyGcAD8E+L+3hZZ0mr80HaKbpm7k5tkHz86GZnjgkqX0Ot6pCLXJgmY+eCYBmmPPcNZBM/125YIGYSfBwYEV2EkQheCM4oQWdEnSusLAWSsRUzTt8U9e3d6ttzwCBvsIC4fhWQLJgLZzdkKz5Q4aOvOd+dOy8uC0pxzOhfKerbekU6xT7rPLHXbcKClPPDyrQfPRt5IOzZzuu3hJFwHAvZkCzZAkaKafC3O8kD+D10lwaioLSkpvw1YLheCMosKRApOg8wrZwWwX5EsZwhILNs0UDVl4fvJBUc4zQrNxaNYAQtnNJdh2TguaGZC6bYQ+ZsFI7jQ4FXBZAsyS/VasT97nktJw7rNc6oYV8KwFzbvvP+iwW0dHpkAzkyRo5sr72JLZwprPct+JLRcKwTnD5X/qAIVmHCnQZpVSz+Zc1ny9a8Nhx0NXbRgwUzT75EMReIZBx0GzlXKqV7NWWRJo1gJ1RiPfGZRzrjkoz62GPpnBLE1Z0ul5oBCLjjI4vTGcwmElPKceNMO9mxf3EDB8FKE5sdBMP29orhGOJHjyZBOzvbMBWzAUgnNmqwOrwH5dUsr2JbD4xx+4Yn13PAWwT31S3m0j2dCcCV7NWp389CynBs2C1A2VcsT5z74SOJ1VClOBYGIs6fSAbnVNuPOgFfBcUZdy0MzpnosWdZK3gwjNiYNm7ojrZzUJK3/atHuxBUMhOGeoIt7NW7Em7FVrLowUeaAsQcWbStGQheenPynvtpHRXs1qqzrcq1kOmvXsBz8ynu2HofxaGA6wMkVbYEmnZ7GiYoAaAr1ZHvPwHILmG1MSmnn124HQnFhopmV+dKkoXePsueuxFUMhOGeuMLfZZlHP5jXF+q4xk7nOHfdtWzdg1f6y3/1UzG3DcmhORa9mxhg02+3VrLY/jMy+y3UclAVv3nZd2TBR2AAD4InBjklLOkb3mSA6jmxvGJ7Frht64DkNoJnq4xe2dZOaeEEKzZBUaGYU7mF2QbPkcokDmqnaasoAynhxjrNDJZiugUJwRnBG2aQLipm+LBeTKM/mxz+xdW231YWy33tYFHlOUWi2cp+d6tVs1HZOaz8YETRHp7sBCqbDoK/U3E9m5reXHKsrPFhKSZmws58aPKcJNPMqsoOg36CwepikQrNkxECboZm/X/FCMzfzotY5wnpvqP80tmYoBOcME6Zp2K/p2Qw05TH6UjR0wiDvBk8bz85E7Tv7vU9HIs9gATyj7ZzmMdjh1axVL3LQzIignYDzUH6d0O/Z7FnAGHQG4ZRfAFBZDeDJVofndINmop0XtNG/LnUiNCcOmum361oahRV/+gwGnVAIzhkovPBt1oVlTK9ZrGS0QbDjnsvXDCRy/9nvf8YCeEZoFixnt+2cBKSV/J6VoFu0L/TNkwsjpbNhlHUZ/z30WtJpiUJz1TQAf4E8PM9dnnbQzOnuC1p3kbf9CM2JgWaqhtICTNdAITijEJzt1OoC12ihh6lMUPEvfPyy1XvsOI744Bm9mhMLzYw5r2ZFaHZJCUKybCx1I1AxB4Y9+Yr1E7clnR7RjoOl5bHUDXoMFJqXbE5LaOZV4E6E5vigWXzNio/94ra5wmUaGjBdA4XgnCnCNA2b65u0FiuLpWTgYvShpUZnKwqwHXYejzl4znSvZh37lFSvZiXIF7lq8KHZJRONLmmA4YJaCASFow1aZkmnR9TrmaZu0A6Ec5eFoVmstIJmgI+dv7CbIOGTCM3moVlYJ9I6u4h6OvN1uh+DTygE5wxSO1aBfdpcyvS5GZMdArVJovPuLasH7D4ma9I29MKuwflWQzNYAc1anfDi9GqWPfY4bOf4qRhy0CyYLtqfnBIYr5oPo6QpSZglnZgQxeXT4brLKwCKywECk2kNzTztZOj1iNBsOTTT+W21ZeF8ek6YroFCcM4o4ZOyTWrwMjDT70qUZ/Pej1yycleyjo0HzwetISFAr2bZfdIBzbpylS2EZrll+GW5PQDVC2A0O183Jxu2pON/VorO9/wN4K+/ABgdSHdoho+c1zJAqmiXBJr5jXsSoJlJA2jm5jeJB0PBdA0UgjOCM8paXVKRZekIgSIs6Ej28UXguQ1CnZPSBZrj9GoGg9DsRK9mRgFrlaBZPI3mFoeivjNhrLhe1nXDEks6PRoil+DLPwF487djcPTttIRmTh/e1NJJQO+goI7F4GkzNDNpAs203B0tInAeHW3HVg6F4Jzm8j91gEJOIdZE4rU83z1SnM1YFm0WIcOjH754RY8TjpPAMw3ntUvhOUO9mpkEQ7MdtnOy+w/yYK0YfY4s76+AyZqFMA5u+dpmzDqFGNThN3zQs/9Jpv3GhjS/9XQgNFsPzVQbZ9UAeL2xnentbcKWDoXgnP7CaLNN2ljhntTHjIwWJIt18K7NyzuddKxSeEbbOc1jsM2rWctBg9FnOyeb4qEE0qLteHIB6pfARG6xDhi2AJKVV9tAXvuYDTfsTNf7zp0bF9ARBfciNFsLzdFt1go7CTI7v/EhbO1QCM4Izqh4K7k8azDbxWhG9nW7DYg8m514zDF4ZvYjNPMJIg28muWi0aogzciU4waomgeTFTMhGGQ14DkBipVfSD5/kcBzN7P+hqK0vAExTEeqQ7PSPdA2aAb5OrtsRp1wxzxZN2KLh0JwTlNFbOhasSYSqzw3AwuK3NmgjnFm9eQdFy3rduqxK6dtJBwUEgDNoA2ttkOzQa9mxWMAGRAGBcCWAWtNkBZFtPnlFFRBoHEZTDJu+aq25oSQ/x2EvwmNPvcw665Pu2DCHe3zewgAPm4amiH50CznCmIrNDPydXbdQlF2xtAQtqkoBOc0VjtWQeJ1fbWn180wOapcZ07U+s3xf2Jmv/9pDp73GoNdg/OthmYl+Eplr+Z4HTRcGtDMyO2XCjRzZWfnAjSvhan8Cs3nD20+Vvl9tM8h+leh55l12/cwa69Lt+hzJ6mCQVPQzCA0Kx1TY1mB0JZucLAQbelQCM4IziiTmuFzQX2e29QIgTrSNjo/dOGygVSoBwrP5EXPtydTBpq1HDTi9WrWPIYU8mpWgmZutMEotMhEovnrTZsPgZoFwOq/SpQfLhjG2LkjFB0QqodZc23aRJ8/tGHeAEG9ToRm66CZm1dcXyus7KamO7D1Q3BGITijTGjbtOxe0xCorr23XbB0V6rVB4HnDgk8Z6pXs1EHDau9mkEMyGDcdk4RpEFUphw0g3zUuqAK2NnrIEij0Hp+a4ZJVD50OPq8+po9zKqr0yL6fPv6ubtIVR1EaLYOmum/VzSL8pzHxzdj64fgjEozYX5z4rUwzw3F2Yxl0WbRlJR1ARDAc6p4NStuL4W9msXQKpnvUodmOa9mMcjzoVm27hRytLNyAGYReC5vtN6Gzri2km31EHhOi+gzw3UmzgBoFn9KBDTTf5bUiFxGh0dmYAuI4IxKP7VhFSRWV9RmDyao6Mc/eN7ifalcNyF4ZpgnLYFmK1BCC5qNOmgYhWZdoJ5CXs1y0Cx+OGCU0jp44F49F9g568nnrPjPC9150rL7HI4+r7xqD7PiypSOPt+6bm43Oaa9mQDNypZy1kEz1eLpZUI/54EzfmZ7Z3o6tKAQnDNY7VgFidP5xVmjXj32c8bbdwrjnelQR+z3Hu4gb7fEDc3p4NWs6aCRZK9mMOHVrArNoOEwwnv3FgAsvBDAX5KAZyZxyofmORjOfV5+RUcqX3tM5B4SDzSLq9FuaBaulgRoBlE9VQg7tjYvW9QBKARnFIIzSlt+csVsqvZqXjeMuTSEzls2LRpIl7oi8NwlgWfHQzOoQ3M6ejWrpXWoeTUrQbNcjrWkTH7ZWQCz1gPMWKYjvUfHDGVLOj2iD8S7mWXbupllWxtS8br74No53UzkLz5moVnNncMOaHbxzpekQDMjrKc1jcIOgu+cOYt5zgjOqDQTpmokSFsqsgezGMabgKL3d2xctCvd6ksWnpMGzaADmhmbodmE7ZxseeIPNno1q5WlBc2hya7wukUETloJjxSWa50cCr+JpR0Jw6MOLr08VfsbdCI0WwPN9N/VtcKIMwwMYBuL4IxKF/mfOtAQiZqgLFaBG2BRaXa2VeWJ2vi0HRY4As8byQEPmqmYjPJqFkOq1V7NZmzn9Hg1K0EzgAKI88GXN58O1z1nI0BDizwkKz7EJET0PvpFAs/7mCWXpRQo3bJmdg95exyhOX5opssurRM9zA0NlQMKwRmVNsIn4QTpmmrfWfFgJ6ahWfj1yQ+0t3WndeW9t28fHH/nrxAM2AfN6NWsAOJybhkWeTXLQjKjkn6iML9qHsCSSwBy/P02QbIMkEfrjjoU/ZVZvKWTWXRpynQKYyKDoiA0xwfNVI3lBcLKnZhw4UAoCM4oBGeUiqqzXbCgxJMvbGMtaczTpkOgYgMetvrqgZGz7XDsbVCE54z3agYxLUBKejWrQbPcPKX5XsKorZeUQO2cPnuBWfFceQRo+kbbJe2pcN3tWD2L9pfYZRc0Q5pCc7T8OqGf88zli7cBCsEZheCMkte1Nd5eLWiTa2pd2nC966YNrT1pCcyrrykiry7y6Xng0ofGRwEOvwEwMWYMmrW3pg7NipDuJK9mJrlezXps5yTbUQBOPR0NGR3zs7IBGpaVweJLALJ9g3pPAU1IBp2dB6Wz6snrRab14j3Mws2Ojz4zFJwjKVKJhmYmnaGZyifs2vJ2/xB2EERwRqWJGrAKrFVNtguaCjyVCSj6IAXn9ITma9vJG/Wj3iFxWpiaADj6lhSeNWFH6btDbOc0Qd3hXs1KKRjxeDVrlq1zvr8cYMXVhVBWayz6LHHY0Pht9StsXbfwIkf3Tbh5VSTqHC80A2Q0NLvIx3U1og6CExPTsXVEcEalh3DEQIt1bW1Or1Zgi9EDe1J13rCuZSCd6opZc10RgWb6MPAi+VYvrCBefdB0DQrPY+ec6dVsuYOGznznRNrOSSBVBZpBC5pBv1ezak60nvmR7+5sgIWby2DJ5hFwucdUr0J9qRfxKtx5sOXCfeTV7tRr8gMrZ3ZGHtLNQ3N0emZCM9XcElGe8/hENbaOCM6oFFfEUQNloebkZMEMjWizyTZ57/a1LV1pBs0UHvaRCrlbGWxF8HyEwPO5fouhGTSgGWyGZh0AzxiFZpcxaDbs1ax03Ca9mmX3Q898cfnkVVSXCxtu9kHF9D55qE9wR0JpfdFgxYsEnruYloucmr7R6VRoFl+BToRmquYykVnVmf4CbCERnFGpLwRni7W9PjdREeHOtAHmddcXMWu37yItzosQzgHVAFwRFB5/PwLPVkGzUQeNeKFZC9RT0avZJQ+J8Xo167Wl458rcrnjbi9A25YyWH7ZCLjdY4k/yRk9D0Q7ANgeAs+OS9+4aUUzfUg/6ERoZhjnQzOdXpwjsu+fmEB+QnBGpYGwY6CFWlbggYrcLPUIku4BAgULPnntmgXdaQLN7cCPMmvBqho8nz5iHJohXmhWAXXd0KyVu4xezVIodslAqYojhyB/momVWVKfC5tu80FVg3XOG/KWdArnCE8sS/8Np28s3LyPab243WGXa2emQbPcM6cZaKZaUl8hqdCSf/jhbdhSIjijUltFWAXW6crpub2G21xtaA41YCkPzOtvKCIv+SizWXjuPwFw6qC1Xs2yIKyyDno1gyW2c5LjNTqfUXDoYHgsG1mGOm8s2VYGq64YAXeW8eiz0vDc8aV8hNM3Wi/uYtouaXDCNXvD8hld5O2gbdAsOsWTAc0MH6DjgGaGl4fNV0Vujh9bSgRnFIIzimh5gQdKfVmJcNJ4/JrV83tSGprbb2wn7Qh1zFCOMpuF54FTAMfeink9x+vVLGvhZgCaE2I7Bynm1azTj1ltniFbOqVtM/L7yR1YWWMuXHSnD6qbtKPPjIFIcnwp0zsg5P18qSMelslhdtoGzbLLpg80U/UMnl2OrSWCMyq1hakaFunK+rxeuZt1nG1pSg92wmy8qYhAc9gxg2HqFa294oXnc6Sajr4pM1BKCng1G7adM+jVbIXtnHhfk+3VLI6Iy6VlyHYUlPnu8QKsuKYM1l07AlmeMcnvZq0lnbrCqRtUNH3jEWbRlh5m8WVJHTRj+7KmLqC5zikOzSD3c9oBzRXCdA03w0zD1hLBGYXKeM3LdUOZz52IaPOuq1bNS0n7OQLN7SB2zFCDkHjheXQY4NCrAOMj+qE5E7yatRw0ZDvpgTq4Jtp2Tvd8mWMTz5MDcbkOjuUzcmHLTh80tvTaAsni8mPQzBdNaXqewHM3s+Ty5AU5GKYz1aGZA1o7oTn02evFBhKF4IxCibW1NpbbrH8wMs0lU3KwE2bTzUXktUfRMSOR8DwxHhllcDQx0JwM2zlZuJUDbyXottur2SWsHy0HjXi9mhlGZmQ/UAdxQbm89anv85KtlXDBBwF8eYMJgWTxOaFPG8jrr8ySrV3M0m0Ndl/T1y1t7CL3q4MIzQahWebeMDJ0tglbTARnVGprA1ZBfJrudcOsIm8ios2dV66cm1LRZua8HfTPyj0QGiVNw44rUfAcmAI49DrA2b4U8Gpm7PVqVgJrQ7ZzDvVqFvxGGiAuB818FU4DuOQjhTB3pUnnDR2dBwXHyCoXJYxEh/Ofl13RSV5290/pRGg2Bs2M3A0oEMzHVhPBGYXKaH2gIa83AcUe3Lp8TlfKAPP5HQ3k1U0+Pk9ajUIJPCUDno+9S+D5tDroJtx2zgA0y+2H1V7NLg1oZrSg2aBXs9x5oGk7F4dXMxiEZsUfHMLR55YLy+DSjwAUlOrrPKh4jmpa0snNUJpXSKY/Qh9QmeVXdth1jV+zpIHejwYzDpr58GMQmhOd6YNCcEahUk5a0WZGZydBmWmdKQPNF9zSSQ6UOmZskAfHJMEz1dF3AHrfNwnNWp3w4vRqloXzBNvOSalDBaTF9WLCq1nJW1kJYq3yalZ0+lCBdCX5SwEu+WgZrNoyBm7XiOzvbfVQ3ayuCDR9QN3NLL+qh1lxtT0AzTC77IVmSD40Rz6bg2byT28voFAIzihURDerRJt1Q7N0uf2XL5vd5XhgvvCD7eRFO/89EmrEFUHFInhWKlcLns+cDMMzG1Q6EuPQrPyj64dmXbnKCfRqtsR2zgA02+3VLAHryHezucYNS32w9Z5cmD67Txck2xdtrA8B9MprusmrPaHXPMAucsiD9kEzk9rQTDU+jg0lCsEZhaIqcjMwuyQhuc07nXzczObbisirK9L5r1UW7BIBz2rlasIzeb459JqM13MGezUrDnoC6h7Ilnk1gz1ezYoPXybI1pcPsPbGMrhgxwjkWNx5kJNatFk9F5r2V3mRWXVtN3klBKCvWlxP+1zssgKaGUh/aMZMDRSCMwrF0/bavEGtoJM2hUpW3rtl6axu50Lz7R0Q7vy3Q/FP1E6F59FzAO/vB5iQsatLNDTbYTsnu//gYK9ml4H5EJ9Xs6T+40SaiuZcuPyeQlh64WDc1722JZ3ReWGAXn1dN3k1WH4PYJhdVkCzADDTFJrfP30WG0oUgjMKRUWjzWun5WXHAcjyizk0t5m55O/amIs/1E2OYzf5VigPjSkAz9SurudVAtFnZVZzklezloNGgr2aQQTN6eDVrOSgYVZ02O456wth204C0rW9xu8D4v1gje8DqxmBfp9Zs72LWXu9ZQB9Rdt0GnV+EqFZHZrp93dPpaQFPwrBGYWyXpvKfKPkxprDWPvHuL2XLJnZ7ShgvvSOIvKiEaa/kpZggxReUhCeqePG+wcAhk6hVzPoiMra4dUsAeEEejVbrfxygM13VcKm60ejIw+KzxtdlnQmAVkbuHeEAHrtDV3MuhstAWgCkp0IzerQTPX7w6ewsUQhOKehBrEKjOuyxvwJ/Y2MzDSZBpws1+koaN5yZweE0zLuVsxvTVV4pjryFkBvjw3QbNCrWenkMWI7l2pezaFOe0ag2QKvZqtVtzAHtn/aB63r+uTPRUst6TRgWgWg193Yxay/KS6A3tZaRy+cF5IBzaIbqWOhmc7rPnISG0sUgnMaah9WgTFdVOoDn5vvVWxJCGfv5kXN3Y4A5svuaiMvui+7BZ7M6QjPfUcBjr8d7jToFK/meB004vZqNmE7Jwvi4t/RgV7NVoumbyzeUgbXPwxQXd8XV1nW5DvLzQsD9IYPdDEbbm43DQIyuc52QLNwGedCc8iJ7pg0g8dXXHgcW1EEZxQqo3R5g79Xnn0V8UiPOpMOzFs/UsRc/mHqlvFXUPJktgKeGcZZ8NxPfs6eAyJ41vD5TWuvZgZs9Wq2xHYuTq9mq5VTAHDxh8vg0ttHIMdv/K96LGvHXlKAfpHAczezscMwQF++sJY+XB9EaJaH5jMj4wAnpU2F2+XCMDSCMyrF1YNVoF8L/R6oyM2qlIm+xFPs3ovaZnQnF5o/SsCd6SF3/x3KgGwRPMstk2x4po4b7/wFYGxY/XFHy0HDaq9mufoxajunCNLgDK9mPW4YktztBHk1W62qWblw7UOFsOrSQXBnjVhTqMlos/J6G8h6LxJ47mY23bLN0H0jkuuM0CyEZqrn/vKObJ2V5XjHsCVFcEYhOGeMrqn39yYggNWZNGC+cuc25oq7e6KDmKhF8dIdnqnjxnv7Ac6dlikDIClezYopDmJohMR4NVtiO5diXs1WK8sLMH9TIVz/cC7MWdqreQ5bnaLBsuo51HyABnie2fTBHua8Wzv0HNplLTVddEAUhGYhNNO3H7x1SLbO/J6sX2BLiuCMQnDOCBW7GZhX5jM94IlCB5f9F7Q2ddsOzFd9vI1AM93u82TH6uU7eFkEz1plOAmeqePGewcA+o9pQ7P0B4a082pmZDrxCbZtxItZh1ezFbZzToJmvmj6xvobK+Gae2j+c6/8uWS5JZ2ZeeGRCM+7dYA5/9ZO5vzbilTvJQC7nA7NYDM0D4xOQO++v8nWl8/txhxnBGcUgnNm6OqavDOmQVV51i5bgfnqexrIqwv49nJykGslPOspw0nwTD9Tx42jb2qUwcQJzRZ7NZuxnXOaV7PEQcMlgmaXOjTb5aARj0qmA2y9pxK23jkCufmD2jnYrDYEg8U50eFt0Y7B9C9RZ5gLbu9iLvxQm8LSXU6HZsZGaKZlPfPntxWr9s8f2fwctqaZJ4a1p+MCyib5nzrguB+Uu6m5+E9r3A1PcRlGfn1GxzI6tvns2upBrxsK6fkfCLKRv4CyEGTDn4NskEwPT4tN588nn4NB/veDm1oaGmy5aK+9t4hslA7lvZO8FwoaYv71zP1ZNzqNlS6ntJ64DJCZr1WG4N7CamwDlOcpbVcMGSzI7yf3Oa8AoInwQpYHLLed08x/dhmDZrW0Dju8miWgm6a2c1brrZfHoPuHLExO5EiORS66rqcOGKW//Ohdj5G6nYTn7SUfuthffqOLfwg/f/XYHvK2FaE5/GXup74GMCjTJ7S0bJT9ykdykToyTxhxTj/txypQ1yVlPsjJ0ragcxlrszttgebr7ttJ7uixPGY90V+zkWdxgyxphVIs8jw8RMDmT5FOgwagWRKlhfT3arYamp1sO2elZq32wQcfy4F1WwcVIr/ySsQ87XXoX6l2MxfdMcBsvqOT2Xwn9+DfhdAc/vK1/3tVHpqpigqOYWuK4IxKD3VjFajr0vr8w5aBbPgGS6PNXQkF5hse7GC2P9BDPn0xCsxGABbhOfx5fBTg7b8AnO3TD81iSE24VzOYsJ0DZ3s1MwahmUnhpol2IFx4YSHc8nmAect6TQOuWbE60kGE87g0jvcJPO+59N7P0Z/hYKZDM81t/tKeXypW4fSiAmxrEZxRCM7prwavG+oKsutk4FeMqkaKTRg0Mzd+sp254SE6sM1u0lLUK/5J3gp41hpOOOXgWWF/piYB3iFV2vu+FFKlT0Zgv1ezSx2a+e4bVng1m7GdSzev5kSIdiBsv7kSOj4H0LRAZQAVyy3p9DpvyM3bSl7PX/zAY1V3/eh/4NDpgYyEZvq+9ls/Iw/a48rgnJ/XBaiMFOY4p5n8Tx2gvabPOGmfnJTjfM+MwsFN0/2F0nxlaQ5zLP9ZIcc5PG2QrNvQvqB+wMo6c3/g4XZSdid5bYg1hJFrNSjKO2ZZY3nHajnP4vIU56VKzjOAbIcs7nNFLcC0WaTCPSqwzqSW7ZwcGBudZ3S+Ea9muXUEDh9Met6cTx8CeOnHvXDiUKVqZ0i5h2OlB13DOdTi+lf6qwFvmfJKuH79Srhi0SwoyvFmBDR/9TevwJee+6nyb5lfMMV+8x4PEgeCMyp94JlGKFsRnKXb/Mn6aWey3UyxheD8+Pp503daBsw3f6adUF0nhAcyiHZOtBye+eWlAzwLPhuEZ39huNNgdo7zoFnVxUKpM6DNtnNi6FXMec5gaBYD9G8JQPceqVR8IOHXiZ4OgloQHg8487c7ay7csHA2XNU2E4pyvRKATQY0C7ZpATQ/++e3oXP3j9Tv07Nn7Zt69IZFSBuZqSysgrRUF3l9EatBqA1FXvBluYqDEWCiN09Wj/UTvamKHjB5929LLOg8HY80EECmAxBsYFkmDHq8hiUEz6H9iEAgbUGCEPvOtQjR5WTe+a0KvzwG1JcT10F0Hg9IlbapVibXeClugwfP4nmqnxnefnEfY3UqWf7cIMBrLwPMXAyQV+wsr2a7odmM7ZwEetPEqzlRKp0OcPnHK0MA/fJPYgAtEGttfbCscgqMkXlvvQHff/tN+P5PyL1p1hy4YcEsuHrxTCjM8aYPNO/5X83qXFxR8hi2qJkrjDinoZyWruGUiPMXF5Ufnl3iqwtGI7mxyLFSxDnIs57jzw9Fo1n2yXVz6zriqRvfrZ9tIG80JWMHt40YW8aipBh5tiHyTNUwH6B8OpjzaobUs53TYxEnO18mcskdf7p5NSda/YcJQD8vjEDbZ0kHip03xeeYoEOr6DwnEH1zyyy4clE4Ep2K0PzoL/4Cz/z0lzQNA+DskPLvhWkaCM4IzmkLzzTqvAPBORLkyXLB0+trRsn0HAvBeSMB524zdZJ7++faI8C8IQbLse1YDs9KEIzwLP1cScC5dg6AO8th0Mw7o/V2BkSv5tTRaQLQv9vTCyePVCqnYYCOXGi1hxRQgF/xOetSAGeZ31587lVUwcr5s+GGtpmwqK7c8dD8Xt8QXLr7PwEOHgzPLCwCGFTuslLRtnBP74NXXoEnbOYKUzXSV44BZyfo0qrcUcLOOUFWNvNCdpqG9puB5oI7/jHU6Y80BhvC+8JEoZl+dpHGjIPn8D5ZlLbBb10wbQMU0zaoeg8BjAwBNC8ByPaBc7ya7YZmE7ZzmeDVnCiV1gFs+WhlCKB//wIB6KOVpstSS7/QtYyJVBGuvJO98PtTJ+H3e18C8JLrp74etjRPh82z6mDx9ArRaZM8aD4zMg6f+e8/w/+89EdV9wyBvF52QWnhTjxZM1sYcU5j+Z86QMFuQ7L3wwkR528trzo8vcBTFwrOAhdhFnTyC00zEHG+ZfWc2i69dVB81z+FgDkYcckIR4+DofJj362KPPMiuBh5Nh95zsoGmL2UXEgl1tjOKbpl2GQ7J3bnMDxfYflM9Gq2Q/1HYgDNMCrWkYyBKDQoRI2VzmeFv7QwGue80nq+MEhvJSC9oq4CNs2utR2a/3LoFNz7qz9D7+tvygMz3cexMdmfJH/BvL1DD1/bjicngjPWQvqCM73AX8x0cG7yZcG/r5sWg2IROLO8dA2d4Dy4anZNkZ5jL/vIv3SQNXeyQbY1CsU8QEZ4djg8UzW1AFQ0OAyawfm2c3IdE5kM7AwYr4ZOAbzyYi+887dKye9vlyWdGjibWo87P9hQakdpVQXMLS2ELTProLGsAGaUF8QFzdHqIf+dGR2HX71+GH785iF45bW3lEcC1BFt3rR2eeOvbz/vIJ6UCM5YC+kNz3sgbGqfseD8kcaCM9uai4rjAWcIWdMFufmPE3BW/HNd1c4vFpHlOthgkC5THyqHxrmDPChGeE4teK6qB5g+n+f3DJBZXs2AtnPJ1uhZgH3/3Qvvv1IAgUCOYUu6GE06A5zV8uWpKioorMLcaRVQnuMNAfTq2nIoEXhJM4Lo8jt9Q/D66UHoJbD86tHeMCSbBWWMNqMQnDMWnBvIG/V1LsxUcP7xhtq+wmxXmVlwZqOezlFwbiTg3CM+zmn3PN5AIHgnmd9B6zu0bDAYg+AEwTO3HMJzguE5vwhgxmKA3HwZMAVQ7Qwom28MKuDKg2ZBdBEAvZozXFMTAG//fhBefTkI46PFloCz3DytBzbFnH0VRw61VKNoPwsHnh/opIHiMw1WQXrr3M0tFPA6M/X4aZpGkdddpvdmrGOxvWJorrvvifbaT3ypy8Uw7zOM625SRmEY3hnCC65IuUwI9BlXzP7IxbNCIutFYT/8nbccKSP2XQho/OWEdlFaf2YHGSDT09iprCeZ56DhueWiwoKPjPq6VGcHAF75P4DBk86CZlCIeqNXc3qK5t7PXV8IVz9YDBuuGYXCkj7ZBz2BLB66W/KQG2d5mvufXLW2zL0PTzxU9I6LEefMUDJTNpIZcb67qTCUpkHP8nDkNhxxDkdyQWZEwKBouiTifMXKWTW0LqH+ga920Agzva+G2pFIdDkYiSCz0eCvdZHn2HReA5XKkWetbfP3W3EboDxP9bPJyDP9XjeLnAAtGerVjLZzjtOZowBv/O4w9LxWl1RLOsm21M5pjc6tDlHBgvl7Bx++ph1PMhSCc+aBM+3MRlM26jMJnF9or+sr9NI0DUvAefCGrp+1kc8UljvI90IOdqMMh/CcOfBcUgkwdxU52bKk0X4laFYEafRqRlkgmsbxzh8H4Y0/BGFstDgKxoacNbQA2Cw4G1gv2eK8nBsb+9h/3FGOJxZKwDRYBZmhcze3UEf3beQ1mCnH3OzLgmKfu8yq8n73ztFzLhdNx2DuprdWdySFgmFcMV6INFSuyHQmylLWpW3EpgsbnZRN29DatlwkKtlpG/R7fy/AH39OLq4zDoJm0OHFjF7NaSuaxjFnbSFs+0QxbLqBDuZz2HghZtMpzKzHqK+XTJWWjZ7XVLcUTyoUgnNmwzONOLeTtv1cJhzvpdP8lg47/uP9b9WELhpXDFITDc9h5k0neDaQ45wK8Dw1CfDXXwP0vguSIdEkkTaZYxC7EhiBZrl6sd2rGXSkoKCSooomgA031cHlHwVYuH4QvL4zWnxrmmFZ21ayR3n54+e1zZv7P7dvQus5FIIzwnPLvptrim7LcjEj6X6sSytzLXtAONI/BKdGx4Ebv88ueI4xb7rAM6QXPHPT3vwLwBu/BwhMqXg1K5SlajunAs1qkV1BdNjIfDUnBZn9Qa9m58uXDzB7TSFcvrMYzvsAQN3sw+DKGk34dvWkgUqGcHVAfRWXTfpmz12G0IxSEg65nYF6YlPdc/C/AM8eG3xyLMh60/EYS7Nc0FDkrePn8FOQ1JPTz8j89fDXr/eAmwkRczhXmvxH4ZmmHNMyKTwHQvnHrlCOMhNZluY1UxgOhp5RwznPoe+ReSEIprnVHGMFw0+zwcgQ3Fx54VG15YfnZiI7LB6em1sulgrNH56bFQKdrcNz84bC1jMct5OH5+afNHSobpq2sWAdQG6hDDTb7dUMBueD+gAnSiDOqNiPoZyl4mkAK7bVQWCC/pVkFN7b3wenjtQJrm0lwDUzPLfSeqa3lWBVTJvwzV+wdPTvVh/AkwWF4IyShecfHB98eiTApp0/5fqSHFPrUeRkZf6E+KejJ0PvCYVnUh4TAVuEZ4fCs1w98WF4+CzAH34OMHc5QPVMafRaCZoF8+QgFQykRiTJqxlt51JH7myAaXNzyCsC0e+Nwvt/i0G0XvgVnIdxwrTgvpAEzWwZu3rTujk/3FiBkWYUgjNKHZ5/dGLo++emgmmVtnNRfT7tFFPHxxZWSsm60uz+dvgkjE4Fo5CK8JzB8MxfTgme6bTX/wgw0Aswa0W4wxaj4IWsajuXYl7N6KCRwhA9h0D0nDBEn3yfQPQBAtGH6yyNMjtV/gKABWvGr25tRGhGITij9MLzYQrPzxB4TpsWr7nY57eqrN+/dyz07qIRORdYBs+hMiGN4FkpEpWy8BypJ7PwfJy0wUP9AAs3AuQVJterWQLCemznQB3EEZrTE6KrZ+eQVwyij73TB709ZeQGkxP/BhwG3LMWA0yfPXb1jGKEZpRuoY8zKqSP/O/h6xIFz3b7OC8ryIYvrauV8WiODKsNMY/m8NDbsWW4z4Fg2Ht4eHwSPvajF0PfOa/lsNdzGHwDnD90BKi48kLzIkNlq/k8c9PlfJ5Dn3n7x83j1uN7TEfXS7bPs9ZyqmUaGI7bNp9n/n6Jvivtq1wZ81cBTJsVZU/0akalnOhfUI6/1QenDnnh7Jl8eU9mmfNF60Er2qmEsc/LuWE2eUCYC1BUOHr19Ly5CM0oI8KIMyqkdIo8ry71qT8tKuQxy+lvh0+FnS4iQWIKsGYizxFClUSeuYh02kSexbnASuulTOQZePsF5iLPVK/+DuDMCYC5q8NRPSPQDCD9jl7NKLtVVElfZTCXRgUmCUiT83noOMCpowCne1WDycqyMac52xse8bNiBvmcC5DrQWhGITijEJ6p5pd61ahZktcs56IRAlsCPa8c7Yt+jweew8DqQnjOZHg+9j7A4GmAlvUAhRX6odmwF7PGfFO2c+jVjOLJ7QEorQu/GjmQJvA81k8g+ngYpCfG9aVfsKzIRtJiWK6oASipByiujk1HaEbFIUzVQElkddqG3aka3ZsbwOt2yadq8IfWjqRqUAAKBIWpGvTz8PgE3PP8b8LpHWwsxSKetI1wOxHEtA3+d9l5aZy2QTVvBcD0BfJgbNh2zsR8Nds51UFQAL2aUfo0PkxuomcITA8AnCVAPTwE0H8SNHPzo/0mTJ5XVbXh6HhuKUC+zMCxCM2oOIURZ5REqRx5XlbgBV+WC1gR0ygFMuSChJyi0eZQNNYVgmS9kefwepA+kWcxAKZ65Jk7Zrsjz/Td5wM4eABg6BTA7FXhPxvHZTuHXs0oB8qbF35BrQioR8JQPUFeU6PkNUHA+kzsdOsn18XEhDoYcyquDF9XuQSQvbnha0lNCM0oBGcUwrNQa8r0j+ei5Ub36rHTUeA1A88UT9MGnlmdEJwq8Mzy4NcuePZ4SOPujUXk+48D/OlnAPPXhQemCK0vE91VheI4vZr58/TaziE0o+IC6tzwC8rt3S5CM8oi4ZDbKFV4vrqq4Hp/litl8nlaynKiQ07Hq7dPD4WA1s0Nn+1iwpAMEJkeHiI7/HJFh8Gm8BwdEjsEz9LhucPs4ZIdnpvjErnhucMsxSRneG5ux4wOz613Pdl5CRyeG0B9KGy1zyBaHzQixl5fONIsPjcnxqfgT7/4OPlEXsygcDs2eDUL3DZkQBy9mlHpIIRmFIIzCuFZXnUFeiPO6g3/a8f6YHhyKgzEGvDMfU4veGbSC56V1k00PGdlAeTRP1lnS6E5yJ6AQKCZffmHu9jOi3eR+e3ktV9Y33q8mNGrGYVCaEYhOKMQng1qZo4HinOzTa0rjlK/dryfB8WZCM+QXvCstm6i4JlGmP1+8mO7RWcby8JU4Nvsb56pZn/7g2hjzj5y0T72Mxe2kTIed6RXs44HThQKoRmF4IxCpQg8Lyr0WlbWu31DIdCUg2f6Si94ZhCerYRnlzsMzD4ZP/FgcJRA83r2/569TencYz9zwU7ytpFs46DweGTqX3U+gKVezQw2FyiEZhQK74SotIHneUUe4cktk+ssHy8TTj0xOAKnx8bDZcjAMwe96QPPgPBsFTz7yMNbQX44RUOsqam97IvfzSXQ/JLWucx++vxu8tZGXi8IQVcm8qs4H72aUQjNWBkoBGcUwrOCGi2KOPf0DYZBOPJCeEZ41u5kSN7zCTDn5kkfz1h2CiYmtrPd32s3ch6yD28aIK9tpLwrSPmD9no1o+0cCqEZhUJwRqU1PNcV+sR4pClGZsn3TofTNKKAnGbwzL3SBp6NbDsR8Ew7/hUXA3hk8uunpvYRaG5m937/ObPnNfup9j1kezT6vNc+r2YXQjMKoRmFQnBGpTM8F+VYY0t+8My58MWRpvAcm54m8Gx021bBM607mpZBI83SgWJYAswfZ3/91CICzXE34uxD63vIi7puUOu6QcO2c+jVjEJoRqEQnFHJh+drqgsdAc+bS3MsKad3aATGAkGeg0Zqw7MrGmFGeLYUntWizIGpEwSaG9n/fXqX1ec5++DaXeHoM7Nfv4MGejWjEJpRKARnlCP05Y21joDngmy34jy5AVHk+jrRaYf6z4adMwT2c6kLz7F1EJ4tgWd6zIWFAPkF0pMoFGUef4z95e5qAs0Ja8DZB9b0sA+spvD8KHo1oxCaEZpRCM4ohGfDainW79/MqEw72H8uCq8IzwjPAnimw2WXlgGTLZfLHDgB42ON7K+6HrLrnGfvX9VJ3haRfdtvqe0cQjMKoRmFQnBGpTc8l+d45CHZoI3WocHhEMCmKjwzkXUQni2EZzqASWERuAoKZSwOWRbGxx9j/+ub1ez/PGl7483et3Ife++KNrK/j0Z+cGF9MujVjEJoRqEQnFEIzyJV+j1xlzE0OgFjkwHIYlwpC89h9kF4tgyevT5wlZSCWy7KHKBR5vFG9r+/81Cyrz32E8s6yf4uIh/3o1czCqEZhUJwRiE8a9xH3XGXcersaBSYUwGemch+pA08Kw4LnQR4doWjzJ5CaZSZZSNR5p99vZpAs2MabvaepfvYe5ZEcp+5Y9GynUMHDRRCMwqF4IzKOHiuytcx+IlGRO3kubEo7KYCPHOAnDbwLJieRHjOzQNPWRlke73ikiA4OXkCxsYa2f/65kNOvf7Yjy/qJHu9iBzTflXbOfRqRiE0o1AIzqjMhWejzCyedmhgOAK2CM8ZCc9ZWeAqKQFfQUH0uKMwygIbHB97jP2Pr1YTaHZ8o83ubNvH3t1KB015lBzcIHo1oxCaUSgEZ1SqwLM7sfA8O9djSTl9w2M8sHUePDOR7SI8JwCe/fngKysDr1f6l4vJycl3g2OjjezPvv5Qql2D7McWdsZGHQS0nUMhNKNQCM4op8PzVQmG5xl5Hll+Aik6KWp8KgiTQTYGxA6EZw5QEZ4thGcCytnl5ZDnz4vWMadgMDg1OTb2cXbPE83sf34jZRts9qMLesgrMuogP/qM0IxCaEahEJxRGQnP8SoabXYxjoDn0PrpBM+KVmhJgmeXG5iCAvCXlIAnSzpU+/jY+N6psbFm9j++uitdrkP2w/PoqIMN5OMLCM0ohGYUCsEZleHw7IrDTuvc2CQPgpMPz1x5aQPPUah1ADx7fZBfWQH+vDzJeTA1NTU6NjKynX3+S+3sT7+Wdo01e9ecAfLaRj5eQV4IIyiEZhQKwRnlVD3OwXMSOwwqDYhydnwqBKwIz2kMz1nuUB5zYWlJ1AubWy7Isuzo6Pieief+LZfd88Rz6X4tsnfO2kPeaO7z43hnQiE0o1AIzigHw/MVVclJ22BUJp4dn4iCbDLgmZueLvDMvRwBz7SOCwqguLISfF7pQCYTk5MnRkdG1wd/vOuKTLoWCTwPkNdOoMN204FTUCiEZhQKwRnlUHiuLnBUzvPwRCAKy8mAZ/70dIBn/nJJhWdfDhSUV0BxgV/ym9POfyMjI49NPPuv1ezzX3opU69HAs/7yItGnz9OXoN4h0IhNKNQCM4op8FzewSeE5C2YSbXWeCokWB4dkejzOkBz65IGY6CZ48H8svLobyMdv6Tjio5Ojq2d2R0tDnwwy8+hFdjFKBpR8gGCHUeRKEQmlEoOWVhFaCSCc+u7qPw/InBZ0YCQVu7+VPoZCHG7H0j4xFYdUEgGAwDadAVerSMfufmhciTwmQQggS4KTxPucKfQ9BMlqHzw+uFvwdZNgTPdHqQfHdz5UNkHq+8MCgHI9tmI5BL1mNj5XHlhOEZQutx8Ey3S0eFZiLlkI9heKb7QcphSTmhXSHr0m0zkTLpIwxZOgTPdPO0DLrtYOQZm64XnsVEyg//ZKHlIvsDtFZZDp5DM2PLhReOwDPdNTYMuZFJ4R2NnAYsK4Rl/nfBcpF/eFCd7fdDSYE/tFi4jiD6S09OTg2Mjo1fFvjBv72EV6AsPA+Qt23M195qJ+9d5FWPtYJCaEahYsKIMyqp+mJ7TdJyngUXQiSq6uZHlxMYeea2lS6RZ26/khl5duf5oaKqEkoL83mLhudNBYJT50ZGHzv31OeLEZp1AXQ3eTVAaORBTN9AITSjUAjOKGfBs50+zzKxbbfblTB4dkfSGdIFnpnQfjkInrOzoaSiHKaVFsmmZQyPje0dHhltnnjmnzEtwzhAd0LYfQPTN1AIzSgUYKoGyiH6tw01z9FBgV84PvjMOYNpG38cGIv/QoikYkAAQikRVqZtBNhY/nQ6pG1w5bnoPiYzbSMrCwoK/FCSlxvad5YVPneNTkwMjI2PXzb+vX/CCHN88NwDsfQNmgfdirWCQmhGITijUA6C55EAqxue+yaD8jP4ya28SZLFGOvgOVROMH3gObS7kc07Bp5J2XSI7LJ8fyhgLQZmmpZxdmT0vtGnP78LrypLAbqbvLURgKYWdp3kVYi1gkJoRmWaMFUD5Th43hoaJIUxlLYxPhUUwbA+7qZLTQaC0RQICs/xpG1w0+XSNrjPqZS2Eb5JMLJpG1x5dqZt+PLyoL66EmqKCsDjEo4ISB4Q2KHRsb0nv/FpD0JzQgGac9/AwVNQCM0oBGcUygnwfHmVMXg+OTxpensetysKrQjPzoRnj88H06dVQlNZMeTw8pi5Nc+Ojb975txI49B3PtuOV5At8MwNntJIXnuxRlAIzahMEaZqoBypf42kbfzHCX1pGydHJqG2INvgVoS5HFy6BE2B0Ju2EVYQxGkb3HKplrbBHY84bSOUfkGn2Zy24fF4oKq4AIq8Xtk85pGJyQECzXec2/3Z5/CqSQpA95C3drSvQyE0oxCcUSiHwPPPTtAOg+rwfCKOiHMYmsNQaRSew9Nd6QPPvOnJhGe3Jwsqi/KhKi8ndIyhauJB83ggODU4MnrfmW89gikZzgDobvLWQAC6A8IdCDH/GYXQjEpLYaoGyvHwvCXk86yetvGb48PxgbM7ln6hlLYRTtGQpm1w4J1qaRsxe7lwHTC8/eCm25224XK7YVpJESyuq4Jqf67kdxoLBKZODY9+u+dL93sQmh0J0F0Qzn9G/2cUQjMqLcWI//SJQjlR9+49et3PTww9cy4YZFzRp75YELrc44Jfb5kR+XN+ODoZilCyYRcMbjobmR6MLMN9737vNJwenYBAIBhanopGOmkUl2qKfKbzqOg0Oo9bLshbLrQt/jxWuNwUG57PLRtgWd56wWhUlU4PivYjKFiWje5LeBuxqCy3L8FQ+RAth46UyK3H8vaLDdVDMGpcwfL2g5se/R6JPIfKpyUGY+kT/FQKNrRfwPvOWy5SRuzWE45cVxTkQU1+XjiKHflduN9nghzg6ZHR34xPTu04883PYAOcCo3L196iAN1JXjuwNhCasTJQCM4olM26n8Dzz3qHosNz88GZRjl/dUEDlOZmGQZnOv2lntOhPOkQFCM82wbPFJIrC/1QS4DZzQNmPjifHBndNzoxua3v6w9j45u6AE3/OrAVawOhGYVCcEahbIbnnxN4poOkiMH5y0uqYE2tPwp5HBTrAedXe8/Cm6eHY1AciEFwusBzFFgdAM80XaQ8PxemRyLMrAiY6evUyNi7IxMTHb1f/SQOYJIeAN0O4Qj0BqwNhGYUCsEZhbIZnvluGxScr632w4PLq0yBc8+ZUdjfO8QDT4TnRMAzzcmuJLA8vSAv3NEwsh9sZL84YB6emOw49sQDCMwI0CiEZhQKwRmFsgKef3Fy6JlzU2F45ux//7BlRqhDn1Fw7h+dhN8dGaCjzqUFPMeWcwY809+HAnM9TcmI/D6h/eOB8+DY2MCZsYlHDz1+H3b6yxyA7gK0sENoRqEQnFGoxOuB3xy97r96w/DMgfN3Vk6D1opcCTizEVDlgzMHjhwI/vLdfgKWQYRnC+GZOmVUF+TBdH9uNIc5tE0eOA+NTw70j40/+v4X7kFgzkyA7oBwBBoBGqH5/7N3LmCSlOWhru6ZBXZZmDGJeWLU7BATk5xj3ImP8RgPyRZIBFGyzVXk4tRwvwjbgNwv28v9ImwviHKfGpGLIDIriILI9iYm5hiP9sT7iYm90cQr2sMusJeZ7vN9PdW7Pb2zOz3dVdV/Vb3v8xQ99M5U/5fv+/+3qv+qAkCcAcKQ5/qyjff+zkLr2ne9foY4b1832yDOtfebxLn4s421JxAiz53L8x7ptPX7epeMvRfWhLlWtvrBiyfOZRXmVzev+uGt5yHMgEAjzQCIM0BY8vxs7YLBau1WdS8csp+194L0vMX5Jy9tsb77y5c9QY2WPDfur5vyvEdvjzXQt9h6nQhzteHOGI3i/NLWreUXX92y6vu3rECYAYFGmgEQZ4BuybOeeT51yb7WKW997bzFefNkxfrHn7y0Q5CR55blefGeC6w/EmHuk9dqfSlM072Yf/Hq5n/fuGXbx75z0zkIM7Qi0LbFRYRIMwDiDBCcPH/p5xtrt6p74eD9ZExP7SzOdUmcRZw1F77zy1esn7+yzWh53v43Bsjz7y1eZL1p30W1M82V7RdhzhTnX4kwl7dsc751w9ncJQMQaKQZAHEGMIVLRJ6fE3k+7g2LUyf9+e/MW5x/s3nSGhd5rjRIMPI8U5736OmprV1+4z4Ltz/lr+qVoy7L26RgL27eMr5p27ZzvnHtmQgz+CHQg/KStXgSIdIMgDgD+CvPz/9i4yMPL3tD6rf36m16fPNMcZ4WvpmP3/7WL1+1frNlEnlukufX7LWHtd/ihdZrFu4x/V612nTP7Kq1edvk5Iubt/7jy9smh75+zelMqhCEQA9Y02egM7L10SJIMwDiDOCDPL/46pZHbnzX76capbgVcX55W8X6vz9/ebvAdluet5ejC/KsF1u+Ye+9rDfus8haMOP+2DPF+ZWt21799eatDxeuPOkUog9CEuh+a/oMtGNxISHSDIA4A3Quz3/xmt5HDlyyb2o+4qz/9pONW60fvbQlsfL8uoV7Wr+z1wLrtXvvueOgo1LdSZzLr2792UvbJm9ad7nDBX/QTYl2PIFmHXRQLOzddNSSxW9BmgFxRpwhxlwm8jz0p32PvGbPdGo+4qwi+a1fbbFe2joZqjxv/7kL8rxXT8p6/aK9rNcu2sPaoye9010x6uIsda+WN28dl7Y554XLh1i/DCYJNOugg2Cv3l8fNbD4bUgzAOIMCSD/tZ+ddMyb971PVDA1H3FW3/3ur+Mtz7oU4/cW7mm9bvFe1qIF6e0SXZ3RHtOvL23eWt60deqJz114HMsxwHSB1mUcjifRLOPohD16/vuoP9znXUgzAOIMCeKJ7/7q4nf83sIbelLTMV/xHvdcF2eVza1TDcsQ5N9TKav2+Ojvl7daG2Mkz9IA1u/utcD6Ldn0gr/6Y7Dr9W4U523yxsTmbeObtk3e+NRHPvhpIgkiKNG2J9GchUaaARBngFZ5+gcv5t762r2ulKDXdQg7xLlq7fRwlPrPKpIqvf/x0rbanTb8ludGWQ5SnvdMp6z+BT0iygusfr3TSKXx7PrO4rxpy7byy1snn3h0xdGcXYa4CHT9LLRuS2mROUinvnfUm/veizQDIM6QYL7/y1c+sChdeUQCP9WqONd/51ebp6wfb9rmCan58ry4J23ts0eP9dsLF1iLetMzb8s3izhvmaxMljdvfVpeb/30uUeydhniLNGDDRLNLe12Zlw2u3rmm8s0BQDiDAnnu794Zf+9UpXnelKVhfMR52ptOUfF+u9XJq0Xt1TmLc/194OS573SKWtfEeXFC9Ky9dRuH7fjtnHVWcV5y1RlctOWyW+/Ojl144NnZViKAUmUaL0fdH1Doi1rrR5QIM0AiDPAdr7z85eX9KaqX94zNfWmucRZ/q92oWDjBXO6Hvpnr05Zv9kyZW2d7I48L0ilrH0WpGqSrLLcm7J2euT1bOKsd8V4acvkf2yenHr8vtMOu5RoAJgh0Y5sdkIlepUIc45IAECcAWblWz/deMOidOViyYPUbOLceIeN2e40oYL60tYpq7ylYm0SgX51Mhh5XtiTqq1T3jNt1ZZd6K3j0k2iXPHEulmc9T2R5MlN26a+vXmyMnrXSe/lnssArUl0Us5E69IMPctcpOcBEGeA3VL8741L0lZlVAR62fTSjPmJ8/Tt7XaciX6lJtDTr7q0Y4tsr2zbvTzvKSLcm5peQrF4Qar2uqg3ZYkb1yS5cYnF1Ky3i6s/7a8u0JbK8qsbt04+K2V69I6h97AMA6B9ibYbJDpOt7ebkC0nwszBNADiDDA/vvGTif1FXt0FVuUPLb14sEVxrnp3r2i82K7S/LuVmcsmGs8KVxoeMNL4N1M7nf3eIc5W85pleUskffKVbVMbtkxOFbZMVa9ZfcK7uRoewH+JHrCml3JkrOgu6VBhVlnOs5YZAHEG6Ih/+XF5iSRGfg+r8v60Ve3dnThvF+U5xLlarT/Oeg5xtnacwZ5LnPXCvlcnKxvktbBtquJef8wy7oQBEL5ID3oCbUdApNfL5oosu/QcAOIM4DtfLf36Az3VyiVpq/In6Wp1YZDiXG1a+jEtyNP7m5T/bJ6sTIgkj2+rVL+6dXLqrtwR/5szygDmifSAJ9CD3rbMAFke002EuUQPASDOAOHMPj/85RIx2jNS1cohaas60GNV++pLOvwS561T1cmtU5VNWyvVkj60b9tUdUz+5skLD307kgwQbZmui/SAt+nPfp+d1nFC5bjgbUWWYgAgzgDG8Oz3frqkWqkcruKbrlYzuqzDE+I+lesdFw5aereNzduq1R9UG+6AMVlRMa7929fPPPDPWWoBkDypVoHu97bBpn+2Z/mTQsPPKsW1O2GIIBdoTQDEGQAAAADACNI0AQAAAAAA4gwAAAAAgDgDAAAAACDOAAAAAACIMwAAAAAA4gwAAAAAgDgDAAAAACDOAAAAAACAOAMAAAAAIM4AAAAAAIgzAAAAAADiDAAAAACAOAMAAAAAIM4AAAAAAIgzAAAAAAAgzgAAAAAAiDMAAAAAAOIMAAAAAIA4AwAAAAAgzgAAAAAAiDMAAAAAAOIMAAAAAIA4AwAAAAAA4gwAAAAAgDgDAAAAACDOAAAAAACIMwAAAAAA4gwAAAAAgDgDAAAAACDOAAAAAACAOAMAAAAAIM4AAAAAAIgzAAAAAADiDAAAAACAOAMAAAAAIM4AAAAAAIgzAAAAAAAgzgAAAAAAiDMAAAAAAOIMAAAAAIA4AwAAAAAgzgAAAAAAiDMAAAAAAOIMAAAAAIA4AwAAAAAA4gwAAAAAgDgDAAAAACDOAAAAAACIMwAAAAAA4gwAAAAAgDgDAAAAACDOAAAAAACAOAMAAAAAIM4AAAAAAIgzAAAAAADiDAAAAACAOAMAAAAAIM4AAAAAAIgzAAAAAAAgzgAAAAAAiDMAAAAAAOIMAAAAAIA4AwAAAAAgzgAAAAAAiDMAAAAAAOIMAAAAAIA4AwAAAAAA4gwAAAAA0Da9JhXmda9/w4C8DNAtEAQ//a+fFGgFchmMoSQ5WaIZjMzfQXnJhPiRZdmK+ioxUaQHYI74tOWlX7bBMMcr2cYkPsuparUadoW1srZX4UFvcl1KKEBIjMuWk+Afoyl8keN6HtcHMnIZ2s1LlaeCJ1AFnaBolq7ktSMvI10swoQKimwuJzugwRsd72BuWReLskHnu1DE+fVv/IP60WuGiRUMYc1//fg/szRDW7nseKJMLkPQMq3i5EquchYyvBzXA5Y+g2IgK/2PQCc3HnMaAwbF5JrAxPmNSwb6PVHOMsGCoRzw4w0lBuTWcjnrCfMSWgS6gJ7pyatES85yJjq4XNcD4nUGFm2NbDn6PlGxqCdpXAP9cb3v4twwyZp0hAAwG6MyEDs0wy5zeUAnK9mGaA0whAlvMs1L7pZojkAOkkuGzt169tlGnhMRh453oGxiHI76Ks77vemPcggzRIgNP/r3Hw7QDDvlcf3gdyWtAQYLtE6seclhRMrf/FdpGTG0eDV5ps+Jv27Gny/i/KY/frPtnQXga1yIFP/+b/8vRSvMyOWMl8sc/EIkDn71IE/ymIt9/R0HdE4fM3Qc0D7PSJ+z7j1+cWe8NEvcdX5XjT/+kz/Vo/4VdDlEkX/7wfcR5+k87veEeTmtARFkVAVa8pkzkf6NCbrGtGCoPOs3Drb0N/Icn3gzXprr40vb4vwnf/Y/BrwjUi78g8jyg+99N/HiLLk86OUy3xhBlNHJzZGcRqb8HRuMlmf6OxZxpksDV5t6UC4x5jS+0ZY4/9n/fIvJyQTQMt/7zrcTLc6Syzog5MlliAkqU47kNUs3/BsjjJdn6W/kObrx5VrmXoA+KrHlNL85b3F+y1sHdScjdDfEgW//azGx4kwuQ4wZltx2aQbfxgqTv5WqHSxJf3OwFL24MlqaJaac2f5hXuL81sG3MdFCrPjX4jcSKc6Sy1ybALGXZ8lv5Nm/MUOvgyhY5i7PpL+jFU9GS7PEkrOrf2xZnN/29ncgzRA7vvH1ryVOnCWXcxa3moOEyLPkODLl39hhvDzT35GII5OleY3E0G6fKtySOL/9He9EmiGWfP1r/5wocSaXIYnyLHmOTPk3hhgvz/S30bGTN1iaW4qdOcX5ne/anwsBIbb88z99JTHiLLmMNENSOUByvUAz+DaWmC7P50l/5+kpYmY+0iwx09IB127F+a/2/xuTH78J0DFf/crfJ0KcJZc5AIYkU7v7guQ7d1/wd1xR0TB2nar0t0MvGREnxkuzxIrb6i/vVpz/2j5QK7qMboe48g+FF2IvzpLHOmipMHCfZkgytYcYSM7zkBR/xxej5Vn6G3nu/vxjtDRLjLjz+YPeXf3DsgMPyqXTaaQZIOJIHrtIM0Bt4s7JlqUp/EPFVHzBMlSeh7Rs6194HnnuAtL2/TL/mCrNtdsYSmzM+zaGs55xPuCgg/Vr3W/S7RB31j3/bKzPOEsuZ+TlSXoaYEdaSN4XaAbfxxrXMvjMs/Q58hxuPAxY5j5durZ0S2KiraVbs4rzgX97SNHiUdqQAF740hdjK86Sx1yjALAzGyTvB2iGQMYckx+dXFuqI33PUp3g48D4p01KHLR9vcNO4nzQwYfqURlX3kMieP7ZZ2IrzpLLOYv7NQPMxirJ/RzNEMi4Y7JD1ORZ+h55Dq7/jZdm6f+OLhKeIc7vOfT9nKGCRPHcM0/HUpwllwfk5Uf0MMAuJ9AByX8EKpjxx3h5pu8D6XfjpVn6veM768y4ODCdTmeRZoDoI7mcoxUAdonOczrfkScBIHLiHvL+v7MMlWddhlqQ8tlffPpzyLNPSHsOehcCmuiQerDkSH/7cjvKGWecD/27TMni6ntIDuuf+dyYHbdKSR7rN0e/oXsBdkvtrLOMAchTcGORXpzsGipTG2TLSP9zb+/O+1nn0TGDpdn2M8+3n3F+f+ZIJ53uQZohSYzFsVKSx9xuC2BudJJ3rOlHAEMAiKyMiVuoVBUMlCr1nYKW7+mxJ5DnNvHc0ehlOdK/vh4c9+6YbNMOIQAJQs82uPEUZ3IZoEWyiHOwqJT+3RFHmyrPWp6Clu9zn30ceZ4n0m4izWmjpVn61fdvlGpLNTJHfWDA4kIiSA6aUJmxz3y6FLeKSS7rBLWOLgZomb+QsQBpCn5sMv7CMeJgXv3pWIZfACr9GcgyrNoZZzliyBhU4fWEJARAydsKn33skUJcK0kuQ4QYNESiVABY3hQwKqVHHPNBPbDXJXKmLQutnXmW8jkyP4zRW7tH28ngM82jms/Sj4Fdu1AXZ7vLFV0rm/uZRx8iYAGiLc46aOUllzlzA3Ny1LHHD3rS2s0nztn0RDiIzBS9Pi9Y5j1kTeX5SSnfsIxfLr21y5zNyTxj6vMBRqXvnKA/pLZU45jjP1TtUiX1dHr2sYc+WSAcATpD8njA6t6SKz277Egul+gJaDN2da3x8i4V4TUSu9xdI7z+7jdUnusMSzwgzzv3m2sZ/Fh16TMnjA9KfeCEIT3a7saayNrp9EcfdBmsAHzg2BMdHTS68fXZqOSxQw+ADzHcrUc2Hy4xzDee4fa18fIsMYE87+gvo6U5zDmotyedHuxGJR8afYCJFsDXZO7pRi6v+pR7f47WBz+QyS9/gnNyuQsHgJo7iHO4fV2WvrYNlucRKZ8l41vi5VnawZX5xVhplj4K1Sd70+FPtusffOBepBnAZ1LhHwSPSi4jzeArKionnnSqClWYE7VNy3elr/UgaVD627XMPJs5orGYZGfRvpG5xVRpHpa+Cf3ARs84D4T4eXrLF6QZIABC/vZI74PNnQggqFjW2NILXcO660Y/rd49VEydU063DJXnIS2be9/diXIXqbPmhCu5uNzQIg5Ln7jd+OC0MCCbFdKWl4qWGCYAAknmvhBzOSe5zPUJEAgaWxJj2RDjeSmt3vU+11ucjYbY5/PZhk467Uw3KX0hde2XOhdkW25of3RNmpVeKUCY91N0GR4A/OeUM86uHQCHxMR9d91JLkPQB4K65niElkgOD9zzCUfGMv3RyDPPWjYZ+5yYzyU1abYMvmiz2/NP6rSzzgnrVnTjd995+yBDA4D/nH72ubYV3t1x1kouZ2h1CCGudQJfFtLH/YXENfcfN6Pfu3V3lVbQW29mJFbKMWx3k+90okt9s9LubrcL0psK7ywVAxJAUEfA4eUxuQxhxnWY4sw6Z0MQOcqfcU62G3dXaQWNx4KUz77rjnxs5Fnq058y90xz7ZHo0t5GzD29PT09YX1WieEAIBhCzGPEGeIa12AQIknu2dkLLEPlWeWyIOWz78zfGnl5lnoMSq65JkuztLMx847eVYMMBYi6YISbx1wUCHGMazAMkSX33PMvNFqepXz27bfdEtkxUco/2DN9prnPwOLVpFna16iTNWn9ijesDQCCIcw8JpeBuIawEGnS+wgfLttE2PHQwrZUlzes+MjFkbx+S8ut5Zetz8C21f42TpqV3p4eBguAqEMeA3ENcWXNR28aO//iS21r+sI1086M1s48a/luu+mGyCxjk/IOSn6Z2J7KuGyOqe2ZTqfSVlgbAASUyCHmMbkMxDWEjUqU9JEt20TYcdHC1idb4SOXXB6JM89aTi2vV27T2nJc+9nkg5BeLr4AiD7kMRDXEHc+euN1xYsvv8q2zDzzrOUpaPluuu5qY6VPypfxLgQ09Uyztp/Ra8Z706zrAog85DEQ15AEVEovvTKn8qwPyFliWPFq8izly9xwTa5gWttJufTpjKY+VKgmzdJuxl9oyagEAAAAkUHkSs/oDnqyZRoqz+tUUk2TZsvcJ3FGRpqnxTmVskLbACAYwsxjchmIa+i+PJelz2zZxkOPk9a2kUuvWmWEPNfKIeUxtJ3Waj9GRZqV3hSDBUAM/II8BuIaEibPV68sX7byatsy9zHRI1I+6/pVV7ndKoB8vpNSaTaTUWkbJ2pxl9aBKawNAIITDHIZiGviOmmIeJWl72zZxsOOlxa3kctz13RFDuVzc/r5hrZLJKUZcQZAMMhlIK6J60hzXe7KujyPmirPV6y61g2zTfTz5HNXmirN0mdOVOONpRoAMREMAOIaksq1K6/QNbLOlVdfp/87ZGARh7Rs11x1eeDCKJ+j0jxkaFeNhtEGQZJOy8AU1gYAASVyiHlMLgNxDaaiUiZ9ORp27LS4Da285no3yPrr/vVzDK3/eVGX5tq4xBXLADGAuw8AcU1cQ41VV16md5EYNfQuEkMrr70hEHmu7VfPNJtZ72Hpl3wc4oulGgCx8AvyGIhrgO3yfMWlTu66G0vqkwYWb0jKNiCvmdzll3R8GzbZV7+8jEm+LDO0O4alnm5cYosnBwLEAPIYiGuAJqG8/JLc1TfcrPJs4u3YVHILUj77qksvalue5e/7JU8Klpm346tJs9TPjVNccVcNgBjA3QeAuCauYWdU2qRvhw29u8RS2QrX3HhLfzt107/Tv/f2Y2L9YifNCmecAeJwBEweA3ENMCtXXnKhe93Nt+qPJp551jPFBSmffflFF7R85ll+3+QzzROyaX2KcYwnxBkAwQAgriHWiMS5N3x0tf6oF6j1mSjPUj7n0o+cN6dsyu8ZL82t1COy4xJfgwFEH77SBuKauIbdIzLneg9KmTB12caNt+YHd1cH/Xf5vaKhyzO0XWMtzYgzAIJBLgNxTVwnhksuyBYNluc+leebblszqzzr+96a5iWmSrO2b9xjiKUaAHE4AiaPgbgGaImLz19RvCV/hy0/Fizzlm1oeQpavguz52yXUPn/QW95Rp+BTbpBtkxjeWMtzikGJoDIQx4DcQ3QOip5H739TqPlWcqXk1eV0UHJhZyh0jwum/2Rc88uJyV2elMpBiaAyAsGeQzENcC8ENkr3nrHJwY8eTbtQjuV5NWGN2FNmi8458xykuKGpRoAMYA8BuIaYP6o9K2+827bUHk2XprPO/v0ctIqLuLMBREA0RcM8hiIa4B2UPlb84l7kOd5SvOKM08rJ7HyaV1DFtLm3H73ff3EG4D/hJjHrDsF4hpih0qgxIAt23jYcRexba22U1KlWentSfeE9VlL9GjuzntHcvJaJk1jR+nsU4dLNEN3CDGPAYhriCXnnn5KWRzFtqYfkjJEi+zEqMzzTtIbIey7auhXIE8Se/Hk4/eP1hJLttxZJw8h0SHC2TIgrgE6R8RQT+w53nyGPDdIs8zrDs3AGmfwHx1oMneNfNI+Y/hDRZojHMhjIK4B/EMlUeYx5NmTZpnPkebt4sztfsB/9DY6Y7IN0BQhCQZ5DMQ1gK+oLN7jfirp8jx6mnMC0jxDnHtYQwaBsOS+Bx/JnHLiB8doihAEgzwG4hrAd1QaZS4ryY8rE1j9VTKH54iCZnHmqzAIjkFr+swzBC0Y5DEQ1wCBoPL4wEOPqjyPJKjawycdf6xL788mznwVBsHB7QfDEgzyGIhrgMBQiXQffsxKiDwPO8cdgzTvSpx7evkqDAJjkCYIB/IYiGuAYFGZfPCxJ+Iuz8MnHnMk0rxbce7ppRUAoi4Y5DEQ1wCBo1L58BNr9Ue913Nf3KT5uCOXI81ziXOa+2QCRB7yGIhrgHBQuXz0yaf0dquFmMjzhGyZYw8/rEDvtiDOfBUGEH3IYyCuAcJDJLP4+FPP2DGQZ5Vm++jDDuW5Cy2LM1+FAURfMMhjIK4BQkVl87PPPBdlea5J8xGHvgdpnp84c0QPEH3BII+BuAYIG5XOtc9+OYryXJPm5Qe/G2lGnAEQDADiGiAcVD6ffr4wID+WIiLPNWl+/0E20ow4AyAYAMQ1QLiIhJa/sO4f9IFfUXg8d/a9B/w10ow4AyAYAMQ1QNfiNSriXKK3EGcABAOAuAboZrxmI1JULWeBHmtTnCvVKq0AEHHIYyCuAbrHl77yz468LItIcZdLed2/3f+dDj3XhjhPVRiYAKIOeQzENUB3+OLff1XP4K6OWLGHpNzWIX/zV8gz4gyAYAAQ1wDB8/nCP7lWNNY1zyrPUn7rffa7kOf5iHOlUqEVACIOeQzENUC4PPXCV6IszdvlWephHXbg/shzy+LMGjIIjjJNEA6cmQPiGiA8xp7/hzhI83Z5lvr0y6uTOeivmbfnEufJKY7oITC4T2RogkEeA3ENEDRPPLdeBTMfI2mus1y2gtTPPvI9y5Dn3YkzB/QQICRfSJDHQFwDBMvjz9akuSDb0phWUetVkHraRx+MPO9SnDmihwAZownCgTwG4hogOB79wrq4S/MMeZb62se+9wDkGXGGEFlz/PveXaIZEAwA4hqizEOf/3JSpHmGPEu9bZnHkedmca7wXRgEIM0nHnZQlmYID/IYiGsA/3nwqecHrOlvT5cmrOpa35LU35b5nOuVGsW5C0f0Gyyekx5HtE81ucac5e+hf0OGM3NAXAP4i7v2uUFr+kxzX0KbQOtdkHawZV5HnneIc6hH9MMnH36wS7MD+C0YnJkD4hrAL+5/8tmkS/MMeZb2sMXfkGcr3Ps4rz31iEOQZoAA4H7sQFwD+MO9n/0i0jyLPEu72OJxiZfnMJdqcKQCEBB8pQ3ENUDn3PWZZ5Dm3ciztE/2jKMOdRMuzhzRA0RfMMhjIK4BOuHOxz7vyMsILbFbeR6RdrLOPuZ9iZVnbkcHEAvBII+BuAZol9sffQppbp0RaS/r3GMPS6Q891YYmAAiD3kMxDVAe+QfXos0tyHP0m5W9rjliZNnlmoAxADyGIhrgPlz66fGkOYO5Fnab+CCEzI5xBkAEAwA4hpizM2ffNKVlyFDizchW/aiDx3uSjkH5Gct6zIDy7lSyyfldBIjztzuByD6kMdAXAO0zo2jnzVdmu1Lho6o3Y1MpLSk/29wmYekbJaUNxHyzMWBADGAPAbiGqA1rhv5jMnSPC5b5vLho0rN/6BiKmW3TJVnLZuUO/byjDgDIBgAxDUkgqvvf8x0abavOvmY8q5+QcVU6qD/vsJEeZay6Wt2d3WIvDizhAwg+pDHQFwD7JrcfY/1W9MPNllqsjTnTplbOEVKs1IfXcZh4kWNelAyKOVrqS6RFOepKY7oAaIOeQzENcDsXHn3o6ZL83rZMtecfmzLoilS6kq9LEPlWdu5IOWz51OnyIgzF18ARB/yGIhrgJ25/K5HTJfm0evO+KDTzh+KlLpSP6PlWcpnS/1iJc+scQaIAeQxENcAM7nk4w8ZL803nnW808kOREpdqafR8izls6WesZFn7uMMEAvBII+BuAaoc+HHPjXoSXOfqdJ8y4dPcPzYkUipK/UtGlpfleeSlM+W+hbjEFtp/SosrA0AgiHMPCaXgbgGk7ngjgcHpT8LsvWFHUMtbqv8kuY6KqWyX1u2CQPrq/1Q0H6JQ3yxVAMgBpDHQFwDWFZ2zajpZ5qH8yuG3CB2fOs5Jxal/rah9dfyFLR8Uv9In3nurfBVGEDkIY+BuIakc+5q13hpvv08xw3yA1RKpR2Mlmctn7RDZOW5d5IjeoDIQx4DcQ1J5qxbH3AsMy+Q2y7NH7/gJDeMD1IplfbQg4gxy7wLI2vyLOXLhtUevoszR/QA0Yc8BuIaksoZt9xvsjRPyGbfdeHJoZ5hFSktSbvYlpl3FVF5HpHyWdIukZNnLg4EiINgcBEVENfEdQI57eb7HOm7EUMvAtQL9UKX5jryuWXvgsFxQ9tnRPsvajHHUg2AGEAeA3ENSeOkG+9R6TL6TPMDl5zW1bW891x0SlnaybbMvZ/1iJTPknZyoxJ3af0qLKwNAIIhzDwml4G4hm7jXH93XvpsJOwYaXEbl63r0lxHylHW8si21tD2GpH+zEUl9norHNEDxEAwyGMgriEZfOjaT7jyMmRo8cZlsz95xZlGPSnPvex0LU/G4LZbKWUbkHZzjBdnvgoDiD7kMRDXkASOu/pO46X54avONvbx0iqm0oaWoW04pGWT9jNanrk4ECAGcBEVENfEddw5dtXHXOmnIUMvdNML8IyW5joqplLWUUPbcUj72eT248mBADGAPAbiGuLK0Stv77em70m8zNAijsqWfXzVueWotOmjKz/sSLtqeVcYWLwhKZsl7ekYKc4cZQNEn5DzuP50LoA4xTUYyJFXrem3zL0jRE2an7h6hRPFthUxzUr76gWMJt6ZZEjKpnONLe1r1AEJZ5wBYkDIedxPi0NIcU2sJZjMFauNl+axa89zotzGIqWutLNlqDxrvxekfLa0szHyLOLMET1A9AUj1DzOyJaj1SGEuLZD/LgSLW4Oh112m+nSvOap68/PxqGtRUpdaW+j5VnKZ0t7GyHPXBwIEAMkv4oh5vLS91166wCtDkGiMaaxFlZcy6SMOJvT94PemLbU0AvYhuMizXWkPnrh5bCh7a1xUJC4MOIbqN6pKZZqAESdz99wQfmQi24J8yMdi7POECAyNxFfCUTGsfo1FH2GFnH4izdf6MZ0HnGl/YuGtr+eeS5K+TLS/l19sAxnnAFiguTYhhDzeeV7Lrx5kFaHIJDYGgj5tmPraXUj+l3PNBdk6zP1THNcpbmOSqneVk+2CQPbf4nGR7fnHi4OBIgJkssleVkS4ke6777gRvvLt15SpvXBLySm6rceCxNiuPv9bvKZ5gnZMjLWFZLQF8/dclFRx3ZD+0PLU/Dmnq6ceU6rOIe1AUCg4lwIM59lW6qfaZ93PXc+AD/jOO/FVpixXKTlu4eMIY43fvWF3O+tbBOy2UmR5joqpVpvr/6m9UmfN/d05cxz7yRLKABmsH/2Ok1GP2Sw+JX85aGdyZJc7sbkX7viWdrMDrOuEMu86+ZDLgoh13VAXgZ82FVJ8q4U8X53LDPv5qDomWYd2xJ5YFVYfVnRmw/HLPPubtLnzT2O9E+o31Cl3nnONWGZ86qv3n5FjukBTOWvzr1W4zNr+fvVlK6dzErsF0Mov07EP+riBKP1dIkkaCN2VZ7yVve+Fn6NxG45hHpmvHr6uaRqXLaclH8sov1utDSHMXZHoJ9MvzXgcJhzT+ovP3x1aOL8tTuuRJzBSN5xzjWadEMBfsThEv9jIdSj2OXBbYN3dmJM6lsgsmA3sWpb00+hzFrhrs3fSTwlVgdDqG/Qkjgs9XAj1P8mS7MejNjSnnyLtqO/jJfnsOK/d5K1x5Bw3nb2qkzA0qxoQge+FljyudsDmwrQCt2kXQkuiAKBT7aSCwMhSOKIfE7hG3euLEVgzM1744Sx0iztiDQ3oAcR0m+2wfKs8W9JvwWez71TrHGGhCM54ITwMX1Lz8plxj+eGwu4Lq7BExKAiQT+TZDkZSakumS9zVhkHNQxasjQ4tWkWcZppHkW9GBC+s/2DjaXmyjPUr5+6b98sOLMGWdIujhXKnZIHzUY9CQtA0bxLWdcpcslltCzAHOnzLfvuroUwhgTljgbfW91GZtMlua1sjkSD0jz7ucYbZ+MwX25Wso2KP3oBCbOLNWApCM5ENYFSQMh1UePtlfTswBzkg8pJxPf0H962hUmS/Po9++51iEdWkfFVPrUMrRPh7RsQfWpiDNLNSDp4hxaDoQkzrXlGjnL3EfWApjAxA/vu86N2RhjHH90yuV6bYe283JDizgqcYA0t4GKqfSvsfKsZQuib3unEGdIOHHLARkoyvuddJmeSVtJ7wLsknxYH5TUeVbGIdPvxDD6oweuR5o7m28c6WddvmHitTVDUjbL7z7m4kBAnGOYA1InlQK/70kNEBcmQhXnBM6zfzB8qfG3L/vPkRtcUqFzREyz0t96K1QTby84JGXTtf+29Lcv69d7t7H2ChJOHHNAB4jXDV3MWWeA2cn9dPSm0C4CS9o8K2OP8dIs/Y80+zvnuNLvlqHyXHvCrZTP9iPvuasGJJ645oAMELnfPfFCx+IOGwCNjP/iwVvyYX5gkuZZGXP07J5rsjRL/yPNwcw5rvS/0fIs5bOl/zuSZ5ZqAOIc4xzw7lG9jl4G2I7DGBMMv33CR1SaC5aZS8R0eU72xU99FGkOED0okTgwWp6lfLbEQdvyzBlnQJxjnAMyOBT6jzt/jcVDUQCUVeWHbysyxviPjDOmS7Pdjb5PInpwIvFQNDQeVJ6LUr5Mu/HQW+WMMyScuOeADA7Zvg+eZ1vmfnUKEAbrJx5ZnWOM8R8ZX4yXZul7pDnceafozTsmxoUuXyxo+dqJi94qt6ODpItzAnJA6qhPLita3GUDkonKU6aL+Rfbht33A1ltV9dkaX7p03mkuRuNL1Iq8WGqPGt5Clq++cYHZ5wBcU5ADsjAUNrnmBU6gH2THocESrO98bE1XXuUclzHGBlTHMvMtazKuB4sSb+XSIGuzj1Fb+4xVp61fBInLctzb6XKGmdINknJAR0Y9j76nGGDJzqAIHBefvyOrp5xjOMYI2OJ6dJsS7+XCX9j5h5dzjNmmbdksCbPGs8SL2MtiXOViwMh4SQpB2RgcBcdebaFPENCGH7liTvHul2IuI0xMoYYL83S70izWXNPSeLGtsy8v7fK85NSPh0v3LnFmaUakHRxTlgO6MCw8IizkGeIvTS/+tmPuyYUJE5jjIwdOcvcByutly0j/Y40mzn3lCV+TJXn2pyoc+Nc40ZvhTPOkHCSmAM6MOyZOUN/zFtcMAjxonYh4JaxuwqMMf4iY4YKxZChxRuVPncIf+PnnrLEkdHyrHOjxNIu5TmtB8JhbQAmktQc0IFBymTLNhFmG7CxBbht0Jg2SZrjMsbssfwMHS+GDO13pDlCSF+VvblnvaHxNCLxvst4Yo0zIM4JzoGta+8qLjjstAFr+qKNZUQDRJi1sjnbnrrHuK/poz7GyBihZ9+MPdMsfY40R2/u0Ty1DY6tESmbPVtsscYZEOfwcqBkYv090bB7339qzjJ37SLArtClGbnJp+/NM8b4i4wJ/db0PZqXG1rEVdLvOVIguqiYSpxZhsrzkJZNYmyGPLPGGRKP5MAGa/pJQokU5zo6AaUPPdn1JkrOPkMU0IvBnMoz9xudWzLGRO5iNRkLVJoLlrlPHB2WfndJgeijYirxZqw8a9kk1rbLcy+LjyHxVKvFkMTZ+KdXeQJip997kj4NLB9SuwDMlw01Yf7CA4WIjDFazjDO2vrSHpL/5kvzFx5AmmOEiqnEnbnyLGWTmKvJc5hrnEuEBhg5p1Uq+RAmtQ3VZ92xqLSJDBBa1rHUwY4OFDkEGgxB79Gbl1yKlDTJGDPm5VHQd7BxfSrvoKHSrMtyslHrf2h53nFkztEDNhNvlTokZStK7OV7rUplPKQEKRAWYOSk9qxbSP3th0YDPNKt3R4rom2jE5Qr7WPLq+PVg9vXQdiyNFYT5i99shjRPCpJDmUDFoJhaZ+SPwZTGTCwGfVbhkxUYwBan3MkV8reQaBpc41+E2OlrHef4IRg9+urzz9oExJgMqmDTtRcyFn+nl1VIc9J/Jdi1E4ZT6BtizPREAx6Qqegm+TOWIxyx/bGGD+vIVhbO6h4/sGCj+XUMppyobAeOOW9OvJgk+TMx/1ev5u0dOM8icF8Sq/2TR14vBtg4WqPv6y+8BABD9FI2AOP14Qd7HA3ZYn5YoLayvaOxgcbjsyXEk0wx9xQnxc0V0reazEJ84Xkjt3pPqSdCgGVbcDri74ux4e6iYs/JHo+1lh0rOmTNd2cU/QAblBisZSq3yYndcBxWqisj0fCG7ygz1fXPUzQAwAAREVYDjhuwJOV/hA/tnYgIM5QoAdglpisn5zx4+TWfNCD+rG6y6a4jzMAAAAAwNykaQIAAAAAAMQZAAAAAABxBgAAAABAnAEAAAAAEGcAAAAAAMQZAAAAAABxBgAAAABAnAEAAAAAAHEGAAAAAECcAQAAAAAQZwAAAAAAxBkAAAAAAHEGAAAAAECcAQAAAAAQZwAAAAAAQJwBAAAAABBnAAAAAADEGQAAAAAAcQYAAAAAQJwBAAAAABBnAAAAAADEGQAAAAAAcQYAAAAAAMQZAAAAAABxBgAAAABAnAEAAAAAEGcAAAAAAMQZAAAAAABxBgAAAABIGr00wfz5y7e/3ZYXu8PdlP7l6193OyhDv1eGwQ7KUJAyFHxuG0deBgwrU7ttVZKtKOUpGhQ3lpQnZ1g+DHr16m83F/xsZ69MGoNOJ/npxWLJgLLUcTspj09tMiZlKAccT83lHOskNnxs/0D6wa989mF8KXoxX/axL+tlanu+a6qX7/NDi2XINo1vZSlHfh5/n2maf7pSD0Ccu0Y6ndYkXtnhbtbrANzOH/6vd7wjI2XQv+3rsAwrZV8TmtD/52tfK/nUNjohLOuwTONSnkE/yuNHW8k+RqU8jiFxoxgjztI2rtRryKd9+dLOXlsP+NHWUqZhKZNrQll0svXktZvlyEubONImYwGOryokyxve6kgIfWz/oPoh12GM6v4Kst8lPtRtws/+bRzzZL92O/k9y7gZunBKGQre5/Y1trvUJ9viHPRkw1vjmkeYFOKcKBYtWtTtz8/5IM11+ryB2zGobZYeYNvOukLB9aE8eR/aakjKk5fyFKMcN34jbZKROg35uEtt55y0c8mgHM23e4BrWr/7VI4+r03GAoopW8q5vOntZZ2MB6blnd/l8eaDJT7tztf+baqr5re+ZqUvy1HqPxHkosZmkzyvkPeKu4tL+fdBKb/bJM32fOoPiHMsWLhob6spEbJt7Kbcwecvbfjf86zpr9jmi57RXe39PBBQ26x65pnPz3k25dBD36efr4PSSMPbAz6Vp3FCOaANaaq3td1mO/sdNyblwaBP9WluZ9fnOLQkDlOt/J3Eou0dSC5rEAlfy9JGHNYpdqlNMl7f1ttkSYAx1TherLJ2nGnMtRsXss9iC22+bh5jatHneOi0zQZ8mA8a22CJj2Xb6eBY5x7NM4m/cjfaq130xIk3PjTK84i8p7nkzpI3/VL2xt/doONbq/UGxDlW7L148QwBfvyxTxe6+PnFdj7/6GM+0Pi/ywIqW0vIQFLSSVHKlG0QqI6R/dmN5ZlvO8nfNw5w/VGPG1PzoKmdB7oVh14sFqQ8uUaR0jjqpK+ay9Ktfu+gTca88WJZkOWTz8hIGeufsV7aKadt733uEu0Xfa+N8petOb7ebxoPi0H2Ubv9EOR80NwG8vOA7Kfkc9kmPInUMb7g5VU57PbqBImloheTM+RZ207q4ja0X7+Uu/F3tO6ZVuoLiHMsWbzPvpH//KDq0Ml+5W/LJrWT323U7bgxNQ+CaJdO9qniMXzyqbHrd5Nycxef0bjuM+e913gQk5V+yY/cf2/Z1FiO8rjStB89gC35vE/tX8eaPqOt8lyS/rSlP4tRGjdlfChquZvlWd4r1usiZR6zdpwEUmmes56AOMeavRfvE/nPD6oOnezX7zJ1ur+Gv9/gxyTS7bgxNQ+CaBcf+96KS7+blJvNfHjF+Y58Rn2JwNqPrbmtULOR++8tyL/phdTLrB3XY2RNjeUojnMh5+GgJ5xLvf7U/rWlv4tRGjdVgrXcTfJc8N7LSpmXNUrz7uoHiHMi2GPPPSL/+UHVoZP9+l2mTvcnf68TdOm2m28sxyFuTM2DINqlk32ef9Elg36WyZR+Nyk3m9q7X/bfeLY5O0seftP73xXy+3nJyZKJsRzFcS7MPNSxVPrPbpLnb8p7w/JvbpTGTZXhhrr01evS9Gu21AtpRpxh0d4z1lz1X7HqWns3v16+duUVxQA/v2v78HO/0oYD8reDJrWT3wNeU3mWSZ2rc/zJKomdXETywKhY7CAO++Vvnaa3S36WpYV+Xy/9bpvUX7O0iZ/lylo7ztqNSt1LzXkobTZqTV9YpqhkZ0yM5W58VtTyUOXZmzPzDX06Iu9Z0vduN/umnTnCq0vB2vlC4mG/535AnCPL4n1mfHWkR83rdjcJWj489GI3n9+1fbSwX+fG29a0UvcB+bvmK7nLptYxLuUxpT5BtEvzPiUOq+2W5ZLzV5Ti0O+ztEmhxT9d1vS3E36VScrQL/tuPMOc20XZcw2StVzHFemXQhRz0+/PilIe1hGhLHvzg9Uoz16/OlEaN1WOpdx6ELCyKUeQZsQZtlvefn8Y+c8Pqg5N+11itXdrIx103Kj30xzl2dBCHQtJyIMg+snHfa4JoCyr5viTUkj91e5dMvI+lqnxPuujxx5+2Kx114OXR598qvms86CB8RL6Z0U5D1WSpV9Vold4bw3J/1sSB46p43gzUl5Hytj8gJ3a+m35N1vqgkAjzrDxlc3zEaBSwJ/ftX202DbN9R9okunmI3OVRffU448ud7uO9z70uA7eWo6ilKfkc3lKss9cjPLAqFicZZ/r57kL7e+C9JHrd1m61e8ttkmzTI9bO7798a1NvPwaaBBhZUzes+c4kKz//lLNT7/KEtR4GMZnRSwPd0LEMit9qXNA/T7+Q15sZHQeCLNv2ohh25r5/AE9KHa8Oa4mz/o7Ug/kGXFONr/Z9MqMCfai04dyXfz8ru2jhf26zW1z892jej/kMWvmAyb091zT2kn+3qmXU8q9qtN+DqrNDckDo9qleZ/Sd3bU2ymMNpE4d5pEQMnI75YDKE9zzj85z13kpLxjfpQtzD7y+7OilIe7Qg+ApC+thtjTcbcg79mWoUjZBq2ZT1gc1TlCY9KaecGg1kNzqIA9Ic6JpfzSxsh/flB1mGu/3iRnX3bLx3TS3L62Tf7fvv7CDzsmtZPfbdTtuDE1D4JoF5Pa2pSytFIOPYCVXCw2TPy1++16+enbWTPdn9X5A1X0rJ6uj85FqY9MHVe6nYe7iL2CZeCSNSnnoDXzgsD19flL6lH04rtRntfJe8PyOy4GhTgnkolNL0f+84OqQ6v71UHm7JU3WQ3yPCT/r2ejnTtXXVw2oZ38bqNux42peRBEu5jU1qaUZR65WZRcbJ74C/Ke5uaYT2VplN1V85QjvaNGfU1sVsqV73TMCLOPTB1XmvbTlTF4lthbavn4NFk/kPI1S/O41XSXl1nqoYzonCexijwjzgkU540vR/7zm/Yx3o2yyQDinHD+VY3yvFwHGnkv86nbri75UJaij3UpRz1uTM0Dv9vZtLY2pSzzzM2i5GGzPD8p7w1LbnY08cs+HGvH2eYNsr/cPP9e89ppKFf9iXSR6CO/PyuIPJQ+KXarbF7s1ZdBGCXNUq7+JhmuPeBE2qu8i3poXDYuQRrROa/THALEOXrCsGlTtz9fL7qrX2C37rDTzu90l6VutY0MII5X/u0X/chWlPfsp+7p7GlLOpjJfibqg5z8XO1gd0Wf22ZZB+U5QNqmYEAelHyqTyOFOOTo7srSrX5vIzdredgkCiNebjodlKNRlHNt5nXj7b+G5P9zUqZSFOLF78/y8nCZj/PBRLfrqidOGmLPCHmW8swqzRJ35d3UY0z+btiaed2A5pAlf4c8I85JEueuL9XQSWO1j7vMd7NtdBL+m+NOb5Tn2lfD8l727x++2/WhrVZ2WK1xKUch6nETQBzqGaGsjxObtnMxDjlqYlnazM2i5GGzPA/Je7VlVdJf8/qGQHO64aB/Q7v57eW107Av3Y8dhT4KYKmGa828O0mk54OG2Ct7sdd4MXlX8OK9WeKdVsYrFWRvfpshz/pep/MbIM6RobyxdoRfv5VT6LeZkWTLv/Ww44veRNHuZFH2yu7+61MPlXxsm8b2KM2jTo5Xp8a1YrX3pHzFDtoqJ/sotNlWpXobBRA3He3KhDxQaZK2tT2B0a9WB9rcVcmblMZ8jMOyT21tUlnK3SiHyoHXz41C1W+1cWGelMFuKEO+w9jLWg2P55b/H2h3LJNyrQ8rv/yOTT2ol7rv15CH/W3uSnOwIG1Y8LGujWNeqZ1+1nFb6le/b3epSzmc9eKiXhedN8fmUQ9X6mBZM5cU6fxW8HP+hXD4/wIMAKmG9IL5vVM+AAAAAElFTkSuQmCC;" vertex="1" parent="1">
          <mxGeometry x="84.5" y="-10" width="75" height="80" as="geometry"/>
        </mxCell>
        <mxCell id="CLQW1-JxTxbk87LNEcm7-18" value="" style="edgeStyle=orthogonalEdgeStyle;curved=1;orthogonalLoop=1;jettySize=auto;html=1;exitX=0.825;exitY=0.5;exitDx=0;exitDy=0;exitPerimeter=0;entryX=-0.011;entryY=0.486;entryDx=0;entryDy=0;entryPerimeter=0;shape=link;" edge="1" parent="1" source="CLQW1-JxTxbk87LNEcm7-5" target="CLQW1-JxTxbk87LNEcm7-16">
          <mxGeometry relative="1" as="geometry">
            <mxPoint x="603" y="555" as="targetPoint"/>
          </mxGeometry>
        </mxCell>
        <mxCell id="CLQW1-JxTxbk87LNEcm7-5" value="Summary" style="html=1;fillColor=#5184F3;strokeColor=none;verticalAlign=top;labelPosition=center;verticalLabelPosition=bottom;align=center;spacingTop=-6;fontSize=11;fontStyle=1;fontColor=#999999;shape=mxgraph.gcp2.hexIcon;prIcon=bigquery;" vertex="1" parent="1">
          <mxGeometry x="393" y="500" width="130" height="110" as="geometry"/>
        </mxCell>
        <mxCell id="CLQW1-JxTxbk87LNEcm7-6" value="" style="shape=mxgraph.gcp.management_tools.stackdriver;html=1;fillColor=#4387FD;gradientColor=#4683EA;strokeColor=none;verticalLabelPosition=bottom;verticalAlign=top;align=center;opacity=50;" vertex="1" parent="1">
          <mxGeometry x="-13" y="385" width="90" height="80" as="geometry"/>
        </mxCell>
        <mxCell id="CLQW1-JxTxbk87LNEcm7-7" value="" style="shape=mxgraph.gcp.management_tools.stackdriver;html=1;fillColor=#4387FD;gradientColor=#4683EA;strokeColor=none;verticalLabelPosition=bottom;verticalAlign=top;align=center;" vertex="1" parent="1">
          <mxGeometry x="77" y="385" width="90" height="80" as="geometry"/>
        </mxCell>
        <mxCell id="CLQW1-JxTxbk87LNEcm7-8" value="" style="shape=mxgraph.gcp.management_tools.stackdriver;html=1;fillColor=#4387FD;gradientColor=#4683EA;strokeColor=none;verticalLabelPosition=bottom;verticalAlign=top;align=center;opacity=50;" vertex="1" parent="1">
          <mxGeometry x="169" y="385" width="90" height="80" as="geometry"/>
        </mxCell>
        <mxCell id="CLQW1-JxTxbk87LNEcm7-9" value="Summaryを作る&lt;br&gt;クエリをスケジュール&lt;br&gt;登録" style="text;html=1;resizable=0;points=[];autosize=1;align=left;verticalAlign=top;spacingTop=-4;" vertex="1" parent="1">
          <mxGeometry x="245" y="510" width="130" height="40" as="geometry"/>
        </mxCell>
        <mxCell id="CLQW1-JxTxbk87LNEcm7-21" style="edgeStyle=orthogonalEdgeStyle;curved=1;orthogonalLoop=1;jettySize=auto;html=1;" edge="1" parent="1" source="CLQW1-JxTxbk87LNEcm7-12" target="CLQW1-JxTxbk87LNEcm7-16">
          <mxGeometry relative="1" as="geometry"/>
        </mxCell>
        <mxCell id="CLQW1-JxTxbk87LNEcm7-12" value="" style="shape=actor;whiteSpace=wrap;html=1;opacity=50;" vertex="1" parent="1">
          <mxGeometry x="615" y="230" width="40" height="60" as="geometry"/>
        </mxCell>
        <mxCell id="CLQW1-JxTxbk87LNEcm7-13" value="ユーザ" style="text;html=1;resizable=0;points=[];autosize=1;align=left;verticalAlign=top;spacingTop=-4;" vertex="1" parent="1">
          <mxGeometry x="610" y="200" width="50" height="20" as="geometry"/>
        </mxCell>
        <mxCell id="CLQW1-JxTxbk87LNEcm7-16" value="" style="shape=mxgraph.gcp.big_data.data_studio;html=1;fillColor=#4387FD;gradientColor=#4683EA;strokeColor=none;verticalLabelPosition=bottom;verticalAlign=top;align=center;" vertex="1" parent="1">
          <mxGeometry x="590" y="375" width="90" height="80" as="geometry"/>
        </mxCell>
      </root>
    </mxGraphModel>
  </diagram>
</mxfile>
